<svg width="80" height="80" viewBox="0 0 80 80" fill="none" xmlns="http://www.w3.org/2000/svg">
<path d="M59.0914 33.4411C65.7441 33.4411 70.9794 27.9005 70.9794 21.6467V21.6232C70.9794 15.0526 65.6384 9.72342 59.0565 9.72342C52.7213 9.72342 47.2617 14.9796 47.2617 21.5998C47.2617 28.1237 52.5678 33.4411 59.0914 33.4411ZM56.162 12.5607C56.8904 12.3236 57.5804 12.9124 57.5804 13.6785V20.5222C57.5804 21.9512 58.7517 23.1224 60.1808 23.1224H67.001C67.767 23.1224 68.3559 23.8125 68.1187 24.5409C66.8798 28.3465 63.2935 31.0986 59.0914 31.0986C53.8557 31.0986 49.6042 26.8352 49.6042 21.5998C49.6042 17.3872 52.3564 13.7997 56.162 12.5607Z" fill="#FA5D82"/>
<path d="M26.8587 15.8841H41.8973C42.5533 15.8841 43.0686 15.357 43.0686 14.7128C43.0686 14.0687 42.5533 13.5416 41.8973 13.5416H26.8587C26.2148 13.5416 25.6875 14.0687 25.6875 14.7128C25.6875 15.357 26.2148 15.8841 26.8587 15.8841Z" fill="#6E3D7A"/>
<path d="M26.8587 22.9467H41.8973C42.5533 22.9467 43.0686 22.4196 43.0686 21.7754C43.0686 21.1313 42.5533 20.6042 41.8973 20.6042H26.8587C26.2148 20.6042 25.6875 21.1313 25.6875 21.7754C25.6875 22.4196 26.2148 22.9467 26.8587 22.9467Z" fill="#6E3D7A"/>
<path d="M43.0686 28.838C43.0686 28.1939 42.5533 27.6668 41.8973 27.6668H26.8587C26.2148 27.6668 25.6875 28.1939 25.6875 28.838C25.6875 29.4939 26.2148 30.0093 26.8587 30.0093H41.8973C42.5533 30.0093 43.0686 29.4939 43.0686 28.838Z" fill="#6E3D7A"/>
<path fill-rule="evenodd" clip-rule="evenodd" d="M14.2324 2.5202H70.1243C74.1533 2.5202 77.4332 5.79967 77.4332 9.82874V70.1711C77.4332 74.2031 74.1559 77.4797 70.1243 77.4797H8.89206C5.41322 77.4797 2.56689 74.6453 2.56689 71.155V42.5416C2.56689 39.0512 5.41322 36.2169 8.89206 36.2169H19.1988V24.5162H11.258C8.86861 24.5162 6.92417 22.5719 6.92417 20.1825V9.82874C6.92417 5.79967 10.204 2.5202 14.2324 2.5202ZM70.1243 75.1372C72.8041 75.1372 75.0907 72.96 75.0907 70.1711V9.82874C75.0907 7.08807 72.8654 4.86269 70.1243 4.86269H19.5968C21.6977 7.22458 21.6475 9.09985 21.5225 13.7678C21.4596 16.115 21.3779 19.1684 21.5412 23.3449V36.2169H51.7476C55.2379 36.2169 58.0722 39.0512 58.0722 42.5416V71.155C58.0722 72.6659 57.5455 74.048 56.6671 75.1372H70.1243ZM5.73995 41.0067C4.84448 42.3936 4.84448 44.3065 4.84448 48.1324V65.6231C4.84448 69.449 4.84448 71.3619 5.73995 72.7488C6.17101 73.4164 6.73921 73.9846 7.40681 74.4156C8.79365 75.3111 10.7066 75.3111 14.5325 75.3111H45.8676C49.6935 75.3111 51.6064 75.3111 52.9933 74.4156C53.6609 73.9846 54.2291 73.4164 54.6601 72.7488C55.5556 71.3619 55.5556 69.449 55.5556 65.6231V48.1324C55.5556 44.3065 55.5556 42.3936 54.6601 41.0067C54.2291 40.3392 53.6609 39.771 52.9933 39.3399C51.6064 38.4444 49.6935 38.4444 45.8676 38.4444H14.5325C10.7066 38.4444 8.79365 38.4444 7.40681 39.3399C6.73921 39.771 6.17101 40.3392 5.73995 41.0067Z" fill="#FA5D82"/>
</svg>
