<svg xmlns="http://www.w3.org/2000/svg" width="1327" height="494" fill="none" viewBox="0 0 1327 494">
  <path stroke="#fff" stroke-miterlimit="10" stroke-width="2" d="m924.572 22 .683 28.3474 24.932 13.6614-26.64 9.2215-5.123 28.0057-17.418-22.5411L873 82.4517l16.052-23.2243-12.295-25.6152 27.323 7.8553L924.572 22Z"/>
  <path fill="#fff" d="m1304.91 23.7515 21.17-10.5877-19.8-12.978375-1.37 23.566075Z"/>
  <path fill="#9E68AD" d="M1239.33 64.053c0-2.7323-2.39-5.1231-5.12-5.1231s-5.12 2.3908-5.12 5.1231 2.39 5.123 5.12 5.123c2.73.3415 5.12-2.0492 5.12-5.123Z"/>
  <path fill="#FBB670" d="m33.812 357-.3415 17.76 15.0276 9.221-16.7353 5.123-4.0984 17.077-9.9045-14.344L0 393.203 10.5876 379.2l-6.83071-16.394 16.73521 5.806L33.812 357Z"/>
  <path fill="#B881C7" d="m416 473.708 13.32 19.467L439.566 472 416 473.708Z"/>
  <path stroke="#fff" stroke-miterlimit="10" stroke-width="2" d="m134 74.3504 40.301-15.0276L141.172 32 134 74.3504Z"/>
  <path fill="#4965B2" d="M47.7167 27.1672c0-2.7323-2.3907-5.123-5.123-5.123-2.7323 0-5.1231 2.3907-5.1231 5.123 0 2.7323 2.3908 5.1231 5.1231 5.1231s5.123-2.3908 5.123-5.1231Z"/>
  <path fill="#ED8686" d="M558.588 101.175c5.847 0 10.587-4.7401 10.587-10.5875S564.435 80 558.588 80C552.74 80 548 84.7401 548 90.5875s4.74 10.5875 10.588 10.5875Z"/>
  <path fill="#FBB670" d="M1270 243.314 1319 261l-9.47-51-39.53 33.314Z"/>
</svg>
