<svg width="234" height="195" viewBox="0 0 234 195" fill="none" xmlns="http://www.w3.org/2000/svg">
<path d="M182.304 175.385L27.4988 175.385L27.4988 144.823L182.304 144.823V175.385Z" fill="#FBB670"/>
<path opacity="0.2" d="M182.304 175.385L27.4988 175.385L27.4988 144.823L182.304 144.823V175.385Z" fill="#4B444D"/>
<path d="M56.3232 175.385H41.2231L41.2231 144.823H56.3232V175.385Z" fill="#FBB670"/>
<path d="M68.3283 175.385H61.9863L61.9863 144.823H68.3283V175.385Z" fill="#FBB670"/>
<path d="M168.225 175.385H153.125V144.823H168.225V175.385Z" fill="#FBB670"/>
<path d="M194.776 69.8987L232.757 212.774C233.251 214.632 232.145 216.539 230.287 217.033L215.068 221.078C213.21 221.572 211.303 220.466 210.809 218.608L172.829 75.7331C172.335 73.875 173.441 71.9683 175.299 71.4744L190.517 67.4288C192.375 66.9349 194.282 68.0407 194.776 69.8987Z" fill="#FBB670"/>
<path d="M226.189 188.247L230.069 202.84L208.121 208.674L204.242 194.082L226.189 188.247Z" fill="#6B3B0A"/>
<path d="M197.465 80.123L201.344 94.7156L179.397 100.55L175.517 85.9572L197.465 80.123Z" fill="#6B3B0A"/>
<path d="M77.4811 122.052H184.872V144.823H77.4811V122.052Z" fill="#AFABB0"/>
<path d="M19.7171 122.052H77.4814V144.823H19.7171C17.7944 144.823 16.2358 143.264 16.2358 141.342V125.533C16.2358 123.611 17.7944 122.052 19.7171 122.052Z" fill="#AFABB0"/>
<path d="M77.4812 124.408H184.872V142.467H77.4812V124.408Z" fill="white"/>
<path d="M177.927 128.092C169.531 127.971 161.196 127.85 152.8 127.85L127.674 127.79L102.547 127.85C94.1517 127.911 85.8165 127.971 77.4209 128.092C85.8165 128.213 94.1517 128.334 102.547 128.334L127.674 128.394L152.8 128.334C161.196 128.334 169.591 128.273 177.927 128.092Z" fill="#F2EFF2"/>
<path d="M177.927 131.656C169.531 131.535 161.196 131.414 152.8 131.414L127.674 131.354L102.547 131.414C94.1517 131.474 85.8165 131.535 77.4209 131.656C85.8165 131.776 94.1517 131.897 102.547 131.897L127.674 131.958L152.8 131.897C161.196 131.897 169.591 131.776 177.927 131.656Z" fill="#F2EFF2"/>
<path d="M177.927 135.219C169.531 135.098 161.196 134.978 152.8 134.978L127.674 134.917L102.547 134.978C94.1517 135.038 85.8165 135.098 77.4209 135.219C85.8165 135.34 94.1517 135.461 102.547 135.461L127.674 135.521L152.8 135.461C161.196 135.4 169.591 135.34 177.927 135.219Z" fill="#F2EFF2"/>
<path d="M177.927 138.722C169.531 138.602 161.196 138.481 152.8 138.481L127.674 138.42L102.547 138.481C94.1517 138.541 85.8165 138.602 77.4209 138.722C85.8165 138.843 94.1517 138.964 102.547 138.964L127.674 139.024L152.8 138.964C161.196 138.964 169.591 138.904 177.927 138.722Z" fill="#F2EFF2"/>
<path d="M123.589 206.697L3.39307 206.697L3.39307 175.35H123.589V206.697Z" fill="#6B3B0A"/>
<path d="M186.774 206.697H123.595V175.35H183.292C185.215 175.35 186.774 176.908 186.774 178.831V206.697Z" fill="#6B3B0A"/>
<path d="M123.589 203.436L3.39307 203.436L3.39307 178.611H123.589V203.436Z" fill="white"/>
<path d="M9.22859 193.505C16.235 193.626 23.2414 193.747 30.2478 193.747L81.467 193.807L102.486 193.747C109.493 193.686 116.499 193.626 123.505 193.505C116.499 193.384 109.493 193.264 102.486 193.264L81.467 193.203L30.2478 193.264C23.2414 193.264 16.235 193.324 9.22859 193.505Z" fill="#DBDBDB"/>
<path d="M9.22859 188.613C16.235 188.734 23.2414 188.854 30.2478 188.854L81.467 188.915L102.486 188.854C109.493 188.794 116.499 188.734 123.505 188.613C116.499 188.492 109.493 188.371 102.486 188.371L81.467 188.311L30.2478 188.371C23.2414 188.371 16.235 188.492 9.22859 188.613Z" fill="#DBDBDB"/>
<path d="M9.22859 183.72C16.235 183.841 23.2414 183.962 30.2478 183.962L81.467 184.022L102.486 183.962C109.493 183.901 116.499 183.841 123.505 183.72C116.499 183.599 109.493 183.479 102.486 183.479L81.467 183.418L30.2478 183.479C23.2414 183.539 16.235 183.599 9.22859 183.72Z" fill="#DBDBDB"/>
<path d="M5.24191 2.27886C5.24191 2.27886 8.14111 7.53367 10.8591 7.17127C11.0403 7.17127 11.2215 7.11086 11.4631 7.05046C15.5703 5.84246 19.3755 3.90966 23.4223 2.46006C26.4423 1.37286 29.6435 0.466863 32.8447 0.346063C35.9251 0.225263 38.9451 0.768861 41.7839 1.97686C45.5287 3.48686 48.8507 6.02366 51.5687 9.04367C53.1995 10.6141 54.7699 12.3657 56.0383 14.1173C59.6019 12.2449 64.2527 12.0033 67.3331 14.4193C70.7155 11.2181 75.4871 9.52687 80.1379 9.64767C82.9767 9.76847 85.6343 10.6141 88.1107 12.0033C88.2315 12.0637 88.2919 12.1241 88.4127 12.1845C88.3523 12.1241 88.2919 12.0637 88.2315 12.0637C85.5135 10.1309 82.4935 8.62086 79.1111 8.56046C75.8495 8.50006 72.5275 9.58726 69.6887 11.2181C72.4067 9.64767 75.3059 8.37926 78.5071 8.31886C81.5875 8.19806 84.4263 9.28527 87.0235 10.8557C88.7147 11.9429 90.2851 13.1509 91.8555 14.4193C93.3051 15.3857 94.7547 16.4125 96.2647 17.2581C99.0431 18.8285 102.365 20.3385 105.566 19.3721C115.411 16.4125 131.901 -5.02954 144.403 5.84246C144.403 5.78206 144.403 5.78206 144.464 5.78206C150.564 7.65446 156.363 14.4193 156.725 21.0633C157.51 35.4385 141.987 48.7265 141.867 51.9277C141.685 56.4577 142.531 60.9877 142.531 65.5177C142.833 68.8397 142.954 72.1617 142.108 75.4233C140.779 80.4365 136.914 84.4833 131.901 85.9329C131.78 85.9329 131.78 85.8121 131.84 85.8121C134.921 84.7853 137.578 82.8525 139.451 80.1949C141.746 76.9333 142.35 73.1281 142.289 69.2625C142.289 69.3833 142.289 69.5041 142.229 69.5645C140.417 83.6981 127.19 85.4497 124.592 85.9933C125.257 88.3489 125.8 90.7649 125.921 93.2413C126.223 98.9189 123.988 103.872 119.217 107.012C114.203 110.334 109.432 107.858 109.13 107.918C109.07 110.516 107.439 112.871 105.144 114.14C103.452 115.046 101.399 115.348 99.4659 115.046C87.0235 119.092 74.2791 110.516 69.5679 95.6573C69.5679 95.6573 52.2935 96.8049 49.5755 75.4837C49.5755 75.4837 17.8051 63.8869 16.5367 27.7677C16.6575 27.6469 -0.073288 18.2849 5.24191 2.27886ZM46.6763 5.05727C41.9651 1.73526 36.2875 0.0440635 30.4891 0.889664C23.9055 1.85606 17.9259 5.17806 11.5839 7.05046C14.0603 6.62766 16.4159 5.72166 18.7715 4.93646C21.7915 3.90966 24.8719 3.06406 28.0127 2.52046C33.1467 1.55406 38.7035 1.19166 43.5959 3.36606C44.6227 3.84926 45.6495 4.45327 46.6763 5.05727ZM109.13 107.858C107.62 111.24 104.358 113.898 100.674 114.502C102.063 114.562 103.392 114.381 104.721 113.777C107.076 112.75 108.828 110.455 109.13 107.858Z" fill="#681510"/>
<path d="M70.6553 95.2949C68.9037 95.7781 67.1521 95.9593 65.4005 95.8385C63.6489 95.7177 61.9577 95.2345 60.3873 94.4493C58.8169 93.6641 57.4277 92.5769 56.2197 91.3085C55.0117 90.0401 53.9245 88.6509 52.8977 87.1409C53.6225 88.7717 54.5285 90.3421 55.7365 91.7313C56.3405 92.4561 57.0049 93.0601 57.7297 93.6641C58.4545 94.2077 59.2397 94.7513 60.0249 95.1741C61.6557 96.0197 63.5281 96.4425 65.3401 96.4425C67.2125 96.5029 69.0245 96.1405 70.6553 95.2949Z" fill="#7C2E41"/>
<path d="M146.215 6.80884C147.604 8.13764 148.812 9.64764 149.9 11.2784C150.987 12.8488 151.893 14.6004 152.557 16.4124C153.222 18.2244 153.584 20.1572 153.524 22.09C153.524 24.0228 153.282 25.9556 152.859 27.828C151.953 31.5728 150.081 35.0156 147.906 38.2168C146.819 39.7872 145.611 41.3576 144.464 42.8676C143.316 44.438 142.168 46.0084 141.383 47.8204L141.081 48.4848L140.84 49.2096C140.719 49.6928 140.658 50.176 140.598 50.6592C140.538 51.6256 140.598 52.592 140.658 53.5584C140.779 55.4912 141.021 57.424 141.202 59.3568C141.564 63.2224 141.927 67.088 141.564 70.8932C141.323 72.826 140.96 74.6984 139.934 76.3896C138.967 78.0808 137.699 79.5304 136.31 80.8592C134.86 82.188 133.29 83.2752 131.659 84.302C130.028 85.3288 128.276 86.1744 126.464 86.8992C128.276 86.2348 130.028 85.3288 131.719 84.3624C133.41 83.396 134.981 82.2484 136.43 80.98C137.88 79.7116 139.148 78.2016 140.175 76.5104C141.202 74.8192 141.625 72.8864 141.866 70.9536C142.108 69.0208 142.108 67.088 142.048 65.1552C141.987 63.2224 141.806 61.2896 141.625 59.3568C141.444 57.424 141.202 55.4912 141.081 53.5584C141.021 52.592 140.96 51.6256 141.021 50.6592C141.081 50.176 141.142 49.6928 141.262 49.27L141.504 48.6056L141.806 47.9412C142.591 46.1896 143.739 44.6192 144.886 43.0488C146.034 41.4784 147.242 39.9684 148.329 38.3376C150.564 35.1364 152.436 31.6332 153.282 27.828C153.765 25.9556 153.946 23.9624 153.946 22.0296C154.007 20.0968 153.584 18.1036 152.92 16.2916C152.195 14.4796 151.228 12.7884 150.141 11.1576C148.873 9.64764 147.604 8.13764 146.215 6.80884Z" fill="#5C2230"/>
<path d="M144.041 5.23864C143.195 5.05744 142.289 4.99704 141.443 4.93664C140.537 4.87624 139.692 4.93664 138.786 4.99704C137.034 5.17824 135.283 5.54064 133.652 6.20504C132.021 6.86944 130.451 7.77544 129.061 8.86264C127.672 9.94984 126.343 11.0974 124.954 12.1846C122.236 14.359 119.458 16.5938 116.559 18.5266C115.109 19.493 113.599 20.399 112.089 21.2446C110.519 22.0298 108.948 22.7546 107.257 23.117C106.411 23.3586 105.566 23.419 104.72 23.419C103.875 23.419 103.029 23.2982 102.183 22.9962C100.553 22.3922 99.1633 21.3654 97.7137 20.2782C94.9353 18.1642 92.2173 15.869 89.0765 14.1778C87.5061 13.3322 85.8753 12.6678 84.1841 12.245C82.4929 11.8222 80.6809 11.641 78.9293 11.8222C77.1777 11.943 75.4261 12.4262 73.7953 13.0302C72.1645 13.6342 70.5941 14.4798 69.0841 15.3858C70.5941 14.4798 72.1645 13.6946 73.7953 13.0906C75.4261 12.4866 77.1777 12.0638 78.9293 12.0034C80.6809 11.8826 82.4325 12.0638 84.1237 12.4866C85.8149 12.9094 87.4457 13.6342 88.9557 14.4798C90.4657 15.3254 91.9153 16.3522 93.3045 17.379C94.6937 18.4058 96.0829 19.5534 97.4721 20.5802C98.8613 21.607 100.311 22.6942 102.002 23.3586C102.848 23.6606 103.754 23.8418 104.66 23.8418C105.566 23.8418 106.472 23.721 107.317 23.5398C109.069 23.117 110.7 22.3922 112.27 21.607C113.841 20.7614 115.351 19.8554 116.8 18.889C119.699 16.8958 122.478 14.7214 125.196 12.4866C126.525 11.3994 127.914 10.2518 129.243 9.16464C130.632 8.07744 132.142 7.17144 133.712 6.50704C135.343 5.84264 137.034 5.41984 138.786 5.23864C139.631 5.11784 140.537 5.11784 141.383 5.11784C142.289 4.99704 143.135 5.05744 144.041 5.23864Z" fill="#7C2E41"/>
<path d="M122.236 85.3289C122.659 86.4765 123.022 87.7449 123.263 88.9529C123.505 90.1609 123.686 91.4293 123.686 92.6977C123.746 95.1741 123.384 97.7109 122.357 100.006C121.874 101.154 121.149 102.18 120.364 103.147C120.002 103.63 119.518 104.053 119.096 104.476C118.854 104.657 118.612 104.898 118.371 105.08L118.008 105.382L117.646 105.623C115.592 107.073 113.297 108.1 110.881 108.885C111.485 108.704 112.089 108.522 112.693 108.341C113.297 108.1 113.901 107.918 114.445 107.677C114.988 107.375 115.592 107.194 116.136 106.831L116.982 106.348L117.767 105.804L118.19 105.563L118.552 105.261C118.794 105.08 119.035 104.838 119.277 104.657C119.76 104.234 120.183 103.811 120.606 103.268C121.451 102.301 122.176 101.214 122.72 100.066C123.746 97.7109 124.169 95.1137 123.988 92.6373C123.867 90.1609 123.263 87.6845 122.236 85.3289Z" fill="#5C2230"/>
<path d="M95.2375 87.1409C93.3651 88.1677 91.3719 89.0133 89.3787 89.7985C87.3855 90.5837 85.3319 91.1877 83.2179 91.7313C79.0503 92.6977 74.7015 93.1809 70.4735 92.4561C68.3595 92.0937 66.3059 91.3689 64.4335 90.4025C64.1919 90.2817 63.9503 90.1609 63.7087 90.0401L63.0443 89.6173C62.6215 89.3153 62.1383 89.0737 61.7155 88.7113C61.2927 88.3489 60.8699 88.0469 60.5075 87.6845L59.3599 86.5369C59.1787 86.3557 58.9975 86.1141 58.8163 85.9329L58.3331 85.3289L57.8499 84.7249C57.6687 84.4833 57.5479 84.3021 57.4271 84.0605L56.5815 82.7317L55.8567 81.3425L55.4943 80.6177C55.3735 80.3761 55.3131 80.1345 55.1923 79.8929L54.5883 78.4433C54.4675 78.2017 54.4071 77.9601 54.2863 77.7185L54.0447 76.9333L53.5615 75.4233V75.3629L53.5011 75.3025C51.1455 74.3361 48.9107 73.1281 46.7363 71.7993C44.5619 70.4705 42.4479 69.0813 40.4547 67.5109C36.4683 64.3701 32.8443 60.8065 29.7035 56.8201C28.1331 54.8269 26.7439 52.7129 25.4755 50.4781C24.2071 48.2433 23.1199 46.0085 22.1535 43.6529C20.2811 38.9417 19.0731 33.9889 18.4691 28.9153C19.0127 33.9889 20.1603 39.0021 21.9723 43.7133C22.9387 46.0689 24.0259 48.3641 25.2943 50.5989C26.5627 52.8337 27.9519 54.9477 29.5223 56.9409C32.6631 60.9877 36.2871 64.6117 40.2735 67.7525C42.2667 69.3229 44.3807 70.7725 46.5551 72.1013C48.7295 73.4301 50.9643 74.6381 53.3803 75.6045L53.2595 75.4837L53.8031 76.9937L54.0447 77.7789C54.1051 78.0205 54.2259 78.2621 54.3467 78.5641L55.0111 80.0741C55.1319 80.3157 55.1923 80.5573 55.3131 80.7989L55.6755 81.5237L56.4607 82.9733L57.3667 84.3021C57.5479 84.5437 57.6687 84.7853 57.7895 84.9665L58.2727 85.5705L58.7559 86.1745C58.9371 86.3557 59.1183 86.5973 59.2995 86.7785L60.4471 87.9261C60.8699 88.2885 61.2927 88.5905 61.7155 88.9529C62.1383 89.3153 62.5611 89.6173 63.0443 89.9193L63.7087 90.3421C63.9503 90.4629 64.1919 90.5837 64.4335 90.7045C66.3663 91.7313 68.4199 92.4561 70.5339 92.7581C74.8223 93.4829 79.1711 92.9996 83.3387 91.9729C85.4527 91.4293 87.4459 90.7649 89.4995 89.9797C91.4323 89.0737 93.3651 88.1677 95.2375 87.1409Z" fill="#5C2230"/>
<path d="M148.148 34.291C147.001 36.2238 145.43 37.8546 143.86 39.425C142.289 40.9954 140.659 42.5658 139.209 44.3174C138.484 45.2234 137.82 46.1294 137.337 47.1562C137.216 47.3978 137.095 47.6998 136.974 47.9414C136.853 48.183 136.793 48.485 136.733 48.787C136.612 49.3306 136.612 49.9346 136.612 50.4782C136.672 52.7734 137.155 54.9478 137.639 57.1222C138.122 59.2966 138.726 61.471 139.209 63.6454C139.692 65.8198 140.115 68.0546 140.115 70.2894C140.115 70.833 140.055 71.3766 139.994 71.9202C139.934 72.4638 139.753 73.0074 139.571 73.551C139.209 74.5778 138.726 75.6046 138.182 76.571C137.035 78.5038 135.464 80.1346 133.531 81.3426C135.464 80.195 137.095 78.5642 138.303 76.6918C138.907 75.7254 139.39 74.6986 139.753 73.6718C139.934 73.1282 140.115 72.5846 140.175 72.041C140.236 71.4974 140.296 70.8934 140.296 70.3498C140.296 69.2022 140.175 68.115 140.055 66.9674C139.873 65.8802 139.692 64.7326 139.451 63.6454C138.967 61.471 138.424 59.2966 137.941 57.1222C137.457 54.9478 136.914 52.7734 136.853 50.5386C136.853 49.995 136.853 49.4514 136.974 48.9078C137.035 48.6662 137.095 48.3642 137.216 48.1226C137.337 47.881 137.397 47.579 137.518 47.3374C138.001 46.3106 138.665 45.465 139.33 44.559C140.719 42.8074 142.289 41.237 143.86 39.6062C144.645 38.7606 145.43 37.9754 146.095 37.1298C146.94 36.2238 147.605 35.3178 148.148 34.291Z" fill="#5C2230"/>
<path d="M61.4741 71.0141C59.1789 70.4705 56.9441 69.6853 54.7697 68.8397C52.5953 67.9941 50.4209 66.9673 48.3673 65.8801C44.1997 63.7057 40.3341 60.9877 36.7705 57.9073C35.0189 56.3369 33.3278 54.7061 31.7574 52.9545C30.187 51.2029 28.7978 49.3305 27.469 47.3977C26.2006 45.4649 24.9322 43.4113 23.9054 41.2973C23.3618 40.2705 22.8786 39.1833 22.3954 38.0961C22.1538 37.5525 21.9726 37.0089 21.731 36.4653L21.0666 34.8345C22.5162 39.3041 24.5698 43.5925 27.167 47.5789C27.8314 48.5453 28.4958 49.5117 29.2206 50.4781C29.9454 51.4445 30.6702 52.3505 31.4554 53.1961C33.0258 54.9477 34.7169 56.6389 36.4685 58.2093C40.0321 61.2897 43.9581 64.0077 48.1861 66.1217C50.3001 67.2089 52.4745 68.1753 54.6489 68.9605C56.8837 69.8061 59.1789 70.5309 61.4741 71.0141Z" fill="#5C2230"/>
<path d="M61.7759 26.439C61.4135 25.835 61.0511 25.2914 60.6283 24.6874C60.2055 24.1438 59.8431 23.5398 59.4203 22.9962C58.5747 21.909 57.7291 20.8218 56.8231 19.795C55.0111 17.681 53.0783 15.7482 51.0247 13.8758C48.9711 12.0638 46.7363 10.3726 44.3203 9.04376C41.9043 7.71496 39.2467 6.68816 36.5287 6.32576C33.7503 6.02376 30.9719 6.32576 28.2539 6.86936C25.5359 7.35256 22.8783 8.07736 20.2207 8.68136C18.8919 8.98336 17.5631 9.22496 16.1739 9.34576C14.8451 9.46656 13.4559 9.46656 12.1271 9.10416C10.7983 8.80216 9.65066 7.95656 8.74466 6.92976C7.89906 5.84256 7.35546 4.57416 6.93266 3.24536C7.29506 4.57416 7.77826 5.90296 8.62386 6.99016C9.46946 8.07736 10.6775 8.92296 12.0063 9.28536C13.3351 9.64776 14.7847 9.70816 16.1135 9.58736C17.5027 9.46656 18.8315 9.22496 20.2207 8.92296C22.9387 8.37936 25.5963 7.65456 28.2539 7.17136C30.9719 6.68816 33.6899 6.38616 36.4079 6.68816C39.1259 7.05056 41.7231 8.01696 44.0787 9.34576C46.4947 10.6746 48.6691 12.3054 50.7831 14.1174C52.8367 15.9294 54.7695 17.8622 56.6419 19.9158C57.5479 20.9426 58.4539 21.9694 59.2995 23.0566C59.7223 23.6002 60.1451 24.1438 60.5679 24.6874C60.9907 25.2914 61.4135 25.835 61.7759 26.439Z" fill="#7C2E41"/>
<path d="M77.1783 95.597C78.5071 96.0802 79.8963 96.4426 81.2855 96.6842C82.6747 96.9258 84.1243 97.0466 85.5135 97.107C88.3523 97.1674 91.1911 96.805 93.9695 96.1406C99.4659 94.691 104.54 91.7918 108.768 87.9866C110.882 86.0538 112.754 83.9398 114.385 81.5842C115.23 80.4366 115.955 79.2286 116.68 78.0206C117.405 76.8126 118.069 75.5442 118.673 74.2758C121.15 69.1418 122.901 63.7058 123.807 58.0886C123.324 60.867 122.539 63.585 121.633 66.303C120.727 68.9606 119.64 71.6182 118.371 74.155C115.895 79.2286 112.633 83.9398 108.466 87.745C104.298 91.5502 99.2847 94.389 93.8487 95.899C91.1307 96.6238 88.2919 96.9862 85.5135 96.9862C84.1243 96.9862 82.6747 96.8654 81.2855 96.6842C79.8963 96.3822 78.5071 96.0802 77.1783 95.597Z" fill="#5C2230"/>
<path d="M2.04084 187.043C3.97364 186.922 52.5353 166.869 53.9245 164.936C54.0453 164.695 53.0185 162.641 51.2065 156.903C51.1461 156.601 51.7501 155.091 52.7769 152.917C56.6425 144.642 66.3669 126.401 66.3669 126.401L33.0261 116.797L20.5233 150.138L17.2617 158.775C17.2617 158.775 2.10124 177.077 0.83284 179.311C-0.375168 181.727 0.108032 187.224 2.04084 187.043Z" fill="#ED8686"/>
<path d="M2.0406 187.043C3.9734 186.922 52.535 166.869 53.9242 164.936C54.045 164.755 53.0182 162.641 51.2062 156.903C43.173 161.071 9.53021 178.526 6.93301 176.956C5.36261 176.05 6.32901 173.151 7.59742 170.614C4.33581 174.661 1.3762 178.405 0.832603 179.372C-0.375401 181.727 0.1078 187.163 2.0406 187.043Z" fill="#7C2E41"/>
<path d="M24.0266 135.702L29.6438 138.179L47.7034 146.212L57.609 150.561C57.609 150.561 70.897 116.676 77.9034 107.254C78.3866 106.65 78.8094 106.106 79.2322 105.744C79.7154 105.442 80.561 105.14 81.7086 104.898C92.037 102.664 127.613 102.845 151.833 99.1L148.209 77.658L133.713 77.1748C133.109 77.96 131.055 79.9532 130.27 79.8324C103.936 76.5708 69.9306 70.5912 56.5218 78.9264C40.7574 88.5904 24.0266 135.702 24.0266 135.702Z" fill="#5C2230"/>
<path d="M29.0402 131.535C34.6574 133.83 33.087 133.105 38.7042 135.461C41.4222 136.608 55.2538 142.407 57.6698 143.917C57.7302 143.977 57.6698 144.038 57.6094 144.038C54.8914 143.313 41.1806 137.212 38.4626 136.004C32.9058 133.528 34.5366 134.192 28.9798 131.656C28.859 131.656 28.9798 131.474 29.0402 131.535Z" fill="#7C2E41"/>
<path d="M47.7031 146.212L57.6087 150.561C57.6087 150.561 70.8967 116.677 77.9031 107.254L47.7031 146.212Z" fill="#7C2E41"/>
<path d="M53.9246 146.393C57.307 139.326 72.5278 104.596 76.031 102.966C79.2322 101.456 145.491 96.8048 146.457 96.7444C146.518 96.7444 146.518 96.8652 146.457 96.8652C138.605 97.4692 78.145 102.784 76.4538 103.63C73.011 105.382 54.7098 145.729 54.2266 146.574C54.1662 146.816 53.8038 146.635 53.9246 146.393Z" fill="#7C2E41"/>
<path d="M175.691 78.4433C175.691 78.4433 179.858 102.18 170.798 113.173C158.054 128.696 76.3326 124.468 63.8902 120.482C51.4478 116.435 51.0854 96.3821 64.6754 91.7313C77.601 87.3221 134.981 84.7853 136.31 84.2417C137.639 83.6981 141.867 77.2957 141.867 77.2957L175.691 78.4433Z" fill="#5C2230"/>
<path d="M159.865 85.0268C159.865 84.906 160.047 84.9664 160.047 85.0268C160.047 87.5636 160.953 90.2212 162.644 92.154C164.577 94.3284 167.355 95.5968 169.892 96.8652C170.133 96.986 169.952 97.3484 169.711 97.288C168.14 96.8048 166.63 96.1404 165.241 95.3552C163.973 94.6304 162.765 93.7244 161.859 92.5164C160.167 90.4024 159.443 87.7448 159.865 85.0268Z" fill="#7C2E41"/>
<path d="M136.914 82.9733C137.457 82.2485 138.122 81.5841 138.665 80.8593C140.054 79.1681 141.504 77.5373 142.954 75.9065C143.074 75.7253 143.376 75.9669 143.256 76.1481C142.289 77.4165 141.202 78.6849 140.175 79.9533C139.632 80.6177 139.088 81.2217 138.605 81.8861C138.122 82.4901 137.518 83.0941 137.095 83.7585C136.732 84.4833 137.216 85.0873 137.94 85.1477C138.605 85.2081 139.209 84.9061 139.752 84.4833C140.9 83.5773 141.806 82.3089 142.772 81.2217C143.376 80.5573 143.98 79.8929 144.524 79.2285C145.188 78.5037 145.853 77.8997 146.457 77.1749C146.517 77.1145 146.578 77.1749 146.517 77.2353C145.974 78.0205 145.43 78.8057 144.886 79.5305C144.343 80.3157 143.739 81.0405 143.195 81.8257C142.652 82.5505 142.108 83.2149 141.504 83.8793C141.021 84.4833 140.477 85.0269 139.813 85.3893C138.726 85.9933 136.914 86.1745 136.31 84.7853C136.128 84.2417 136.491 83.5169 136.914 82.9733Z" fill="#7C2E41"/>
<path d="M65.6415 120.602C69.9299 120.663 74.2183 120.904 78.5067 121.025C82.7347 121.146 87.0231 121.146 91.2511 121.086C99.7675 121.025 108.344 120.663 116.861 120.119C125.438 119.515 134.739 118.67 143.316 117.462C147.423 116.918 151.53 116.435 155.577 115.529C159.201 114.744 162.523 113.234 165.241 110.576C170.798 105.2 172.912 97.2881 173.818 89.7985C173.939 88.7717 174.06 87.7449 174.12 86.7785C174.12 86.7181 174.241 86.7181 174.241 86.7785C173.758 94.5097 172.55 102.603 167.657 108.764C165.543 111.482 162.886 113.656 159.745 114.925C155.94 116.435 151.651 116.797 147.604 117.341C139.028 118.488 129.726 119.394 121.089 120.059C112.391 120.723 103.694 121.146 94.9959 121.267C86.2983 121.388 77.5403 121.267 68.8427 120.844C67.7555 120.784 66.7287 120.723 65.6415 120.663C65.5811 120.663 65.5811 120.602 65.6415 120.602Z" fill="#7C2E41"/>
<path d="M54.2259 101.879C55.0715 98.4961 57.0647 95.6573 59.9639 93.6641C63.0443 91.5501 66.7287 90.5837 70.4131 90.0401C74.5203 89.4361 78.7483 89.1341 82.8555 88.7113C91.3719 87.8657 99.8883 87.1409 108.465 86.4161C116.982 85.6913 135.343 84.3021 136.37 84.2417C136.43 84.2417 136.491 84.3625 136.37 84.4229C128.156 85.3289 120.666 86.1141 112.391 86.8993C104.116 87.6241 95.8415 88.4697 87.5063 89.2549C83.3991 89.6777 79.2315 90.1005 75.1243 90.5233C71.3191 90.9461 67.3931 91.3085 63.7691 92.7581C60.6887 94.0265 57.9103 96.0801 56.3399 99.0397C54.8299 101.939 54.5279 105.382 55.1319 108.583C55.6755 111.542 57.0647 114.381 59.1183 116.616C61.1115 118.79 63.6483 120.482 66.5475 121.146C67.2723 121.327 68.2387 121.448 68.9031 121.569C68.9635 121.569 69.0239 121.69 68.9635 121.69C62.8027 121.871 57.1251 117.341 54.8903 111.724C53.6823 108.583 53.4407 105.08 54.2259 101.879Z" fill="#7C2E41"/>
<path d="M145.008 47.458C141.807 55.7328 128.821 80.678 120.485 81.886C115.049 82.6712 90.3458 83.2752 86.9634 77.8392C85.5138 75.4836 91.3726 59.236 94.2114 60.0816C97.0502 60.9272 115.472 60.9876 117.647 60.5044C119.821 60.0212 132.928 44.6796 139.451 39.2436C149.477 30.848 147.484 40.9348 145.008 47.458Z" fill="#ED8686"/>
<path d="M137.579 67.39L125.378 51.0216C125.378 51.0216 134.136 41.418 140.84 37.1296C145.974 33.868 148.209 36.5256 147.364 40.4516C144.585 53.6188 137.579 67.39 137.579 67.39Z" fill="#865194"/>
<path opacity="0.2" d="M128.459 49.6324C130.512 52.0484 135.888 58.632 138.847 63.4036C138.847 63.4036 138.787 63.5244 138.727 63.464C135.707 59.84 130.15 52.29 128.277 49.6928C128.277 49.6928 128.398 49.572 128.459 49.6324Z" fill="#552C61"/>
<path d="M142.229 42.6865C142.229 43.0489 142.531 43.4113 142.954 43.4113C143.377 43.4113 143.679 43.1093 143.679 42.6865C143.679 42.3241 143.377 41.9617 142.954 41.9617C142.531 41.9617 142.229 42.3241 142.229 42.6865ZM135.525 54.3437C135.887 54.3437 136.25 54.6457 136.25 55.0685C136.25 55.4309 135.948 55.7933 135.525 55.7933C135.102 55.7933 134.8 55.4913 134.8 55.0685C134.8 54.7061 135.163 54.3437 135.525 54.3437Z" fill="white"/>
<path opacity="0.1" d="M129.123 56.0952L137.519 67.39C137.519 67.39 144.585 53.6188 147.303 40.4516C147.787 38.1564 147.243 36.284 145.673 35.8008L129.123 56.0952Z" fill="#4B444D"/>
<path d="M135.162 69.2024L133.773 77.0544L175.751 78.504C175.751 78.504 166.993 46.0692 158.96 37.7944C153.524 32.1772 147.303 32.7812 143.437 36.8884C142.471 37.9152 133.169 51.7468 132.082 57.8472C131.055 63.2228 135.162 69.2024 135.162 69.2024Z" fill="#ED8686"/>
<path d="M174.06 69.8664L144.887 69.6852L133.834 73.0072L135.102 69.202C135.102 69.202 130.995 63.2224 131.961 57.8468C133.048 51.7464 142.35 37.9148 143.316 36.888C147.182 32.7204 153.403 32.1768 158.839 37.794C164.517 43.532 171.04 60.142 174.06 69.8664Z" fill="#865194"/>
<path d="M157.027 42.6865C157.027 43.0489 157.329 43.4113 157.752 43.4113C158.114 43.4113 158.476 43.1093 158.476 42.6865C158.476 42.3241 158.174 41.9617 157.752 41.9617C157.329 42.0221 157.027 42.3241 157.027 42.6865ZM142.893 42.0221C143.256 42.0221 143.618 42.3241 143.618 42.7469C143.618 43.1093 143.316 43.4717 142.893 43.4717C142.47 43.4717 142.168 43.1697 142.168 42.7469C142.229 42.3241 142.531 42.0221 142.893 42.0221ZM172.489 66.6653C172.852 66.6653 173.214 66.9673 173.214 67.3901C173.214 67.8129 172.912 68.1149 172.489 68.1149C172.127 68.1149 171.765 67.8129 171.765 67.3901C171.765 66.9673 172.127 66.6653 172.489 66.6653ZM157.691 66.6653C158.054 66.6653 158.416 66.9673 158.416 67.3901C158.416 67.8129 158.114 68.1149 157.691 68.1149C157.329 68.1149 156.966 67.8129 156.966 67.3901C156.966 66.9673 157.329 66.6653 157.691 66.6653ZM142.893 66.6653C143.256 66.6653 143.618 66.9673 143.618 67.3901C143.618 67.8129 143.316 68.1149 142.893 68.1149C142.47 68.1149 142.168 67.8129 142.168 67.3901C142.168 66.9673 142.531 66.6653 142.893 66.6653ZM165.121 54.3437C165.483 54.3437 165.845 54.6457 165.845 55.0685C165.845 55.4309 165.543 55.7933 165.121 55.7933C164.758 55.7933 164.396 55.4913 164.396 55.0685C164.396 54.7061 164.698 54.3437 165.121 54.3437ZM150.322 54.3437C150.685 54.3437 151.047 54.6457 151.047 55.0685C151.047 55.4309 150.745 55.7933 150.322 55.7933C149.96 55.7933 149.598 55.4913 149.598 55.0685C149.598 54.7061 149.9 54.3437 150.322 54.3437ZM135.524 54.3437C135.887 54.3437 136.249 54.6457 136.249 55.0685C136.249 55.4309 135.947 55.7933 135.524 55.7933C135.102 55.7933 134.8 55.4913 134.8 55.0685C134.8 54.7061 135.162 54.3437 135.524 54.3437Z" fill="white"/>
<path opacity="0.2" d="M149.055 65.6384C147.243 65.88 145.431 66.182 143.679 66.7256C142.773 67.0276 141.928 67.3296 141.082 67.692C140.659 67.8732 140.236 67.994 139.814 68.1752C139.391 68.3564 138.908 68.4772 138.424 68.4772C138.364 68.4772 138.364 68.5376 138.424 68.5376C138.847 68.5376 139.33 68.5376 139.753 68.4772C140.176 68.4168 140.599 68.296 141.022 68.1752C141.928 67.8732 142.773 67.5712 143.679 67.2692C145.491 66.6652 147.243 66.1216 149.115 65.6988C149.176 65.8196 149.176 65.6384 149.055 65.6384Z" fill="#552C61"/>
<path opacity="0.2" d="M153.585 67.5712C152.075 67.39 150.565 67.3296 149.055 67.3296C148.33 67.3296 147.545 67.39 146.82 67.5108C146.458 67.5712 146.095 67.6316 145.733 67.692C145.37 67.7524 144.948 67.8732 144.585 67.9336C144.525 67.9336 144.525 67.994 144.585 67.994C144.948 67.9336 145.31 67.994 145.733 67.994C146.095 67.994 146.458 67.9336 146.88 67.9336C147.605 67.9336 148.39 67.8732 149.115 67.8732C150.625 67.8128 152.135 67.7524 153.585 67.7524C153.645 67.692 153.645 67.5712 153.585 67.5712Z" fill="#552C61"/>
<path d="M143.921 71.3765C144.162 71.4973 144.344 71.6785 144.464 71.8597C144.646 72.0409 144.766 72.2825 144.827 72.5241C145.008 73.0073 145.068 73.4905 145.008 73.9737C145.008 74.2153 144.887 74.3965 144.706 74.4569C144.525 74.5173 144.344 74.3361 144.283 74.1549C144.223 73.9133 144.162 73.6717 144.162 73.4301C144.162 73.1885 144.223 72.9469 144.344 72.7053C143.981 73.1281 143.921 73.7321 144.102 74.2757C144.162 74.3965 144.223 74.5777 144.344 74.6381C144.464 74.7589 144.646 74.8193 144.827 74.7589C145.008 74.7589 145.129 74.6381 145.25 74.4569C145.31 74.3361 145.37 74.1549 145.37 74.0341C145.431 73.7321 145.37 73.4905 145.31 73.1885C145.25 72.9469 145.189 72.6449 145.068 72.4033C144.827 71.9805 144.464 71.4973 143.921 71.3765Z" fill="#7C2E41"/>
<path d="M151.651 35.3782C151.772 36.5862 150.504 42.445 147.001 43.2906C145.189 43.7134 143.437 37.5526 143.437 37.5526L143.195 37.1298L140.236 31.0898L147.484 23.5398C147.605 23.419 151.651 35.0158 151.651 35.3782Z" fill="#ED8686"/>
<path d="M149.115 27.7675C148.39 33.0223 144.947 35.9215 143.317 37.0691L140.357 31.0291L147.605 23.4791C147.605 23.4187 148.269 25.4119 149.115 27.7675Z" fill="#7C2E41"/>
<path d="M128.639 23.6603C130.753 35.3175 138.001 35.3175 140.478 34.8947C142.773 34.4719 150.444 32.7203 149.538 20.9423C148.632 9.16431 142.531 6.44631 137.276 7.17111C132.022 7.83551 126.525 12.0031 128.639 23.6603Z" fill="#ED8686"/>
<path d="M148.873 20.8216C146.82 21.7276 144.887 17.0164 144.887 17.0164C144.887 17.0164 135.404 18.164 132.505 11.0368C132.505 11.0368 132.324 16.1708 128.216 19.674C128.216 19.674 126.163 11.52 132.082 8.07722C132.082 8.07722 139.149 2.88282 145.491 7.83562C151.712 12.7884 150.202 20.2176 148.873 20.8216Z" fill="#681510"/>
<path d="M132.203 10.4329C132.384 11.5805 132.927 12.6677 133.592 13.6945C134.256 14.6609 135.162 15.5065 136.189 16.1709C136.431 16.3521 136.733 16.4729 136.974 16.5937L137.397 16.7749C137.518 16.8353 137.699 16.8957 137.82 16.9561C138.122 17.0769 138.363 17.1373 138.665 17.2581C138.967 17.3185 139.269 17.3789 139.511 17.4393C139.632 17.4393 139.813 17.4997 139.934 17.4997L140.357 17.5601L141.263 17.6205C141.867 17.6205 142.471 17.5601 143.014 17.4997C142.41 17.4393 141.867 17.4393 141.263 17.3185L140.417 17.1977L139.994 17.1373C139.873 17.0769 139.692 17.0769 139.571 17.0165C139.269 16.9561 139.028 16.8353 138.726 16.7749C138.484 16.6541 138.182 16.5937 137.941 16.4729L137.518 16.2917L137.155 16.1105C136.914 15.9897 136.672 15.8689 136.431 15.6877C135.464 15.0837 134.619 14.2985 133.894 13.4529C133.531 13.0301 133.229 12.5469 132.927 12.0033C132.686 11.5201 132.444 10.9765 132.203 10.4329Z" fill="#7C2E41"/>
<path d="M147.545 21.6069C147.545 21.6069 149.055 17.3789 150.927 17.8017C152.799 18.2245 152.316 23.9021 150.625 25.1705C148.934 26.3785 147.726 24.8685 147.726 24.8685L147.545 21.6069Z" fill="#ED8686"/>
<path d="M150.746 19.4326C150.806 19.4326 150.806 19.493 150.746 19.4326C149.598 20.399 149.236 21.7882 149.115 23.2378C149.357 22.6338 149.84 22.211 150.625 22.513C150.686 22.513 150.625 22.5734 150.625 22.5734C150.021 22.6338 149.659 22.815 149.417 23.3586C149.236 23.721 149.176 24.2042 149.055 24.5666C149.055 24.6874 148.813 24.6874 148.813 24.5666C148.813 24.5666 148.813 24.5666 148.813 24.5062C148.33 22.8754 148.994 20.097 150.746 19.4326Z" fill="#7C2E41"/>
<path d="M150.323 24.8082C150.323 25.1102 150.081 25.2914 149.84 25.2914C149.538 25.2914 149.357 25.0498 149.357 24.8082C149.357 24.5062 149.598 24.325 149.84 24.325C150.081 24.325 150.323 24.5062 150.323 24.8082Z" fill="#455A64"/>
<path d="M150.021 24.8082C150.021 24.929 149.901 25.0498 149.78 25.0498C149.659 25.0498 149.538 24.929 149.538 24.8082C149.538 24.6874 149.659 24.5667 149.78 24.5667C149.961 24.5667 150.021 24.6874 150.021 24.8082Z" fill="#7C2E41"/>
<path d="M150.988 23.9625C150.988 24.1437 150.806 24.3249 150.625 24.3249C150.444 24.3249 150.263 24.1437 150.263 23.9625C150.263 23.7813 150.444 23.6001 150.625 23.6001C150.867 23.6001 150.988 23.7813 150.988 23.9625Z" fill="#455A64"/>
<path d="M130.39 21.6674C130.632 21.5466 130.873 21.4258 131.115 21.305C131.417 21.1842 131.659 21.1238 131.84 20.8218C131.961 20.6406 131.84 20.399 131.719 20.3386C131.417 20.0969 130.994 20.1573 130.632 20.3386C130.269 20.5198 129.967 20.701 129.786 21.0634C129.665 21.4258 130.028 21.7882 130.39 21.6674Z" fill="#7C2E41"/>
<path d="M138.665 19.7345C138.363 19.7345 138.122 19.7345 137.82 19.7345C137.518 19.7345 137.276 19.7345 136.974 19.5533C136.853 19.4325 136.793 19.1909 136.853 19.0701C137.035 18.7077 137.457 18.6473 137.82 18.5869C138.243 18.5869 138.545 18.6473 138.907 18.8889C139.209 19.1305 139.028 19.6741 138.665 19.7345Z" fill="#7C2E41"/>
<path d="M137.458 22.5131C137.458 22.4527 137.518 22.5131 137.518 22.5735C137.639 23.3587 137.941 24.2647 138.726 24.3855V24.4459C137.82 24.5063 137.458 23.2983 137.458 22.5131Z" fill="#7C2E41"/>
<path d="M138.001 21.5466C139.27 21.1842 139.874 23.7814 138.666 24.0834C137.518 24.3854 136.914 21.8486 138.001 21.5466Z" fill="#7C2E41"/>
<path d="M138.545 21.6069C138.786 21.7277 139.088 21.9089 139.33 21.8485C139.632 21.7881 139.813 21.4861 139.994 21.1841C139.994 21.1237 140.055 21.1841 140.055 21.1841C140.175 21.6673 140.115 22.2109 139.571 22.3921C139.088 22.5733 138.665 22.2109 138.424 21.7277C138.363 21.6673 138.424 21.5465 138.545 21.6069Z" fill="#7C2E41"/>
<path d="M132.686 23.2378L132.626 23.2982C132.807 24.0834 132.867 25.0498 132.203 25.4122V25.4726C133.048 25.231 132.988 23.9626 132.686 23.2378Z" fill="#7C2E41"/>
<path d="M131.78 22.5734C130.451 22.6942 130.813 25.2914 132.021 25.1706C133.29 25.0498 132.927 22.4526 131.78 22.5734Z" fill="#7C2E41"/>
<path d="M131.296 22.7545C131.115 22.9357 130.874 23.2377 130.632 23.2981C130.33 23.3585 130.028 23.1169 129.786 22.8753C129.786 22.8753 129.726 22.8753 129.726 22.9357C129.786 23.4189 130.028 23.9021 130.572 23.9021C131.055 23.9021 131.357 23.4189 131.417 22.8753C131.478 22.8149 131.417 22.6941 131.296 22.7545Z" fill="#7C2E41"/>
<path d="M139.874 28.7341C139.753 28.9757 139.632 29.2777 139.33 29.3985C139.088 29.5193 138.726 29.4589 138.424 29.4589C138.424 29.4589 138.364 29.5193 138.424 29.5193C138.726 29.7609 139.209 29.8213 139.511 29.6401C139.874 29.4589 139.934 29.0965 139.934 28.7945C139.934 28.6737 139.874 28.7341 139.874 28.7341Z" fill="#7C2E41"/>
<path d="M135.102 26.6805C135.102 26.6805 135.283 27.8885 135.465 28.4321C135.465 28.4925 135.646 28.4925 135.827 28.4321C136.854 28.3113 137.699 27.7073 138.062 26.7409C138.062 26.6805 138.001 26.6201 137.941 26.6805C137.397 27.4053 136.612 27.7677 135.767 28.0697C135.706 27.9489 135.525 26.0161 135.465 26.0161C135.163 26.0765 134.619 26.4389 134.317 26.6805C133.894 24.2041 133.834 21.6069 133.351 19.1305C133.351 19.0701 133.23 19.0701 133.169 19.1305C133.049 21.7881 133.471 24.6873 133.894 27.2845C133.894 27.5865 134.921 26.8617 135.102 26.6805Z" fill="#7C2E41"/>
<path d="M136.129 28.1302C136.129 28.1302 136.733 28.6134 137.397 28.7342C137.639 28.7342 137.881 28.7342 138.183 28.6134C138.666 28.3718 138.605 27.8282 138.364 27.4658C138.183 27.1638 137.941 26.8618 137.941 26.8618C137.941 26.8618 137.337 27.7678 136.129 28.1302Z" fill="#7C2E41"/>
<path d="M137.397 28.7342C137.639 28.7342 137.881 28.7342 138.183 28.6134C138.666 28.3718 138.605 27.8282 138.364 27.4658C137.82 27.5866 137.337 28.1302 137.397 28.7342Z" fill="#ED8686"/>
<path d="M122.66 70.6516C122.177 73.43 130.149 74.034 132.082 74.638C134.015 75.242 134.196 75.7856 133.109 76.148C132.988 76.2084 132.747 76.2084 132.445 76.2688C135.585 76.148 146.276 74.336 146.276 74.336C146.276 74.336 140.538 71.316 137.458 70.108C134.438 68.9604 123.143 67.8732 122.66 70.6516Z" fill="#ED8686"/>
<path d="M101.399 56.5782C101.399 56.5782 98.6812 54.6454 96.3256 53.7394C93.97 52.8334 88.7152 51.3234 87.8092 50.7798L86.2388 50.5986L95.0572 83.9998L109.07 88.409L132.928 83.2146L125.922 51.5046L124.291 51.3234C124.291 51.3234 121.271 52.1086 118.734 52.471C116.258 52.8938 107.681 52.773 101.399 56.5782Z" fill="white"/>
<path d="M111.124 89.3753L103.332 57.2425L126.949 51.2629L134.197 84.0601L111.124 89.3753Z" fill="#DE9D5C"/>
<path opacity="0.2" d="M111.124 89.3753L103.332 57.2425L126.949 51.2629L134.197 84.0601L111.124 89.3753Z" fill="white" fill-opacity="0.72"/>
<path d="M111.124 89.3755H107.681L99.8896 57.2427H103.332L111.124 89.3755Z" fill="#DE9D5C"/>
<path opacity="0.1" d="M111.124 89.3755H107.681L99.8896 57.2427H103.332L111.124 89.3755Z" fill="white" fill-opacity="0.72"/>
<path d="M107.681 89.3754L99.8898 57.2426L85.575 50.2966L94.6954 84.3018L107.681 89.3754Z" fill="#DE9D5C"/>
<path opacity="0.2" d="M107.681 89.3754L99.8898 57.2426L85.575 50.2966L94.6954 84.3018L107.681 89.3754Z" fill="white" fill-opacity="0.72"/>
<path d="M114.808 80.6778C114.506 83.1542 118.19 84.6038 118.432 84.7246C118.19 84.6642 114.868 83.7582 114.747 86.2346C114.626 88.8318 117.767 90.7042 117.767 90.7042C117.767 90.7042 116.559 91.0666 117.284 92.939C118.311 95.5966 124.23 97.3482 127.552 97.5294C130.874 97.7106 143.679 95.657 145.551 95.355L146.336 74.3962C146.336 74.3962 135.646 76.2082 132.505 76.329H132.444C130.814 76.5102 127.129 76.4498 125.861 76.329C122.418 75.9666 118.13 72.705 117.103 75.0606C116.197 77.1746 119.398 79.1678 119.398 79.1678C119.398 79.1678 115.11 78.0806 114.808 80.6778Z" fill="#ED8686"/>
<path d="M119.58 79.2283C124.23 81.7047 126.646 81.9463 131.841 81.5839C131.962 81.5839 131.962 81.7047 131.841 81.7651C126.828 82.6108 123.687 82.6712 119.459 79.4699C119.278 79.2887 119.398 79.1075 119.58 79.2283Z" fill="#D26F6E"/>
<path d="M118.251 84.5437C123.264 86.6577 125.922 87.0201 131.358 87.0201C131.418 87.0201 131.418 87.1409 131.358 87.1409C126.043 87.5637 122.902 87.6241 118.13 84.7853C117.949 84.6645 118.009 84.4229 118.251 84.5437Z" fill="#D26F6E"/>
<path d="M117.828 90.5836C122.841 92.3352 125.74 92.8184 130.995 92.0936C131.116 92.0936 131.176 92.2748 131.055 92.2748C125.74 93.4828 122.116 92.9392 117.768 90.7044C117.466 90.644 117.526 90.5232 117.828 90.5836Z" fill="#D26F6E"/>
<path d="M85.2722 57.4844C84.4266 60.2628 81.8899 64.0076 81.9503 66.1216C82.0107 68.0544 83.7018 68.4772 83.7018 68.4772C83.7018 68.4772 81.769 69.8664 82.1314 71.7992C82.3126 72.826 84.1246 73.3696 84.1246 73.3696C84.1246 73.3696 82.6146 74.5776 83.0978 76.2688C83.4602 77.658 85.2118 77.96 85.2118 77.96C85.2118 77.96 84.3058 79.772 85.091 81.0404C86.7822 83.6376 98.681 81.7048 99.8286 76.9936C100.372 74.8192 97.473 75.4232 97.473 75.4232C97.473 75.4232 101.399 73.4904 101.097 71.0744C100.795 68.598 97.0502 69.6248 97.0502 69.6248C97.0502 69.6248 100.855 67.7524 100.251 65.2156C99.6474 62.558 96.0838 64.2492 96.0838 64.2492C96.0838 64.2492 98.4394 62.0144 97.5334 60.2024C96.0234 57.1824 91.6746 61.954 88.8962 61.7728L86.7822 57.6656L85.2722 57.4844Z" fill="#ED8686"/>
<path d="M83.4606 61.652C84.0042 58.934 80.3197 56.2764 80.5009 53.6188C80.6821 49.9948 85.1518 52.7732 86.843 57.726L87.447 61.7728L83.4606 61.652Z" fill="#ED8686"/>
<path d="M85.5134 78.1412C85.453 78.1412 85.453 78.2016 85.5134 78.2016C89.6206 78.5036 94.211 77.658 97.7142 75.4836C97.835 75.4232 97.7746 75.1816 97.6538 75.242C93.5466 76.752 89.8018 77.7788 85.5134 78.1412Z" fill="#D26F6E"/>
<path d="M84.1247 73.4302C84.0643 73.4302 84.0643 73.4906 84.1247 73.4906C88.3526 73.7926 93.4866 72.645 97.2314 69.7458C97.3522 69.625 97.3522 69.4438 97.2314 69.5042C94.5738 71.3162 88.0506 73.1886 84.1247 73.4302Z" fill="#D26F6E"/>
<path d="M96.3247 64.0077C92.5799 66.6653 88.4123 67.9337 83.8823 68.5377C83.8219 68.5377 83.8219 68.5981 83.8823 68.6585C86.1775 68.9605 89.0163 68.2357 91.1303 67.5109C93.1839 66.7861 94.9355 65.7593 96.3851 64.1285C96.5059 64.0681 96.4455 63.9473 96.3247 64.0077Z" fill="#D26F6E"/>
<path d="M164.879 44.6795C173.033 55.7327 184.751 80.4967 180.885 87.0803C178.107 91.8519 150.564 95.5967 144.162 95.3551C141.384 95.2343 139.692 74.7587 142.652 74.2755C145.31 73.7923 160.591 73.3091 160.893 72.7051C161.255 71.9803 155.396 51.1423 153.766 42.3239C151.41 29.2775 161.678 40.3307 164.879 44.6795Z" fill="#ED8686"/>
<path d="M176.959 57.5447L156.786 60.6855C156.786 60.6855 152.377 48.4243 151.773 40.5119C151.289 34.4719 154.672 33.7471 157.752 36.2839C168.081 44.8607 176.959 57.5447 176.959 57.5447Z" fill="#865194"/>
<path d="M157.028 42.6862C157.028 43.0486 157.33 43.411 157.752 43.411C158.115 43.411 158.477 43.109 158.477 42.6862C158.477 42.3238 158.175 41.9614 157.752 41.9614C157.33 42.0218 157.028 42.3238 157.028 42.6862ZM165.121 54.3434C165.484 54.3434 165.846 54.6455 165.846 55.0683C165.846 55.4307 165.544 55.7931 165.121 55.7931C164.759 55.7931 164.396 55.4911 164.396 55.0683C164.396 54.7059 164.698 54.3434 165.121 54.3434Z" fill="white"/>
<path opacity="0.2" d="M156.967 57.3032C160.047 56.5784 168.443 54.9476 174 54.5852C174.06 54.5852 174.06 54.706 174 54.706C169.409 55.7328 160.108 57.0616 156.967 57.4844C156.967 57.4844 156.907 57.3032 156.967 57.3032Z" fill="#552C61"/>
<path opacity="0.2" d="M156.544 60.746C156.001 59.1756 155.578 57.5448 155.095 55.9744C154.853 55.5516 154.672 55.1288 154.491 54.706C154.249 54.1624 154.007 53.5584 153.887 52.9544C153.887 52.9544 153.947 52.894 153.947 52.9544C154.068 53.2564 154.128 53.498 154.249 53.8C154.37 54.102 154.491 54.3436 154.611 54.6456C154.732 54.9476 154.853 55.1892 154.974 55.4912C154.551 53.9208 154.128 52.3504 153.826 50.7196C153.826 50.6592 153.887 50.6592 153.887 50.7196C154.491 52.3504 155.034 54.0416 155.517 55.6724C156.001 57.3032 156.484 58.934 156.846 60.6252C157.148 60.6252 157.39 60.5648 157.692 60.5648C157.752 60.5648 157.813 60.6856 157.692 60.6856C157.39 60.8064 157.088 60.8668 156.725 60.9272C156.665 60.8668 156.605 60.8668 156.544 60.746Z" fill="#552C61"/>
<path d="M158.054 60.5044L159.624 67.3296C159.866 68.4772 160.108 69.6248 160.349 70.7724C160.47 71.316 160.591 71.92 160.591 72.4636C160.591 72.524 160.53 72.5844 160.591 72.524C160.591 72.524 160.651 72.4636 160.591 72.4636H160.53C160.41 72.4636 160.289 72.524 160.108 72.524C159.806 72.5844 159.564 72.5844 159.262 72.6448C156.967 72.8864 154.611 73.0072 152.316 73.1884L145.31 73.6716L145.551 73.732C144.706 73.2488 143.8 72.826 142.894 72.4032C141.988 71.9804 141.082 71.5576 140.176 71.1952C139.27 70.7724 138.303 70.4704 137.397 70.1684C136.431 69.8664 135.464 69.6248 134.498 69.504C135.464 69.6248 136.431 69.9872 137.337 70.2892C138.243 70.6516 139.149 71.0744 140.055 71.4368C141.867 72.2824 143.618 73.1884 145.31 74.1548L145.37 74.2152H145.43C150.081 73.9736 154.732 73.732 159.383 73.1884C159.685 73.128 159.987 73.128 160.289 73.0676C160.41 73.0676 160.591 73.0072 160.772 73.0072L160.893 72.9468C160.953 72.9468 161.074 72.8864 161.134 72.826C161.255 72.5844 161.195 72.524 161.195 72.4636C161.134 71.7992 161.014 71.2556 160.893 70.712C160.651 69.5644 160.349 68.4168 160.047 67.3296C159.443 64.974 158.779 62.7392 158.054 60.5044Z" fill="#D26F6E"/>
</svg>
