<svg width="136" height="140" viewBox="0 0 136 140" fill="none" xmlns="http://www.w3.org/2000/svg">
<path d="M135.43 50.0103C135.43 34.2727 122.658 21.1894 106.61 21.1894C105.022 21.1894 103.499 21.32 101.977 21.5802C96.8431 13.6411 87.9247 8.39861 77.7668 8.39861C74.1345 8.39861 70.654 9.07303 67.4348 10.3136C62.1493 4.54959 54.6016 0.938477 46.1616 0.938477C32.3932 0.938477 20.8648 10.5961 18.0152 23.5377C7.81136 27.9076 0.570312 38.0587 0.570312 50.0103C0.570312 62.2562 8.20516 72.7401 18.9939 76.895V126.054C18.9939 133.232 24.8449 139.061 32.0231 139.061H103.956C111.134 139.061 116.985 133.232 116.985 126.054V76.9162C127.774 72.7624 135.43 62.2785 135.43 50.0103V50.0103ZM112.635 78.2216V126.054C112.635 130.839 108.741 134.711 103.956 134.711H32.0231C27.2378 134.711 23.3442 130.839 23.3442 126.054V78.2003V37.3289C23.3442 32.5431 27.2378 28.6495 32.0231 28.6495H103.956C108.741 28.6495 112.635 32.5431 112.635 37.3289V78.2216Z" fill="#FA5D82"/>
<path d="M39.1361 40.0915H96.8433C98.0615 40.0915 99.0184 39.1123 99.0184 37.9164C99.0184 36.6982 98.0615 35.7412 96.8433 35.7412H39.1361C37.9179 35.7412 36.9609 36.6982 36.9609 37.9164C36.9609 39.1123 37.9179 40.0915 39.1361 40.0915Z" fill="#6E3D7A"/>
<path d="M39.1361 51.8594H59.0827C60.3004 51.8594 61.2579 50.9014 61.2579 49.6842C61.2579 48.4872 60.3004 47.509 59.0827 47.509H39.1361C37.9179 47.509 36.9609 48.4872 36.9609 49.6842C36.9609 50.9014 37.9179 51.8594 39.1361 51.8594V51.8594Z" fill="#6E3D7A"/>
<path d="M73.9601 61.0168H62.78C62.1709 61.0168 61.6924 61.4948 61.6924 62.1044V78.1781V80.5062C61.6924 81.1148 62.1709 81.5938 62.78 81.5938H73.9601C74.5692 81.5938 75.0477 81.1148 75.0477 80.5062V77.9827V62.1044C75.0477 61.4948 74.5692 61.0168 73.9601 61.0168V61.0168Z" fill="#6E3D7A"/>
<path d="M96.7345 80.5061V77.1128V52.6857C96.7345 52.0761 96.2342 51.5981 95.6469 51.5981H84.445C83.8577 51.5981 83.3574 52.0761 83.3574 52.6857V74.3938V80.5061C83.3574 81.1147 83.8577 81.5937 84.445 81.5937H95.6469C96.2342 81.5937 96.7345 81.1147 96.7345 80.5061V80.5061Z" fill="#6E3D7A"/>
<path d="M40.3327 68.7168C39.7454 68.7168 39.2451 69.1947 39.2451 69.8044V77.1126V80.506C39.2451 81.1146 39.7454 81.5936 40.3327 81.5936H51.5346C52.1219 81.5936 52.6222 81.1146 52.6222 80.506V74.4372V69.8044C52.6222 69.1947 52.1219 68.7168 51.5346 68.7168H40.3327Z" fill="#6E3D7A"/>
<path d="M51.9698 91.5115C42.0308 91.5115 35.373 99.8405 35.373 108.196C35.373 117.303 42.7518 124.792 51.9698 124.792C62.5777 124.792 68.6749 116.099 68.6749 108.196C68.6749 99.1094 61.2818 91.5115 51.9698 91.5115ZM45.698 99.1866C45.1797 98.6893 45.2351 97.8407 45.8579 97.4828C47.7028 96.4227 49.7845 95.8618 51.9698 95.8618C54.9781 95.8618 57.8242 96.9516 60.0299 98.8628C60.573 99.3334 60.4636 100.177 59.8587 100.565L52.9972 104.963C52.5475 105.251 51.9589 105.194 51.5735 104.824L45.698 99.1866ZM60.0614 117.527C59.6705 117.872 59.2554 118.186 58.8225 118.474C58.2199 118.873 57.4283 118.542 57.2154 117.851L54.7948 109.992C54.642 109.496 54.8385 108.959 55.2753 108.679L62.2175 104.226C62.8265 103.836 63.6443 104.095 63.8433 104.79C64.1588 105.893 64.3246 107.033 64.3246 108.196C64.3246 111.785 62.7803 115.178 60.0614 117.527Z" fill="#FA5D82"/>
<path d="M79.9206 98.7121C82.3233 98.7121 84.271 96.7644 84.271 94.3618C84.271 91.9592 82.3233 90.0115 79.9206 90.0115C77.518 90.0115 75.5703 91.9592 75.5703 94.3618C75.5703 96.7644 77.518 98.7121 79.9206 98.7121Z" fill="#6E3D7A"/>
<path d="M100.606 92.187H91.6879C90.4696 92.187 89.5127 93.1429 89.5127 94.3622C89.5127 95.5581 90.4696 96.5373 91.6879 96.5373H100.606C101.802 96.5373 102.781 95.5581 102.781 94.3622C102.781 93.1429 101.802 92.187 100.606 92.187Z" fill="#6E3D7A"/>
<path d="M79.9206 112.22C82.3233 112.22 84.271 110.272 84.271 107.87C84.271 105.467 82.3233 103.519 79.9206 103.519C77.518 103.519 75.5703 105.467 75.5703 107.87C75.5703 110.272 77.518 112.22 79.9206 112.22Z" fill="#6E3D7A"/>
<path d="M100.606 105.695H91.6879C90.4696 105.695 89.5127 106.673 89.5127 107.87C89.5127 109.066 90.4696 110.045 91.6879 110.045H100.606C101.802 110.045 102.781 109.066 102.781 107.87C102.781 106.673 101.802 105.695 100.606 105.695Z" fill="#6E3D7A"/>
<path d="M79.9206 125.467C82.3233 125.467 84.271 123.519 84.271 121.116C84.271 118.714 82.3233 116.766 79.9206 116.766C77.518 116.766 75.5703 118.714 75.5703 121.116C75.5703 123.519 77.518 125.467 79.9206 125.467Z" fill="#6E3D7A"/>
<path d="M100.606 118.941H91.6879C90.4696 118.941 89.5127 119.92 89.5127 121.116C89.5127 122.312 90.4696 123.291 91.6879 123.291H100.606C101.802 123.291 102.781 122.312 102.781 121.116C102.781 119.92 101.802 118.941 100.606 118.941Z" fill="#6E3D7A"/>
</svg>
