<svg width="44" height="44" viewBox="0 0 44 44" fill="none" xmlns="http://www.w3.org/2000/svg">
<path d="M11 0C9.4875 0 8.25 1.2375 8.25 2.75V41.25C8.25 42.7625 9.4875 44 11 44H38.5C40.0125 44 41.25 42.7625 41.25 41.25V11L30.25 0H11Z" fill="white"/>
<path d="M33 11H41.25L30.25 0V8.25C30.25 9.7625 31.4875 11 33 11Z" fill="#AFABB0"/>
<path d="M41.25 19.25L33 11H41.25V19.25Z" fill="#D1CDD1"/>
<path d="M35.75 35.75C35.75 36.5063 35.1312 37.125 34.375 37.125H4.125C3.36875 37.125 2.75 36.5063 2.75 35.75V22C2.75 21.2437 3.36875 20.625 4.125 20.625H34.375C35.1312 20.625 35.75 21.2437 35.75 22V35.75Z" fill="#EED372"/>
<path d="M15.2434 26.1306C15.4139 26.2186 15.4991 26.3588 15.4991 26.5513C15.4991 26.6668 15.4579 26.7796 15.3754 26.8896C15.2874 27.0051 15.1746 27.0628 15.0371 27.0628C14.9436 27.0628 14.8501 27.0381 14.7566 26.9886C14.4871 26.8621 14.1956 26.7988 13.8821 26.7988C13.4971 26.7988 13.1616 26.8813 12.8756 27.0463C12.5896 27.2058 12.3696 27.4341 12.2156 27.7311C12.0616 28.0226 11.9846 28.3581 11.9846 28.7376C11.9846 29.3866 12.1579 29.8788 12.5044 30.2143C12.8564 30.5498 13.3156 30.7176 13.8821 30.7176C14.2176 30.7176 14.5091 30.6543 14.7566 30.5278C14.8556 30.4838 14.9436 30.4618 15.0206 30.4618C15.1636 30.4618 15.2846 30.5223 15.3836 30.6433C15.4661 30.7478 15.5074 30.8606 15.5074 30.9816C15.5074 31.0696 15.4854 31.1493 15.4414 31.2208C15.3974 31.2923 15.3341 31.3473 15.2516 31.3858C14.8226 31.6003 14.3661 31.7076 13.8821 31.7076C13.3431 31.7076 12.8481 31.5948 12.3971 31.3693C11.9461 31.1383 11.5859 30.8001 11.3164 30.3546C11.0469 29.9091 10.9121 29.3701 10.9121 28.7376C10.9121 28.1766 11.0386 27.6733 11.2916 27.2278C11.5501 26.7823 11.9049 26.4358 12.3559 26.1883C12.8069 25.9353 13.3156 25.8088 13.8821 25.8088C14.3716 25.8088 14.8254 25.9161 15.2434 26.1306Z" fill="white"/>
<path d="M19.0545 31.7076C18.6585 31.7076 18.3065 31.6581 17.9985 31.5591C17.6905 31.4601 17.4017 31.2923 17.1322 31.0558C16.9837 30.9238 16.9095 30.7781 16.9095 30.6186C16.9095 30.4921 16.9562 30.3821 17.0497 30.2886C17.1432 30.1896 17.256 30.1401 17.388 30.1401C17.4925 30.1401 17.586 30.1731 17.6685 30.2391C17.8885 30.4206 18.103 30.5526 18.312 30.6351C18.521 30.7176 18.7685 30.7588 19.0545 30.7588C19.3625 30.7588 19.6265 30.6901 19.8465 30.5526C20.072 30.4151 20.1847 30.2446 20.1847 30.0411C20.1847 29.7936 20.0747 29.6011 19.8547 29.4636C19.6347 29.3206 19.2855 29.2133 18.807 29.1418C17.6025 28.9658 17.0002 28.4048 17.0002 27.4588C17.0002 27.1123 17.091 26.8126 17.2725 26.5596C17.454 26.3011 17.7015 26.1058 18.015 25.9738C18.3285 25.8363 18.6777 25.7676 19.0627 25.7676C19.4092 25.7676 19.7337 25.8198 20.0362 25.9243C20.3442 26.0288 20.6 26.1663 20.8035 26.3368C20.963 26.4633 21.0427 26.6091 21.0427 26.7741C21.0427 26.9006 20.996 27.0133 20.9025 27.1123C20.809 27.2058 20.699 27.2526 20.5725 27.2526C20.49 27.2526 20.4157 27.2278 20.3497 27.1783C20.2067 27.0628 20.006 26.9583 19.7475 26.8648C19.4945 26.7658 19.2662 26.7163 19.0627 26.7163C18.7162 26.7163 18.4467 26.7823 18.2542 26.9143C18.0672 27.0408 17.9737 27.2086 17.9737 27.4176C17.9737 27.6541 18.07 27.8328 18.2625 27.9538C18.4605 28.0748 18.7685 28.1738 19.1865 28.2508C19.6595 28.3333 20.0362 28.4406 20.3167 28.5726C20.6027 28.6991 20.8172 28.8751 20.9602 29.1006C21.1032 29.3206 21.1747 29.6148 21.1747 29.9833C21.1747 30.3298 21.0757 30.6351 20.8777 30.8991C20.6852 31.1576 20.4267 31.3583 20.1022 31.5013C19.7777 31.6388 19.4285 31.7076 19.0545 31.7076Z" fill="white"/>
<path d="M27.1616 25.8336C27.2991 25.8336 27.4173 25.8803 27.5163 25.9738C27.6208 26.0673 27.6731 26.1801 27.6731 26.3121C27.6731 26.3836 27.6566 26.4578 27.6236 26.5348L25.5858 31.3033C25.5363 31.4078 25.4676 31.4876 25.3796 31.5426C25.2916 31.5976 25.1981 31.6251 25.0991 31.6251C25.0056 31.6196 24.9176 31.5921 24.8351 31.5426C24.7581 31.4876 24.6976 31.4106 24.6536 31.3116L22.6158 26.5266C22.5883 26.4716 22.5746 26.4028 22.5746 26.3203C22.5746 26.1718 22.6296 26.0536 22.7396 25.9656C22.8496 25.8721 22.9623 25.8253 23.0778 25.8253C23.1713 25.8253 23.2593 25.8528 23.3418 25.9078C23.4243 25.9628 23.4876 26.0426 23.5316 26.1471L25.1898 30.0493L26.7078 26.1471C26.7518 26.0481 26.8151 25.9711 26.8976 25.9161C26.9801 25.8611 27.0681 25.8336 27.1616 25.8336Z" fill="white"/>
<path d="M34.375 37.125H8.25V38.5H34.375C35.1313 38.5 35.75 37.8812 35.75 37.125V35.75C35.75 36.5063 35.1313 37.125 34.375 37.125Z" fill="#D1CDD1"/>
</svg>
