<svg width="184" height="184" viewBox="0 0 184 184" fill="none" xmlns="http://www.w3.org/2000/svg">
<path d="M147.964 130.179C148.749 128.982 149.216 127.562 149.216 126.01V44.625C149.216 40.4567 145.814 37.0733 141.665 37.0733H121.777C117.627 37.0733 114.225 40.4567 114.225 44.625V126.01C114.225 127.412 114.599 128.702 115.271 129.824H108.449C109.122 128.702 109.496 127.412 109.496 126.01V44.625C109.496 40.4567 106.094 37.0733 101.925 37.0733H82.0559C77.8872 37.0733 74.5042 40.4567 74.5042 44.625V126.01C74.5042 127.412 74.878 128.702 75.5506 129.824H68.7282C69.4013 128.702 69.7751 127.412 69.7751 126.01V44.625C69.7751 40.4567 66.373 37.0733 62.2047 37.0733H42.3353C38.1665 37.0733 34.7836 40.4567 34.7836 44.625V126.01C34.7836 127.562 35.2509 128.982 36.0358 130.179C34.1105 130.944 32.7273 132.833 32.7273 135.02V141.749C32.7273 144.609 35.0638 146.927 37.9237 146.927H146.076C148.936 146.927 151.273 144.609 151.273 141.749V135.02C151.273 132.833 149.889 130.944 147.964 130.179ZM38.522 126.01V44.625C38.522 42.5312 40.2415 40.8117 42.3353 40.8117H62.2047C64.3172 40.8117 66.0367 42.5312 66.0367 44.625V126.01C66.0367 128.122 64.3172 129.824 62.2047 129.824H42.3353C40.2415 129.824 38.522 128.122 38.522 126.01ZM78.2427 126.01V44.625C78.2427 42.5312 79.9622 40.8117 82.0559 40.8117H101.925C104.038 40.8117 105.757 42.5312 105.757 44.625V126.01C105.757 128.122 104.038 129.824 101.925 129.824H82.0559C79.9622 129.824 78.2427 128.122 78.2427 126.01ZM117.963 126.01V44.625C117.963 42.5312 119.683 40.8117 121.777 40.8117H141.665C143.758 40.8117 145.478 42.5312 145.478 44.625V126.01C145.478 128.122 143.758 129.824 141.665 129.824H121.777C119.683 129.824 117.963 128.122 117.963 126.01Z" fill="#FA5D82"/>
<path d="M83.8503 82.6444H100.15C101.178 82.6444 102.019 81.8038 102.019 80.7752C102.019 79.7283 101.178 78.9059 100.15 78.9059H83.8503C82.8221 78.9059 81.9811 79.7283 81.9811 80.7752C81.9811 81.8038 82.8221 82.6444 83.8503 82.6444Z" fill="#FA5D82"/>
<path d="M83.8503 53.8962H100.15C101.178 53.8962 102.019 53.0547 102.019 52.027C102.019 50.9993 101.178 50.1578 100.15 50.1578H83.8503C82.8221 50.1578 81.9811 50.9993 81.9811 52.027C81.9811 53.0547 82.8221 53.8962 83.8503 53.8962Z" fill="#FA5D82"/>
<path d="M83.8503 63.4667H100.15C101.178 63.4667 102.019 62.6443 102.019 61.5975C102.019 60.5689 101.178 59.7283 100.15 59.7283H83.8503C82.8221 59.7283 81.9811 60.5689 81.9811 61.5975C81.9811 62.6443 82.8221 63.4667 83.8503 63.4667Z" fill="#FA5D82"/>
<path d="M83.8503 73.0555H100.15C101.178 73.0555 102.019 72.214 102.019 71.1863C102.019 70.1586 101.178 69.3171 100.15 69.3171H83.8503C82.8221 69.3171 81.9811 70.1586 81.9811 71.1863C81.9811 72.214 82.8221 73.0555 83.8503 73.0555Z" fill="#FA5D82"/>
<path d="M52.2796 100.309C47.027 100.309 42.7651 104.57 42.7651 109.823C42.7651 115.056 47.027 119.318 52.2796 119.318C57.513 119.318 61.7748 115.056 61.7748 109.823C61.7748 104.57 57.513 100.309 52.2796 100.309Z" fill="#6E3D7A"/>
<path d="M46.9709 82.6444H57.5878C60.1863 82.6444 62.2983 80.5324 62.2983 77.9339V54.8682C62.2983 52.2698 60.1863 50.1578 57.5878 50.1578H46.9709C44.3724 50.1578 42.2604 52.2698 42.2604 54.8682V77.9339C42.2604 80.5324 44.3724 82.6444 46.9709 82.6444V82.6444Z" fill="#6E3D7A"/>
<path d="M131.721 100.309C126.487 100.309 122.225 104.57 122.225 109.823C122.225 115.056 126.487 119.318 131.721 119.318C136.954 119.318 141.216 115.056 141.216 109.823C141.216 104.57 136.954 100.309 131.721 100.309Z" fill="#6E3D7A"/>
<path d="M92.0002 100.309C86.7659 100.309 82.5045 104.57 82.5045 109.823C82.5045 115.056 86.7659 119.318 92.0002 119.318C97.2336 119.318 101.495 115.056 101.495 109.823C101.495 104.57 97.2336 100.309 92.0002 100.309Z" fill="#6E3D7A"/>
<path d="M126.412 82.6444H137.029C139.628 82.6444 141.74 80.5324 141.74 77.9339V54.8682C141.74 52.2698 139.628 50.1578 137.029 50.1578H126.412C123.814 50.1578 121.702 52.2698 121.702 54.8682V77.9339C121.702 80.5324 123.814 82.6444 126.412 82.6444Z" fill="#6E3D7A"/>
</svg>
