<svg width="81" height="81" viewBox="0 0 81 81" fill="none" xmlns="http://www.w3.org/2000/svg">
<path d="M67.1461 62.2863C67.1453 62.7701 66.9748 63.2382 66.6647 63.6079C66.3545 63.9776 65.9246 64.2252 65.4508 64.307C61.0464 65.1694 56.9913 67.3165 53.7903 70.4811C52.7204 71.6764 51.7847 72.9868 51.0002 74.3885C50.9302 74.5156 50.9023 74.6618 50.9205 74.8059C50.9386 74.9501 51.002 75.0846 51.1013 75.1901C51.2006 75.2955 51.3308 75.3664 51.4728 75.3924C51.6149 75.4184 51.7614 75.3981 51.8913 75.3346C59.5024 72.0748 67.7271 70.5204 75.9947 70.7791C76.3517 70.7741 76.6923 70.6279 76.943 70.372C77.1936 70.1162 77.3341 69.7713 77.3341 69.412V26.3052C77.3341 26.124 77.2984 25.9446 77.2289 25.7775C77.1594 25.6104 77.0577 25.4588 76.9295 25.3316C76.8014 25.2044 76.6494 25.1041 76.4824 25.0365C76.3153 24.969 76.1367 24.9355 75.9567 24.938C73.2158 24.9684 70.4778 25.129 67.7519 25.4192C67.5853 25.4375 67.4312 25.5171 67.3193 25.6428C67.2075 25.7685 67.1458 25.9314 67.1461 26.1001V62.2863Z" fill="#FA5D82"/>
<path d="M62.5758 60.7934C62.7182 60.7524 62.8434 60.666 62.9326 60.5471C63.0218 60.4282 63.0701 60.2834 63.0703 60.1344V19.3244C63.0704 19.2144 63.0441 19.1059 62.9936 19.0082C62.9432 18.9106 62.87 18.8266 62.7804 18.7636C62.6908 18.7005 62.5873 18.6601 62.4789 18.6459C62.3704 18.6316 62.2601 18.644 62.1575 18.6819C58.9848 19.7535 56.1148 21.5776 53.7897 24.0001C51.5183 26.2148 50.0104 29.1026 49.4863 32.2414V67.3831C49.4862 67.5222 49.5282 67.658 49.6068 67.7724C49.6854 67.8868 49.7968 67.9744 49.9261 68.0234C50.0554 68.0724 50.1965 68.0806 50.3305 68.0468C50.4646 68.013 50.5852 67.9389 50.6763 67.8343L50.7388 67.7632C53.9725 64.3885 58.0684 61.9768 62.5758 60.7934Z" fill="#4965B2"/>
<path fill-rule="evenodd" clip-rule="evenodd" d="M17.5645 51.9483C17.5645 50.7259 18.6516 49.792 19.8683 49.9093C21.3622 50.0534 22.9145 50.1294 24.5074 50.1294C30.0813 50.1294 35.1588 49.1994 38.9712 47.6747C40.9167 46.8967 45.4116 48.9573 45.4116 51.0526V75.4712C45.4117 75.5907 45.3806 75.7081 45.3215 75.8117C45.2624 75.9154 45.1773 76.0016 45.0748 76.0618C44.9724 76.1216 44.8562 76.1531 44.7379 76.1531C44.6196 76.1531 44.5033 76.1216 44.401 76.0618C40.6219 73.9236 32.8981 70.9595 18.9038 70.7791C18.5469 70.7741 18.2062 70.6278 17.9556 70.3719C17.7049 70.1161 17.5644 69.7712 17.5645 69.4119V51.9483Z" fill="#4965B2"/>
<path d="M43.6261 34.5011C43.6262 34.4053 43.5993 34.3114 43.5485 34.2304C43.4977 34.1493 43.425 34.0845 43.3391 34.0433C43.2531 34.0022 43.1572 33.9864 43.0627 33.9979C42.9682 34.0094 42.8788 34.0476 42.805 34.1082C38.9069 37.3023 31.5514 38.9895 24.5079 38.9895C17.4643 38.9895 10.1068 37.3023 6.20872 34.1082C6.13515 34.0474 6.04589 34.009 5.95139 33.9974C5.85689 33.9858 5.76107 34.0015 5.67514 34.0427C5.5892 34.084 5.51671 34.149 5.46616 34.2301C5.4156 34.3113 5.38906 34.4053 5.38966 34.5011V37.9768C5.38966 42.453 13.9506 46.0785 24.5079 46.0785C35.0652 46.0785 43.6261 42.453 43.6261 37.9768V34.5011Z" fill="#FA5D82"/>
<path d="M5.38966 28.8624C5.38966 33.3386 13.9506 36.9641 24.5079 36.9641C35.0652 36.9641 43.6261 33.3386 43.6261 28.8624V25.3868C43.6262 25.2909 43.5993 25.197 43.5485 25.116C43.4977 25.0349 43.425 24.9701 43.3391 24.9289C43.2531 24.8878 43.1572 24.872 43.0627 24.8835C42.9682 24.895 42.8788 24.9333 42.805 24.9938C38.9069 28.1879 31.5514 29.8751 24.5079 29.8751C17.4643 29.8751 10.1068 28.1879 6.20872 24.9938C6.13515 24.933 6.04589 24.8946 5.95139 24.883C5.85689 24.8714 5.76107 24.8871 5.67514 24.9283C5.5892 24.9696 5.51671 25.0346 5.46616 25.1158C5.4156 25.1969 5.38906 25.2909 5.38966 25.3868V28.8624Z" fill="#FA5D82"/>
<path d="M24.5079 20.7607C17.4643 20.7607 10.1068 19.0735 6.20872 15.8774C6.13515 15.8166 6.04589 15.7781 5.95139 15.7665C5.85689 15.7549 5.76107 15.7707 5.67514 15.8119C5.5892 15.8531 5.51671 15.9181 5.46616 15.9993C5.4156 16.0805 5.38906 16.1745 5.38966 16.2703V19.748C5.38966 24.2242 13.9506 27.8497 24.5079 27.8497C35.0652 27.8497 43.6261 24.2242 43.6261 19.748V16.2723C43.6258 16.1767 43.5986 16.083 43.5477 16.0023C43.4967 15.9216 43.4241 15.857 43.3381 15.8161C43.2522 15.7752 43.1566 15.7596 43.0622 15.7712C42.9679 15.7827 42.8787 15.821 42.805 15.8814C38.9049 19.0755 31.5514 20.7607 24.5079 20.7607Z" fill="#FA5D82"/>
<path d="M24.5079 18.7352C35.0666 18.7352 43.6261 15.1079 43.6261 10.6335C43.6261 6.15901 35.0666 2.53174 24.5079 2.53174C13.9492 2.53174 5.38965 6.15901 5.38965 10.6335C5.38965 15.1079 13.9492 18.7352 24.5079 18.7352Z" fill="#FA5D82"/>
</svg>
