<svg width="353" height="280" viewBox="0 0 353 280" fill="none" xmlns="http://www.w3.org/2000/svg">
<path d="M194.277 290.921C195.6 292.602 306.911 297.598 312.217 296.072C312.419 296.024 312.67 295.905 312.956 295.762C319.501 292.698 349.857 264.822 352.134 262.485C357.75 256.715 334.5 216.177 327.096 209.477C322.172 205.018 313.039 203.277 313.039 203.277C313.039 203.277 287.25 128.879 271.357 113.308C267.375 109.397 198.343 107.871 186.003 113.499C180.721 115.907 167.88 129.034 167.522 131.383C167.522 131.383 167.522 131.383 167.534 131.407C167.2 134.817 192.942 289.216 194.277 290.921Z" fill="#6C666E"/>
<path d="M194.277 290.921C195.6 292.602 306.911 297.598 312.217 296.072C312.419 296.024 312.67 295.905 312.956 295.762C302.297 266.933 252.15 131.598 250.719 130.727C249.324 129.881 183.332 130.25 167.534 131.395C167.2 134.817 192.942 289.216 194.277 290.921Z" fill="#4B444D"/>
<path d="M235.16 118.781C236.269 117.731 237.008 102.602 234.969 99.597C232.668 96.2228 206.2 97.892 204.638 100.765C203.076 103.639 202.337 118.757 203.124 119.305C203.922 119.854 208.334 120.378 208.93 119.401C209.526 118.435 209.49 105.928 209.955 105.272C210.42 104.616 228.96 103.4 229.592 104.354C230.224 105.308 228.674 117.946 229.425 118.495C230.164 119.055 234.075 119.794 235.16 118.781Z" fill="#6C666E"/>
<path d="M202.194 145.988C190.176 162.406 113.036 233.847 63.4013 233.811C55.0315 233.799 25.9043 237.245 18.5599 212.696C10.0232 184.141 10.6551 123.705 19.466 96.0083C26.7508 73.0809 80.415 105.797 81.3092 119.925C81.9888 130.62 79.9262 164.779 82.1081 164.683C96.2961 164.099 143.784 138.072 188.292 125.279C208.918 119.341 211.458 133.338 202.194 145.988Z" fill="#ED8686"/>
<path d="M18.2737 103.639C22.852 80.7113 35.204 56.532 42.3815 50.0342C49.547 43.5363 83.646 31.7208 91.8966 30.6359C100.147 29.5509 129.942 36.6807 135.498 41.6167C139.945 45.5751 133.102 55.8763 116.29 55.2802C100.576 54.7317 96.8445 53.8256 92.3735 54.7556C87.819 55.7094 74.9663 67.191 76.4805 73.7485C77.3747 77.6114 86.8056 83.8828 93.7923 82.2971C100.779 80.7233 104.714 73.5935 113.238 69.1224C121.775 64.6514 134.508 68.0256 134.544 71.662C134.58 75.2984 129.978 76.0495 120.964 86.5177C115.158 93.254 111.378 106.238 99.074 117.35C92.8861 122.93 78.4597 131.764 78.4597 131.764L18.2737 103.639Z" fill="#ED8686"/>
<path d="M44.301 50.7972C52.5157 42.3082 72.0452 27.9652 89.0589 25.1395C100.552 23.2319 133.566 48.6034 131.063 55.3994C128.559 62.1954 122.288 60.9315 113.238 57.927C109.936 56.8301 93.3869 46.7554 89.5716 49.8792C84.0871 54.374 74.7516 71.6501 74.7516 71.6501L44.301 50.7972Z" fill="#ED8686"/>
<path d="M130.705 52.4783C127.712 44.0489 118.568 38.0041 109.316 32.8058C109.173 32.7223 109.041 32.9369 109.185 33.0204C111.545 34.3438 126.163 45.0862 130.586 52.5617C130.622 52.6571 130.729 52.5617 130.705 52.4783Z" fill="#D26F6E"/>
<path d="M44.3009 50.7972C52.5157 42.3082 72.0452 27.9651 89.0589 25.1395C100.552 23.2318 124.887 52.0371 122.383 58.8212C119.879 65.6171 110.758 64.3295 101.53 58.8212C98.5494 57.0447 89.3212 47.2442 85.5059 50.368C80.0214 54.8628 66.6084 66.0463 66.6084 66.0463L44.3009 50.7972Z" fill="#ED8686"/>
<path d="M109.459 62.4338C105.62 61.3011 101.828 58.1058 98.8594 55.4948C96.2722 53.2175 93.6134 50.3918 90.2274 49.3665C88.749 48.9134 87.1275 48.7823 85.6491 49.3307C84.111 49.903 82.883 51.0833 81.6549 52.1206C80.2242 53.3248 78.8769 54.6125 77.5416 55.924C76.2062 57.2355 75.7532 57.7124 74.4298 59.0477C73.8813 59.6081 74.3105 59.9181 74.9305 59.3219C77.4581 56.8659 79.3538 55.5663 82.2272 53.5633C83.5029 52.681 84.8979 51.5364 86.4002 51.0714C88.0097 50.5707 89.7147 50.9403 91.1693 51.7272C94.2215 53.3725 96.6299 56.079 99.5152 57.9866C102.389 59.8704 105.953 62.2788 109.399 62.7318C109.59 62.7438 109.614 62.4815 109.459 62.4338Z" fill="#D26F6E"/>
<path d="M122.24 51.2741C120.714 47.3635 117.745 43.882 114.919 40.8417C111.927 37.6226 108.624 34.7134 105.178 32.007C103.402 30.612 101.602 29.2648 99.7536 27.9771C97.989 26.7491 96.2244 25.2468 94.1141 24.6984C88.3554 23.208 81.941 26.5821 79.4492 27.5121C79.2942 27.5717 79.3538 27.8221 79.5088 27.7625C81.5714 27.0352 88.2243 24.5791 91.825 25.3422C94.0784 25.8191 95.9622 27.1187 97.7506 28.4302C99.3244 29.5867 100.898 30.7432 102.448 31.9354C108.731 36.7999 115.086 42.4394 119.271 49.2949C121.584 53.0864 122.872 57.7124 120.165 61.6469C120.07 61.79 120.261 61.9211 120.38 61.8257C123.384 59.3339 123.563 54.6602 122.24 51.2741Z" fill="#D26F6E"/>
<path d="M29.6837 69.9809C36.4082 55.8763 48.9389 35.8342 53.8392 30.7193C58.7394 25.6045 79.7712 8.74572 87.4732 11.2495C97.1545 14.3852 83.1811 30.1232 76.4805 36.4064C69.7799 42.7016 68.1107 55.3636 68.1107 55.3636L29.6837 69.9809Z" fill="#ED8686"/>
<path d="M86.2213 25.6879C83.8964 27.6433 81.7384 29.8847 79.628 32.0547C77.625 34.1173 75.3835 36.0965 73.7024 38.4333C72.0213 40.7821 70.9364 43.4409 70.1018 46.195C69.6845 47.5423 69.3625 48.9134 69.0764 50.2964C68.7545 51.7987 68.5757 53.3486 68.2418 54.8509C68.2061 55.0059 68.4445 55.0894 68.4922 54.9224C69.1718 52.2279 70.2329 49.5215 71.2464 46.9342C72.3075 44.2397 73.7143 41.6167 75.4074 39.2679C78.7815 34.5584 83.1214 30.6239 86.5432 25.9383C86.6625 25.7594 86.3882 25.5568 86.2213 25.6879Z" fill="#D26F6E"/>
<path d="M83.4059 138.117C83.3705 135.564 80.9935 133.694 78.5041 134.26L4.39178 151.096C2.37981 151.553 1.04521 153.429 1.34937 155.47C3.40816 169.283 11.7457 218.998 26.4527 229.352C43.5737 241.394 85.4106 236.637 110.925 220.994C136.44 205.352 185.669 172.171 202.158 147.884C218.647 123.585 200.393 118.447 182.903 125.624C165.412 132.802 85.2794 162.454 84.4329 161.893C83.8123 161.474 83.5185 146.225 83.4059 138.117Z" fill="#DE9D5C"/>
<path d="M85.8875 180.66C86.0544 178.537 86.1021 176.391 86.0663 174.257C85.9829 170.072 85.2318 166.078 84.3972 162C84.3614 161.81 84.0395 161.857 84.0633 162.048C84.5045 166.09 84.5403 170.215 84.7072 174.281C84.7906 176.296 84.8383 178.323 84.8622 180.338C84.886 182.4 84.9814 184.487 84.886 186.549C84.8741 186.669 85.0887 186.704 85.1125 186.573C85.3868 184.594 85.7325 182.651 85.8875 180.66Z" fill="#C18547"/>
<path opacity="0.1" d="M27.6689 230.151C45.4814 241.168 85.9829 236.279 110.913 220.982C136.428 205.34 185.657 172.171 202.146 147.872C206.498 141.47 208.429 136.391 208.596 132.54L27.6689 230.151Z" fill="#4B444D"/>
<path d="M300.604 310.558C300.485 310.713 137.775 303.118 136.714 302.105C134.747 300.233 159.904 173.279 186.241 128.82C191.177 120.498 213.413 108.217 229.568 123.967C278.297 171.539 302.655 307.708 300.604 310.558Z" fill="#DE9D5C"/>
<path d="M177.227 299.614L159.172 167.107L184.546 163.649L202.601 296.156L177.227 299.614Z" fill="#6C666E"/>
<path d="M151.849 303.066L133.794 170.559L159.169 167.101L177.223 299.608L151.849 303.066Z" fill="#4B444D"/>
<path d="M175.312 285.567L173.63 273.222L199.004 269.765L200.686 282.109L175.312 285.567Z" fill="#DE9D5C"/>
<path d="M172.519 265.107L171.867 260.322L197.242 256.865L197.894 261.649L172.519 265.107Z" fill="#DE9D5C"/>
<path d="M145.292 307.165L125.891 164.783L148.761 161.667L168.162 304.049L145.292 307.165Z" fill="#F2EFF2"/>
<path d="M128.981 187.474L127.095 173.629L149.965 170.513L151.851 184.358L128.981 187.474Z" fill="#DE9D5C"/>
<path d="M130.475 198.386L129.688 192.609L152.558 189.493L153.345 195.27L130.475 198.386Z" fill="#DE9D5C"/>
<path d="M142.93 289.851L141.044 276.006L163.914 272.89L165.8 286.735L142.93 289.851Z" fill="#DE9D5C"/>
<path d="M82.6969 170.652L125.921 164.763L145.339 307.276L102.115 313.165L82.6969 170.652Z" fill="#D1CDD1"/>
<path d="M120.025 308.479L102.115 177.035L121.123 174.446L139.032 305.889L120.025 308.479Z" fill="#8E888F"/>
<path d="M84.2141 313.359L66.3044 181.916L102.122 177.035L120.031 308.479L84.2141 313.359Z" fill="#6C666E"/>
<path d="M121.998 308.21L104.088 176.767L119.15 174.715L137.059 306.158L121.998 308.21Z" fill="white"/>
<path d="M108.362 184.868L110.317 200.249L112.356 215.629L116.445 246.378L120.738 277.103L122.884 292.459L125.113 307.816L123.17 292.423L121.131 277.043L117.042 246.294L112.749 215.569L110.603 200.213L108.362 184.868Z" fill="#D1CDD1"/>
<path d="M111.319 184.463L113.274 199.855L115.313 215.224L119.402 245.972L123.683 276.697L125.829 292.054L128.07 307.41L126.127 292.018L124.076 276.65L119.986 245.901L115.706 215.176L113.56 199.808L111.319 184.463Z" fill="#D1CDD1"/>
<path d="M114.276 184.058L116.219 199.45L118.27 214.818L122.359 245.567L126.639 276.292L128.785 291.66L131.027 307.005L129.072 291.613L127.033 276.244L122.943 245.496L118.663 214.771L116.517 199.414L114.276 184.058Z" fill="#D1CDD1"/>
<path d="M117.232 183.652L119.176 199.045L121.226 214.425L125.316 245.174L129.596 275.898L131.742 291.255L133.984 306.6L132.028 291.219L129.99 275.839L125.9 245.09L121.608 214.365L119.462 199.009L117.232 183.652Z" fill="#D1CDD1"/>
<path d="M228.507 124.253C230.51 121.833 217.586 114.703 214.224 117.398C210.862 120.104 193.884 162.048 199.392 207.569C204.912 253.09 295.477 302.093 298.804 295.297C300.199 292.435 298.41 284.459 296.216 281.908C293.105 278.307 227.744 238.831 221.282 210.61C215.535 185.512 223.404 130.417 228.507 124.253Z" fill="#8E888F"/>
<path d="M251.089 156.48C278.642 222.997 303.561 316.364 276.234 329.241C258.076 337.789 221.962 269.198 221.616 267.946C220.436 263.666 219.601 208.201 218.301 157.47C217.097 110.59 238.785 126.769 251.089 156.48Z" fill="#DE9D5C"/>
<path d="M216.227 196.374C216.644 199.414 217.014 202.478 217.324 205.53C217.348 204.779 217.359 204.016 217.395 203.265C217.658 197.125 217.991 190.997 218.313 184.856C218.325 184.725 218.528 184.749 218.528 184.868C218.635 195.742 218.85 206.627 219.005 217.501C219.16 228.351 219.291 239.188 219.971 250.05C220.352 256.202 220.734 262.414 221.592 268.542C221.604 268.673 221.401 268.709 221.389 268.578C220.495 263.165 219.553 257.776 218.933 252.339C218.325 246.938 217.824 241.525 217.538 236.112C217.109 227.933 216.978 219.778 217.133 211.623C216.406 206.556 216.024 201.441 215.857 196.362C215.857 196.195 216.203 196.183 216.227 196.374Z" fill="#C18547"/>
<path d="M258.028 173.434C260.436 179.277 262.773 185.154 265.027 191.068C264.55 188.35 263.977 185.643 263.393 182.949C263.357 182.77 263.632 182.663 263.703 182.841C264.919 186.204 265.539 189.673 265.849 193.214C269.831 203.778 273.516 214.437 276.747 225.263C281.957 242.741 286.106 260.661 287.739 278.843C288.646 288.93 288.848 299.16 287.692 309.222C287.668 309.389 287.429 309.377 287.429 309.21C287.513 300.102 287.239 291.04 286.356 281.967C285.486 272.977 284.067 264.035 282.231 255.189C278.547 237.412 273.17 219.993 267.328 202.824C264.013 193.095 260.699 183.378 257.468 173.625C257.372 173.303 257.909 173.124 258.028 173.434Z" fill="#C18547"/>
<path d="M280.693 324.77C261.545 344.645 182.39 336.955 131.635 323.554C121.978 321.002 150.079 234.813 160.035 238.7C216.823 260.84 301.653 302.999 280.693 324.77Z" fill="#FFDDDB"/>
<path d="M61.744 238.151C62.1613 247.713 67.9797 246.39 67.9797 246.39C67.9797 246.39 62.519 250.121 61.2672 256.345C59.8245 263.475 70.3761 268.852 70.3761 268.852C70.3761 268.852 65.6309 273.776 64.9751 280.477C64.2836 287.44 74.1556 294.379 74.1556 294.379C74.1556 294.379 72.2599 301.389 75.8367 307.601C81.965 318.224 138.991 327.786 154.384 328.597L168.798 242.837C168.798 242.837 116.887 215.319 102.818 216.666C90.9548 217.811 61.1121 223.546 61.744 238.151Z" fill="#ED8686"/>
<path d="M68.1585 246.115C80.4747 241.883 93.7685 240.607 106.621 239.51C106.907 239.486 106.943 239.939 106.657 239.951C93.8639 240.893 81.0231 245.269 68.2896 246.712C67.932 246.759 67.8246 246.223 68.1585 246.115Z" fill="#D26F6E"/>
<path d="M70.6741 267.874C73.4879 267.004 76.5759 267.052 79.4969 266.956C82.6445 266.849 85.7802 266.789 88.9278 266.789C95.223 266.778 101.518 266.909 107.813 267.219C108.088 267.231 108.135 267.66 107.849 267.66C101.578 267.684 95.2945 267.803 89.0232 268.089C85.8875 268.232 82.7518 268.399 79.6162 268.602C76.6951 268.781 73.6429 269.21 70.7337 268.733C70.3045 268.661 70.2449 268.006 70.6741 267.874Z" fill="#D26F6E"/>
<path d="M165.913 238.115L150.199 334.081C150.199 334.081 274.481 350.427 284.008 320.466C293.522 290.516 165.913 238.115 165.913 238.115Z" fill="#DE9D5C"/>
<path d="M164.482 240.655C164.84 239.546 165.424 236.41 165.949 236.613C167.821 237.328 169.74 237.901 171.612 238.64C173.377 239.331 175.141 240.047 176.894 240.762C180.494 242.241 184.071 243.791 187.624 245.376C194.694 248.536 201.669 251.886 208.549 255.427C215.428 258.968 222.2 262.724 228.865 266.646C235.494 270.557 242.087 274.635 248.406 279.046C248.8 279.32 249.205 279.606 249.599 279.881C252.281 280.429 254.892 281.156 257.456 282.182C260.413 283.374 263.25 284.781 266.076 286.259C266.195 286.319 266.1 286.51 265.98 286.45C263.143 285.079 260.162 283.97 257.158 283.04C255.357 282.48 253.545 281.931 251.745 281.383C257.766 285.615 263.739 289.931 269.438 294.581C269.545 294.665 269.402 294.808 269.295 294.736C262.833 290.361 256.442 285.89 249.825 281.764C243.268 277.675 236.71 273.585 230.022 269.711C216.716 262.008 203.1 254.855 189.115 248.428C185.216 246.64 181.281 244.899 177.335 243.23C175.308 242.372 173.293 241.513 171.266 240.679C169.526 239.963 168.19 239.319 166.461 238.604C166.199 239.403 165.949 240.118 165.686 240.917C165.341 241.883 164.16 241.656 164.482 240.655Z" fill="#C18547"/>
<path d="M156.506 68.2521C159.618 74.2612 162.873 79.8768 159.391 88.4492C156.935 94.4941 148.792 100.455 148.792 100.455L138.681 97.904C138.681 97.904 134.413 89.7369 135.534 81.4148C136.714 72.5682 145.775 66.0464 145.775 66.0464L156.506 68.2521Z" fill="#4B444D"/>
<path d="M148.661 99.0724C150.89 105.475 153.322 111.484 148.649 119.472C145.358 125.112 136.452 129.845 136.452 129.845L126.806 125.887C126.806 125.887 123.742 117.195 126.031 109.111C128.464 100.527 138.348 95.3525 138.348 95.3525L148.661 99.0724Z" fill="#4B444D"/>
<path d="M136.845 128.927C136.631 135.699 136.726 142.185 129.501 147.968C124.41 152.045 114.395 153.273 114.395 153.273L106.812 146.108C106.812 146.108 107.074 136.891 112.118 130.179C117.471 123.037 128.559 121.761 128.559 121.761L136.845 128.927Z" fill="#4B444D"/>
<path d="M114.395 153.261C114.395 153.261 115.802 164.91 106.395 172.361C100.31 177.189 88.2388 176.984 80.4717 176.236C78.4487 176.042 77.9568 172.897 79.5458 171.63C81.411 170.143 83.2685 168.173 84.4448 165.673C87.5805 158.996 92.3258 145.869 106.812 146.096L114.395 153.261Z" fill="#4B444D"/>
<path d="M107.169 144.551L116.475 153.589C117.684 154.763 117.712 156.696 116.538 157.905C115.363 159.114 113.431 159.143 112.222 157.968L102.916 148.931C101.706 147.756 101.678 145.824 102.852 144.615C104.027 143.405 105.959 143.377 107.169 144.551Z" fill="#DE9D5C"/>
<path d="M217.777 116.134C232.68 122.656 225.026 142.269 217.193 151.854C208.37 162.656 193.49 169.273 188.864 166.984C184.226 164.707 189.234 150.471 189.234 150.471C189.234 150.471 179.839 160.987 176.5 159.807C173.174 158.626 176.929 139.037 186.015 129.082C195.899 118.256 209.145 112.354 217.777 116.134Z" fill="white"/>
<path d="M218.194 124.682C216.668 127.401 204.28 148.218 190.39 148.337C185.871 148.373 184.608 123.693 184.608 123.693L184.095 121.892L176.977 96.6878L210.087 73.0093C210.087 73.0093 220.805 120.044 218.194 124.682Z" fill="#ED8686"/>
<path d="M212.841 85.7666C212.292 88.5923 211.517 91.6326 210.504 94.9352C204.197 115.359 192.429 121.416 184.429 123.097L184.095 121.881L176.965 96.6878L210.075 73.0212C210.087 73.0092 211.327 78.4222 212.841 85.7666Z" fill="#4B444D"/>
<path d="M222.927 75.0481C227.565 79.9841 232.215 84.5029 231.202 93.6953C230.486 100.181 224.275 108.134 224.275 108.134L213.854 108.432C213.854 108.432 207.523 101.731 206.331 93.4211C205.067 84.5863 212.006 75.8469 212.006 75.8469L222.927 75.0481Z" fill="#4B444D"/>
<path d="M223.762 106.846C227.649 112.39 231.619 117.517 229.306 126.483C227.673 132.802 220.4 139.789 220.4 139.789L210.039 138.596C210.039 138.596 204.721 131.061 204.733 122.667C204.733 113.749 212.841 106.083 212.841 106.083L223.762 106.846Z" fill="#4B444D"/>
<path d="M220.519 138.787C222.152 145.356 224.012 151.568 218.635 159.103C214.844 164.409 205.544 168.32 205.544 168.32L196.304 163.491C196.304 163.491 194.051 154.549 197.067 146.716C200.274 138.394 210.599 134.149 210.599 134.149L220.519 138.787Z" fill="#4B444D"/>
<path d="M205.532 168.32C205.532 168.32 210.051 179.146 203.04 188.874C198.499 195.173 186.835 198.261 179.158 199.657C177.158 200.021 175.828 197.128 177.013 195.476C178.402 193.539 179.651 191.141 180.101 188.421C181.305 181.137 182.295 167.223 196.304 163.491L205.532 168.32Z" fill="#4B444D"/>
<path d="M196.234 161.897L207.648 168.062C209.132 168.863 209.685 170.714 208.884 172.198C208.083 173.681 206.231 174.234 204.748 173.433L193.334 167.269C191.85 166.468 191.297 164.616 192.098 163.133C192.899 161.649 194.751 161.096 196.234 161.897Z" fill="#DE9D5C"/>
<path d="M135.951 55.5902C129 102.435 156.279 111.889 166.378 113.38C175.546 114.727 206.951 118.161 218.707 72.282C230.463 26.4033 210.874 8.36423 190.056 4.16743C169.251 -0.0412931 142.902 8.74576 135.951 55.5902Z" fill="#ED8686"/>
<path d="M149.126 48.4723C150.282 48.4604 151.343 48.2458 152.476 48.1146C153.764 47.9596 154.801 47.9715 155.826 47.0893C156.375 46.6124 156.446 45.5512 156.041 44.9789C155.087 43.6317 153.466 43.429 151.916 43.5482C150.223 43.6794 148.959 44.2159 147.731 45.3724C146.55 46.517 147.6 48.4962 149.126 48.4723Z" fill="#4B444D"/>
<path d="M181.83 51.8226C180.697 51.5722 179.707 51.1549 178.611 50.7973C177.383 50.3919 176.357 50.1892 175.535 49.1281C175.093 48.5558 175.236 47.5066 175.749 47.0178C176.953 45.8851 178.575 46.0162 180.077 46.4455C181.699 46.9104 182.843 47.6854 183.809 49.0804C184.739 50.4157 183.308 52.1565 181.83 51.8226Z" fill="#4B444D"/>
<path d="M177.216 58.392C182.581 58.6543 181.663 69.349 176.691 69.1106C171.815 68.8721 172.721 58.1655 177.216 58.392Z" fill="#4B444D"/>
<path d="M179.266 59.1312C180.149 59.8108 180.971 60.9673 182.092 61.17C183.38 61.4085 184.465 60.3712 185.407 59.3697C185.502 59.2624 185.585 59.3697 185.573 59.5128C185.43 61.5635 184.465 63.6023 182.235 63.7215C180.208 63.8288 178.921 61.8854 178.587 59.787C178.539 59.3935 178.921 58.857 179.266 59.1312Z" fill="#4B444D"/>
<path d="M152.309 55.3995C147.003 54.5768 145.752 65.2476 150.664 66.0107C155.504 66.7499 156.756 56.091 152.309 55.3995Z" fill="#4B444D"/>
<path d="M150.008 55.8406C149.102 56.3056 148.148 57.2355 147.134 57.1878C145.954 57.1282 145.227 55.8763 144.619 54.6841C144.559 54.5648 144.464 54.6364 144.44 54.7794C144.142 56.8063 144.571 59.012 146.479 59.632C148.219 60.2043 149.746 58.6067 150.461 56.6275C150.592 56.2579 150.366 55.6498 150.008 55.8406Z" fill="#4B444D"/>
<path d="M169.716 87.0782C168.894 87.8293 168.047 88.8666 166.843 88.9143C165.686 88.962 164.351 88.3897 163.302 87.9366C163.194 87.8889 163.087 87.9962 163.147 88.1035C163.958 89.415 165.746 90.2854 167.296 90.0827C168.81 89.88 169.609 88.6043 170.026 87.2451C170.086 87.0543 169.835 86.9709 169.716 87.0782Z" fill="#4B444D"/>
<path d="M157.042 73.7604C157.042 73.7604 155.874 78.6368 155.647 80.9736C155.624 81.1883 156.184 81.3552 156.971 81.4744C157.007 81.4863 157.03 81.5102 157.066 81.4863C161.12 82.5355 165.412 81.5102 168.238 78.3983C168.417 78.1837 168.154 77.9214 167.928 78.0407C164.637 79.996 161.18 80.2464 157.519 79.9602C157.412 79.2925 159.796 71.5785 159.427 71.6024C157.853 71.7097 155.051 72.1389 154.014 72.282C154.694 69.0986 157.09 60.1446 158.33 54.3383C158.402 53.9806 157.853 53.8017 157.734 54.1237C154.574 62.6961 153.072 67.2029 151.427 74.0346C151.284 74.5711 156.065 74.0704 157.042 73.7604Z" fill="#4B444D"/>
<path d="M157.328 79.6979C157.328 79.6979 158.926 83.2152 161.776 84.9797C162.825 85.6355 164.017 86.0528 165.364 85.9932C168.154 85.862 168.739 83.4655 168.691 81.2956C168.667 79.5072 168.19 77.8738 168.19 77.8738C168.19 77.8738 163.588 80.6398 157.328 79.6979Z" fill="#4B444D"/>
<path d="M161.776 84.9797C162.825 85.6355 164.017 86.0528 165.364 85.9932C168.154 85.862 168.739 83.4655 168.691 81.2956C165.817 80.9737 162.61 82.2852 161.776 84.9797Z" fill="#D26F6E"/>
<path d="M215.619 70.3028C206.808 71.3044 204.793 51.1192 204.793 51.1192C204.793 51.1192 167.379 44.3113 164.566 13.7414C164.566 13.7414 157.901 33.1278 138.157 41.6883C138.157 41.6883 136.368 4.4059 166.485 2.05712C166.485 2.05712 204.006 -8.42297 222.2 17.9263C240.394 44.2874 221.532 69.6232 215.619 70.3028Z" fill="#4B444D"/>
<path d="M164.458 11.488C163.898 16.1379 164.518 20.9308 165.961 25.4495C167.403 29.9682 169.716 34.2723 172.888 37.8611C173.603 38.8149 174.557 39.566 175.391 40.4245L176.679 41.6763C177.144 42.0579 177.621 42.4036 178.098 42.7613C179.064 43.4648 179.994 44.204 180.983 44.8597C182.009 45.4559 183.058 46.0281 184.095 46.5885C184.62 46.8627 185.132 47.1608 185.657 47.4231L187.302 48.0789L190.581 49.3903C192.834 50.0461 195.124 50.5946 197.389 51.0953C195.243 50.1296 193.049 49.4023 190.963 48.4246L187.875 46.8746L186.337 46.1116C185.848 45.8255 185.371 45.4916 184.894 45.1816C183.94 44.5497 182.986 43.9297 182.021 43.3336C181.102 42.6659 180.244 41.9148 179.362 41.2114L178.038 40.1502L176.834 38.946C176.059 38.1234 175.165 37.408 174.497 36.49C171.457 33.1278 169.239 29.1098 167.499 24.913C166.64 22.8027 165.984 20.6089 165.484 18.3555C164.923 16.1021 164.613 13.8129 164.458 11.488Z" fill="#4B444D"/>
<g opacity="0.5">
<path opacity="0.5" d="M197.794 76.0258C197.393 76.0258 197.067 75.7002 197.067 75.2985C197.067 74.8968 197.393 74.5712 197.794 74.5712C198.196 74.5712 198.521 74.8968 198.521 75.2985C198.521 75.7002 198.196 76.0258 197.794 76.0258Z" fill="#4B444D"/>
<path opacity="0.5" d="M184.715 73.2835C184.715 73.6889 185.037 74.0108 185.442 74.0108C185.848 74.0108 186.17 73.6889 186.17 73.2835C186.17 72.8782 185.848 72.5562 185.442 72.5562C185.049 72.5562 184.715 72.8782 184.715 73.2835Z" fill="#4B444D"/>
<path opacity="0.5" d="M176.274 73.0332C176.274 73.4386 176.596 73.7605 177.001 73.7605C177.406 73.7605 177.728 73.4386 177.728 73.0332C177.728 72.6278 177.406 72.3059 177.001 72.3059C176.596 72.3059 176.274 72.6278 176.274 73.0332Z" fill="#4B444D"/>
<path opacity="0.5" d="M172.685 78.9707C172.685 79.376 173.007 79.6979 173.412 79.6979C173.818 79.6979 174.14 79.376 174.14 78.9707C174.14 78.5653 173.818 78.2434 173.412 78.2434C173.019 78.2434 172.685 78.5653 172.685 78.9707Z" fill="#4B444D"/>
<path opacity="0.5" d="M190.712 80.4968C190.712 80.9022 191.034 81.2241 191.439 81.2241C191.845 81.2241 192.167 80.9022 192.167 80.4968C192.167 80.0914 191.845 79.7695 191.439 79.7695C191.034 79.7695 190.712 80.1033 190.712 80.4968Z" fill="#4B444D"/>
<path opacity="0.5" d="M181.222 81.2241C181.222 81.6295 181.544 81.9514 181.949 81.9514C182.354 81.9514 182.676 81.6295 182.676 81.2241C182.676 80.8187 182.354 80.4968 181.949 80.4968C181.556 80.4968 181.222 80.8306 181.222 81.2241Z" fill="#4B444D"/>
<path opacity="0.5" d="M191.439 69.6113C191.439 70.0167 191.761 70.3386 192.167 70.3386C192.572 70.3386 192.894 70.0167 192.894 69.6113C192.894 69.206 192.572 68.8841 192.167 68.8841C191.773 68.8841 191.439 69.206 191.439 69.6113Z" fill="#4B444D"/>
<path opacity="0.5" d="M149.245 72.2582C149.245 72.6635 149.567 72.9855 149.972 72.9855C150.378 72.9855 150.699 72.6635 150.699 72.2582C150.699 71.8528 150.378 71.5309 149.972 71.5309C149.567 71.5309 149.245 71.8528 149.245 72.2582Z" fill="#4B444D"/>
<path opacity="0.5" d="M138.729 68.5979C138.729 69.0033 139.051 69.3252 139.456 69.3252C139.862 69.3252 140.184 69.0033 140.184 68.5979C140.184 68.1925 139.862 67.8706 139.456 67.8706C139.051 67.8706 138.729 68.1925 138.729 68.5979Z" fill="#4B444D"/>
<path opacity="0.5" d="M135.939 64.7827C135.939 65.188 136.261 65.5099 136.666 65.5099C137.072 65.5099 137.394 65.188 137.394 64.7827C137.394 64.3773 137.072 64.0554 136.666 64.0554C136.261 64.0434 135.939 64.3773 135.939 64.7827Z" fill="#4B444D"/>
<path opacity="0.5" d="M141.567 74.5354C141.567 74.9408 141.889 75.2627 142.294 75.2627C142.699 75.2627 143.021 74.9408 143.021 74.5354C143.021 74.1301 142.699 73.8081 142.294 73.8081C141.889 73.8081 141.567 74.1301 141.567 74.5354Z" fill="#4B444D"/>
<path opacity="0.5" d="M136.404 73.0332C136.404 73.4386 136.726 73.7605 137.131 73.7605C137.537 73.7605 137.859 73.4386 137.859 73.0332C137.859 72.6278 137.537 72.3059 137.131 72.3059C136.726 72.3059 136.404 72.6278 136.404 73.0332Z" fill="#4B444D"/>
<path opacity="0.5" d="M146.05 67.1552C146.05 67.5606 146.372 67.8825 146.777 67.8825C147.182 67.8825 147.504 67.5606 147.504 67.1552C147.504 66.7498 147.182 66.4279 146.777 66.4279C146.372 66.416 146.05 66.7498 146.05 67.1552Z" fill="#4B444D"/>
</g>
<path d="M179.862 81.2479C187.469 81.2598 194.42 76.133 196.399 68.4309C198.724 59.322 193.216 50.0222 184.119 47.6973C175.01 45.3604 165.722 50.8688 163.385 59.9777C161.06 69.0748 166.557 78.3745 175.666 80.7113C177.061 81.069 178.479 81.2479 179.862 81.2479ZM179.91 49.438C181.114 49.438 182.33 49.593 183.547 49.903C191.428 51.918 196.197 59.9777 194.182 67.8706C192.155 75.7515 184.095 80.5325 176.214 78.5056C168.333 76.4907 163.564 68.4309 165.579 60.5381C167.296 53.8733 173.317 49.4261 179.91 49.438Z" fill="#4B444D"/>
<path d="M142.532 76.4191C149.054 76.4311 154.98 69.7543 156.029 60.9315C156.565 56.4724 155.79 52.1206 153.859 48.675C151.868 45.1101 148.875 42.9163 145.442 42.5109C141.996 42.0936 138.586 43.5243 135.808 46.5289C133.125 49.4261 131.361 53.4798 130.824 57.927C129.715 67.2506 134.461 75.513 141.412 76.3476C141.793 76.3953 142.163 76.4191 142.532 76.4191ZM144.309 44.7285C144.595 44.7285 144.881 44.7404 145.167 44.7762C147.862 45.0981 150.234 46.8746 151.868 49.7838C153.561 52.8121 154.229 56.6751 153.764 60.6573C152.798 68.7409 147.397 74.7738 141.686 74.0823C135.987 73.4027 132.136 66.2729 133.09 58.2012C133.566 54.219 135.128 50.6303 137.477 48.0788C139.516 45.897 141.9 44.7285 144.309 44.7285Z" fill="#4B444D"/>
<path d="M163.552 61.9808L164.947 60.6692C163.004 58.5947 158.282 55.5544 154.36 58.8689L155.6 60.3354C159.117 57.3547 163.373 61.79 163.552 61.9808Z" fill="#4B444D"/>
<path d="M231.953 73.8558L233.753 73.1762C233.431 72.3416 230.558 64.9495 226.385 63.7453C222.474 62.6365 196.626 61.9927 195.529 61.9688L195.481 63.8884C202.897 64.0672 222.832 64.723 225.848 65.5934C228.614 66.3922 231.19 71.8289 231.953 73.8558Z" fill="#4B444D"/>
<path d="M209.288 71.6263C209.288 71.6263 220.853 57.0567 227.53 61.2654C234.206 65.4861 224.859 87.0543 216.573 89.5819C208.274 92.1095 205.794 84.479 205.794 84.479L209.288 71.6263Z" fill="#ED8686"/>
<path d="M224.704 67.3818C224.835 67.3818 224.847 67.5606 224.74 67.5964C218.909 69.5517 215.595 74.6427 213.175 79.9841C214.999 77.9811 217.371 76.9677 220.066 79.1495C220.209 79.2688 220.054 79.4834 219.899 79.4476C217.598 78.8038 215.893 79.1138 214.212 80.8783C213.02 82.1302 212.149 83.7517 211.267 85.2301C210.969 85.719 210.075 85.397 210.301 84.8247C210.313 84.7771 210.337 84.7413 210.361 84.6936C210.623 77.4446 216.883 67.6441 224.704 67.3818Z" fill="#4B444D"/>
</svg>
