<svg width="651" height="527" viewBox="0 0 651 527" fill="none" xmlns="http://www.w3.org/2000/svg">
<path d="M619.999 294.443C605.036 276.973 552.148 228.418 533.315 215.059C506.226 196.305 473.204 185.001 440.181 184.487C413.093 183.974 384.972 183.717 360.463 195.02C347.564 200.929 336.212 209.921 324.861 218.913C302.674 236.639 282.809 258.733 270.683 284.423C248.496 331.18 233.017 381.533 234.049 433.171C307.575 436.768 382.392 435.226 455.661 427.005L619.999 294.443Z" fill="white"/>
<path d="M255.204 354.3C275.843 339.657 305.511 338.629 327.182 351.474" stroke="black" stroke-opacity="0.87" stroke-miterlimit="10" stroke-linecap="round" stroke-linejoin="round"/>
<path d="M284.614 377.165C265.265 390.524 255.204 416.215 260.364 439.336" stroke="black" stroke-opacity="0.87" stroke-miterlimit="10" stroke-linecap="round" stroke-linejoin="round"/>
<path d="M334.664 213.517C348.079 232.014 365.881 247.428 386.262 257.962C390.648 250.254 395.033 243.061 399.677 235.097C407.933 239.464 416.188 242.804 424.444 247.172C431.152 226.362 430.894 204.269 423.412 183.716" stroke="black" stroke-opacity="0.87" stroke-miterlimit="10" stroke-linecap="round" stroke-linejoin="round"/>
<path d="M399.419 236.382C403.805 249.484 408.191 262.586 412.577 275.431" stroke="black" stroke-opacity="0.87" stroke-miterlimit="10" stroke-linecap="round" stroke-linejoin="round"/>
<path d="M286.162 259.503C302.158 269.265 315.831 282.624 325.893 298.296" stroke="black" stroke-opacity="0.87" stroke-miterlimit="10" stroke-linecap="round" stroke-linejoin="round"/>
<path d="M496.423 195.791C490.747 216.343 486.619 237.409 484.556 258.732" stroke="black" stroke-opacity="0.87" stroke-miterlimit="10" stroke-linecap="round" stroke-linejoin="round"/>
<path d="M323.571 432.143C323.313 415.958 322.281 401.057 324.603 385.129C327.699 364.577 338.018 345.309 332.601 325.27C324.087 293.414 315.057 262.329 306.544 230.473C311.961 225.334 318.927 220.196 324.603 215.058C334.922 241.006 345.242 266.953 355.562 292.9C388.842 282.11 421.865 271.32 455.145 260.53C448.179 234.326 441.472 207.865 434.506 181.917C441.472 182.431 448.695 182.174 455.661 182.688C467.012 209.663 477.59 236.638 488.942 263.613C492.037 270.807 494.359 276.201 499.003 282.367C505.453 290.588 512.419 298.295 519.9 305.746C520.674 349.933 520.158 393.607 520.932 437.794L323.571 432.143Z" fill="#B881C7"/>
<path d="M309.64 227.904C320.217 262.072 330.795 296.24 341.114 330.409C342.662 335.804 339.566 341.199 339.05 346.851" stroke="black" stroke-opacity="0.87" stroke-miterlimit="10" stroke-linecap="round" stroke-linejoin="round"/>
<path d="M450.501 182.432C460.821 209.664 471.14 236.639 481.46 263.871" stroke="black" stroke-opacity="0.87" stroke-miterlimit="10" stroke-linecap="round" stroke-linejoin="round"/>
<path d="M320.733 219.169C331.31 246.144 342.146 273.119 352.723 300.094C388.584 288.79 425.992 277.487 461.853 266.183C455.403 237.666 448.179 208.893 441.471 180.377" stroke="black" stroke-opacity="0.87" stroke-miterlimit="10" stroke-linecap="round" stroke-linejoin="round"/>
<path d="M649.152 375.88C654.57 416.214 641.155 454.493 615.872 482.495C595.233 505.36 566.596 521.288 533.573 525.655C529.962 526.169 526.35 526.426 522.738 526.683C513.192 527.197 503.647 526.683 494.359 525.141C463.917 520.26 436.312 504.846 416.189 482.495C412.319 478.128 408.449 473.504 405.095 468.622C393.486 451.924 385.746 432.399 382.908 410.819C380.07 388.982 382.65 367.916 389.616 348.648C399.677 320.389 419.285 296.239 444.825 280.311C460.563 270.549 478.88 263.613 498.487 261.044C566.338 252.052 629.029 295.469 645.798 359.695C647.346 364.833 648.378 370.228 649.152 375.88Z" fill="#EBF0FF"/>
<path d="M646.056 359.439C645.798 359.439 645.798 359.439 645.54 359.439C641.928 359.953 636.769 359.439 634.705 356.613C628.513 348.135 622.579 338.887 616.388 330.409C609.422 332.207 602.198 332.978 594.974 332.464C596.78 336.318 596.264 341.199 593.427 344.282C590.847 347.622 586.461 348.906 582.333 348.135C579.753 348.906 576.915 347.108 574.851 345.052C573.045 342.997 571.755 340.428 569.434 338.373C566.854 336.061 562.984 335.29 559.888 336.318C556.534 337.345 553.954 339.914 552.922 343.254C551.89 346.337 552.406 349.677 551.116 352.76C549.826 355.329 546.989 357.384 544.151 357.384C541.055 357.641 538.217 355.843 536.927 353.273C526.092 355.072 514.998 356.613 504.163 358.412C501.583 358.925 498.745 359.182 496.681 357.898C493.585 356.099 492.037 351.732 491.779 348.135C487.393 349.42 482.75 349.42 478.622 347.365C474.494 345.566 471.656 340.942 471.656 336.575C482.491 325.271 494.359 314.224 505.194 302.92C503.647 300.608 502.099 298.296 500.551 295.984C495.907 297.011 491.779 299.837 487.135 300.865C483.523 301.636 479.912 298.553 478.88 295.213C477.848 291.616 478.364 288.02 478.88 284.423C479.396 280.826 480.428 277.744 479.138 274.404C472.688 277.23 466.496 280.313 460.046 283.139C456.951 284.423 453.855 285.964 450.501 285.451C447.663 284.937 445.083 282.625 444.825 280.056C460.562 270.293 478.88 263.357 498.487 260.788C566.596 252.053 629.287 295.213 646.056 359.439Z" fill="#56A182"/>
<path d="M567.37 374.596C570.724 373.055 575.109 373.312 578.463 375.367C582.849 378.193 581.559 384.873 576.657 386.671C576.141 386.928 575.625 386.928 575.367 387.185C572.53 388.469 570.208 390.781 569.95 393.864C569.692 396.433 571.498 399.259 573.819 400.287C578.205 401.828 580.011 407.48 579.495 412.104C578.721 416.729 576.141 420.839 573.561 424.95C570.982 429.06 568.402 433.171 568.144 437.795C567.628 442.933 568.918 448.071 571.24 452.695C573.819 457.32 576.141 462.971 573.561 467.596C571.756 470.936 567.886 472.991 566.854 476.587C565.564 480.698 568.144 485.322 564.532 488.662C562.984 489.947 560.92 490.46 559.114 490.203C554.986 489.69 552.148 486.35 549.569 483.267C541.313 472.991 534.863 461.43 528.413 450.126C525.834 445.502 519.384 441.391 514.224 441.391C508.548 441.391 503.131 442.676 497.455 442.676C492.295 442.676 486.877 441.392 483.524 437.795C480.944 435.226 479.654 431.372 480.17 427.776C480.686 422.894 484.813 419.298 489.457 418.784C492.553 418.527 495.649 417.756 498.487 416.729C502.615 415.187 505.968 411.591 505.968 407.48C505.968 405.682 505.195 403.627 505.453 401.828C505.711 397.461 510.096 394.892 513.966 392.837C530.219 385.386 551.116 382.56 567.37 374.596Z" fill="#56A182"/>
<path d="M423.67 381.533C420.574 385.9 416.188 390.011 414.898 395.406C413.608 400.801 415.672 406.196 417.22 411.334C422.38 430.859 417.736 452.695 405.353 468.624C393.743 451.925 386.004 432.4 383.166 410.82C380.328 388.983 382.908 367.917 389.873 348.649C393.743 348.392 397.613 351.218 398.129 355.072C398.645 358.412 396.839 362.522 399.419 364.834C401.483 366.632 405.095 365.605 407.159 363.806C409.223 362.008 410.77 359.439 413.35 357.898C418.51 355.072 425.734 358.925 427.54 364.577C429.346 370.229 427.282 376.652 423.67 381.533Z" fill="#56A182"/>
<path d="M330.795 436.253C343.952 431.372 357.109 425.72 369.751 419.554C372.331 418.27 374.911 416.985 376.717 414.93C378.522 412.618 379.296 410.049 377.748 407.737C380.844 406.452 383.94 404.911 386.52 402.599C388.842 400.287 390.39 396.947 389.616 393.864C383.166 394.121 376.974 394.635 370.525 394.892C377.748 392.066 384.972 389.24 392.196 386.414C394.776 385.386 397.614 384.359 399.419 382.046C401.225 379.991 401.999 375.881 400.193 373.825C391.422 374.596 382.65 375.11 373.879 375.881C379.038 373.569 384.198 370.999 389.1 368.687C390.906 367.917 392.712 366.889 394.002 365.348C395.292 363.806 396.066 361.237 394.776 359.696C378.522 359.953 363.043 360.209 346.79 360.723C349.628 357.64 352.208 354.814 355.045 351.732C356.851 349.676 358.915 347.621 359.689 344.795C360.463 342.226 359.947 338.886 357.625 337.345C340.856 342.74 324.861 348.906 309.897 357.897C301.642 362.779 293.902 369.201 287.711 376.651C281.003 384.359 277.391 393.864 275.843 404.14C274.295 414.159 276.875 425.463 284.099 432.657C289.516 438.052 297.256 440.621 304.996 441.648C313.251 442.676 322.539 439.336 330.795 436.253Z" fill="#D26F6E"/>
<path d="M330.021 360.209C337.244 359.953 344.468 359.953 351.95 359.696" stroke="black" stroke-opacity="0.87" stroke-miterlimit="10" stroke-linecap="round" stroke-linejoin="round"/>
<path d="M344.21 377.423C355.82 376.395 367.171 375.624 378.78 374.597" stroke="black" stroke-opacity="0.87" stroke-miterlimit="10" stroke-linecap="round" stroke-linejoin="round"/>
<path d="M347.306 396.176C357.367 395.149 367.687 394.121 377.748 393.35" stroke="black" stroke-opacity="0.87" stroke-miterlimit="10" stroke-linecap="round" stroke-linejoin="round"/>
<path d="M344.21 415.701C356.077 412.875 368.203 410.306 380.07 407.48" stroke="black" stroke-opacity="0.87" stroke-miterlimit="10" stroke-linecap="round" stroke-linejoin="round"/>
<path d="M331.827 164.705C325.635 151.603 324.603 135.932 330.021 122.573C335.439 109.214 347.306 98.1669 361.495 95.084C368.461 93.5426 375.685 94.0564 382.908 95.084C390.906 96.1117 399.162 97.91 405.353 102.791C413.609 109.471 416.447 121.031 415.415 131.565C414.383 142.098 409.739 151.86 405.353 161.622L331.827 164.705Z" fill="#681510"/>
<path d="M308.35 107.158C318.153 104.589 329.763 108.186 335.954 116.407" stroke="#681510" stroke-miterlimit="10" stroke-linecap="round" stroke-linejoin="round"/>
<path d="M338.792 119.49C334.665 114.609 328.989 111.012 322.539 109.985C316.347 108.957 309.382 110.755 304.996 115.38C300.61 120.004 299.062 127.454 302.158 133.106C305.254 139.015 312.22 141.841 318.927 141.841C325.635 141.841 331.827 139.529 338.276 137.473C341.372 136.446 342.404 131.308 342.662 127.968C342.404 124.371 341.114 121.802 338.792 119.49Z" fill="#681510"/>
<path d="M384.714 99.7082C384.714 94.8271 385.23 89.9459 387.294 85.5785C389.358 81.2111 392.97 77.3576 397.872 76.33C403.289 75.0455 409.481 77.6145 412.835 82.2388C416.189 86.863 416.963 93.0287 415.673 98.4237C414.383 103.819 411.029 108.7 406.643 112.553L384.714 99.7082Z" fill="#681510"/>
<path d="M325.377 141.841C331.827 141.584 338.018 136.702 339.566 130.537C341.372 124.371 338.534 117.178 333.374 113.324" stroke="black" stroke-opacity="0.87" stroke-miterlimit="10" stroke-linecap="round" stroke-linejoin="round"/>
<path d="M383.682 94.5701C394.518 95.8546 404.837 101.25 412.061 109.471" stroke="black" stroke-opacity="0.87" stroke-miterlimit="10" stroke-linecap="round" stroke-linejoin="round"/>
<path d="M417.737 143.896C420.317 150.318 420.575 157.512 418.253 164.191C416.189 170.614 411.545 176.266 405.869 179.862C406.127 182.945 406.643 185.514 406.901 188.597C410.513 188.34 413.867 188.597 417.479 188.34C421.607 197.075 421.607 207.608 417.737 216.343C413.867 225.078 405.869 232.014 396.582 234.84C386.52 237.923 375.169 235.868 365.881 230.986C356.594 226.105 349.37 217.627 343.436 209.149C347.822 206.067 351.95 202.984 356.336 199.901C354.788 191.937 353.24 183.973 351.692 176.266C346.016 177.55 339.566 176.779 334.665 173.44C329.763 170.1 326.667 163.934 327.699 158.025C328.731 152.117 334.407 147.235 340.34 147.749C342.404 150.061 344.726 152.117 346.79 154.429C346.274 149.805 345.758 145.18 345.242 140.556C350.144 139.785 354.272 137.473 357.368 133.62C360.463 129.766 362.269 125.142 362.011 120.26C366.655 121.545 371.299 122.573 375.943 121.031C381.618 118.976 385.23 113.324 386.778 107.415C395.55 107.158 403.547 113.324 408.707 120.26C413.867 126.94 414.641 135.932 417.737 143.896Z" fill="#D26F6E"/>
<path d="M400.194 143.896C401.618 143.896 402.774 142.745 402.774 141.327C402.774 139.908 401.618 138.758 400.194 138.758C398.769 138.758 397.614 139.908 397.614 141.327C397.614 142.745 398.769 143.896 400.194 143.896Z" fill="black" fill-opacity="0.87"/>
<path d="M368.461 152.631C369.886 152.631 371.041 151.48 371.041 150.061C371.041 148.643 369.886 147.492 368.461 147.492C367.036 147.492 365.881 148.643 365.881 150.061C365.881 151.48 367.036 152.631 368.461 152.631Z" fill="black" fill-opacity="0.87"/>
<path d="M358.142 144.409C359.431 141.327 362.011 138.757 365.365 137.473C368.461 136.188 372.331 136.445 375.427 137.73" stroke="black" stroke-opacity="0.87" stroke-miterlimit="10" stroke-linecap="round" stroke-linejoin="round"/>
<path d="M393.228 131.05C394.26 128.224 396.582 125.912 399.677 125.142C402.515 124.371 405.869 124.885 408.191 126.94" stroke="black" stroke-opacity="0.87" stroke-miterlimit="10" stroke-linecap="round" stroke-linejoin="round"/>
<path d="M389.358 142.097C391.68 145.694 394.002 149.548 396.324 153.144C394.518 153.658 392.454 154.429 390.648 154.943" stroke="black" stroke-opacity="0.87" stroke-miterlimit="10" stroke-linecap="round" stroke-linejoin="round"/>
<path d="M379.297 160.081C379.555 161.879 380.844 163.421 382.65 163.935C384.456 164.448 386.262 163.678 387.294 162.393" stroke="black" stroke-opacity="0.87" stroke-miterlimit="10" stroke-linecap="round" stroke-linejoin="round"/>
<path d="M334.407 156.741C338.018 158.025 341.888 159.31 345.5 160.595" stroke="black" stroke-opacity="0.87" stroke-miterlimit="10" stroke-linecap="round" stroke-linejoin="round"/>
<path d="M371.815 186.542C384.198 189.111 397.614 186.542 408.191 179.605" stroke="black" stroke-opacity="0.87" stroke-miterlimit="10" stroke-linecap="round" stroke-linejoin="round"/>
<path d="M87.9739 92.2363C90.5538 81.1894 95.1975 70.6563 101.389 61.1509C115.837 65.2614 130.026 68.0873 144.473 72.1978C139.056 85.8138 135.186 99.1728 129.768 112.789L87.9739 92.2363Z" fill="#ED8686"/>
<path d="M210.777 96.09L236.06 119.468C244.573 127.175 254.377 133.341 264.954 137.195L278.886 142.333C283.529 144.131 287.399 138.736 284.561 134.883L252.055 91.7227L210.777 96.09Z" fill="#9E68AD"/>
<path d="M221.354 24.4137L252.571 9.51329C262.89 4.6321 273.984 1.5492 285.593 1.03539L300.557 0.00778709C305.458 -0.249117 307.522 5.91658 303.653 8.74253L260.052 40.5987L221.354 24.4137Z" fill="#9E68AD"/>
<path d="M268.824 28.0104C279.144 20.8171 289.463 13.6237 299.525 6.43042" stroke="black" stroke-opacity="0.87" stroke-miterlimit="10" stroke-linecap="round" stroke-linejoin="round"/>
<path d="M244.573 22.6156C274.758 31.8642 294.881 41.3697 294.881 41.3697L285.851 100.972C285.851 100.972 263.922 104.568 232.19 104.568C191.428 104.568 134.412 98.9163 88.4901 72.4552C71.7209 62.9497 56.2416 50.3613 43.6002 34.4333C60.3694 22.8725 78.6866 15.6792 97.7777 11.3118C149.633 -0.505763 205.617 10.798 244.573 22.6156Z" fill="#865194"/>
<path d="M97.7779 11.3116L88.4903 72.455C71.7211 62.9495 56.2418 50.3611 43.6003 34.4331C60.3696 22.8723 78.6868 15.679 97.7779 11.3116Z" fill="#9E68AD"/>
<path d="M244.573 22.6154C274.758 31.8639 294.881 41.3694 294.881 41.3694L285.851 100.971C285.851 100.971 263.922 104.568 232.19 104.568L244.573 22.6154Z" fill="#B881C7"/>
<path d="M168.508 74.0226C181.451 64.4878 184.182 46.3098 174.607 33.421C165.032 20.5321 146.777 17.813 133.834 27.3478C120.89 36.8826 118.16 55.0606 127.735 67.9495C137.31 80.8384 155.565 83.5574 168.508 74.0226Z" stroke="black" stroke-opacity="0.87" stroke-miterlimit="10" stroke-linecap="round" stroke-linejoin="round"/>
<path d="M62.1757 24.9274C65.7875 31.8638 63.7236 41.3692 57.5319 46.2504" stroke="black" stroke-opacity="0.87" stroke-miterlimit="10" stroke-linecap="round" stroke-linejoin="round"/>
<path d="M193.234 48.3059C192.202 52.6733 191.428 57.0407 190.396 61.4081" stroke="black" stroke-opacity="0.87" stroke-miterlimit="10" stroke-linecap="round" stroke-linejoin="round"/>
<path d="M206.907 51.3887C206.133 55.4991 205.359 59.8665 204.585 63.977" stroke="black" stroke-opacity="0.87" stroke-miterlimit="10" stroke-linecap="round" stroke-linejoin="round"/>
<path d="M286.368 40.0848C283.53 60.1234 280.692 79.905 277.596 99.9436" stroke="black" stroke-opacity="0.87" stroke-miterlimit="10" stroke-linecap="round" stroke-linejoin="round"/>
<path d="M151.182 71.9411C163.008 71.9411 172.595 62.3945 172.595 50.618C172.595 38.8416 163.008 29.2949 151.182 29.2949C139.356 29.2949 129.769 38.8416 129.769 50.618C129.769 62.3945 139.356 71.9411 151.182 71.9411Z" fill="#EFD7F5"/>
<path d="M220.064 59.3526L219.548 62.1785C219.29 63.9769 220.064 65.7752 221.612 66.8028C231.416 72.7116 242.509 76.0513 254.119 76.5651L304.168 78.3635C306.748 78.3635 309.07 76.5651 309.328 73.9961C309.586 71.427 308.038 69.1149 305.716 68.3442L257.214 55.499C246.121 52.6731 234.511 52.4161 223.418 55.2421C221.612 56.0128 220.322 57.5542 220.064 59.3526Z" fill="#9E68AD"/>
<path d="M279.143 70.6565C287.399 71.6841 295.655 72.7118 303.652 73.7394" stroke="black" stroke-opacity="0.87" stroke-miterlimit="10" stroke-linecap="round" stroke-linejoin="round"/>
<path d="M224.708 119.211C221.096 100.457 219.29 80.9326 220.064 61.9217C220.322 55.2422 220.838 48.5626 221.096 41.8831C222.128 41.3693 223.418 41.1124 224.192 41.6262C225.224 42.1401 225.998 43.4245 225.998 44.4521C225.998 40.5986 226.256 36.745 226.256 32.8914C227.03 32.1207 228.32 31.8638 229.352 32.1207C230.384 32.3777 231.158 33.4053 231.674 34.4329C232.19 35.4605 232.448 36.4881 232.706 37.5158C233.222 39.3141 233.738 41.3693 234.254 43.1676C234.77 37.2588 235.028 31.6069 235.543 25.6981C236.833 24.9274 238.897 25.1843 240.187 25.9551C241.477 26.9827 242.251 28.5241 242.509 30.0655C243.799 39.0572 244.831 48.0489 246.121 57.0405C246.121 47.535 246.637 38.0296 246.379 28.2672C247.927 27.2396 250.507 27.7534 251.797 29.2948C253.087 30.8362 253.603 32.8915 254.119 34.6898C256.957 45.9936 259.794 57.5543 262.89 68.8581C263.664 64.2338 264.18 59.6095 264.954 54.7283C265.212 52.4162 265.47 49.8471 267.276 48.3057C269.082 46.7643 271.662 45.9936 273.726 46.7643C277.596 66.2891 279.402 86.0707 279.144 106.109C279.144 105.852 279.144 106.109 279.144 106.109C279.144 108.935 279.402 111.504 279.402 114.33L224.708 119.211Z" fill="#ED8686"/>
<path d="M262.374 66.0321C263.148 69.8857 263.922 73.4823 264.696 77.3359" stroke="black" stroke-opacity="0.87" stroke-miterlimit="10" stroke-linecap="round" stroke-linejoin="round"/>
<path d="M245.347 44.7091C246.379 52.1593 247.411 59.6096 248.443 67.0598" stroke="black" stroke-opacity="0.87" stroke-miterlimit="10" stroke-linecap="round" stroke-linejoin="round"/>
<path d="M233.738 39.8281C234.77 48.5629 236.059 57.2977 237.091 66.0324" stroke="black" stroke-opacity="0.87" stroke-miterlimit="10" stroke-linecap="round" stroke-linejoin="round"/>
<path d="M225.998 41.8834C226.256 50.8751 226.772 60.1237 227.03 69.1153" stroke="black" stroke-opacity="0.87" stroke-miterlimit="10" stroke-linecap="round" stroke-linejoin="round"/>
<path d="M0 436.232C24.5089 407.715 43.3421 374.832 55.7255 339.379C118.417 346.058 178.012 358.647 236.575 381.768C240.187 399.751 240.961 416.45 244.315 434.177L0 436.232Z" fill="#FA5D82"/>
<path d="M79.9765 353.252C74.3007 365.583 68.883 377.914 63.2072 390.246" stroke="black" stroke-opacity="0.87" stroke-miterlimit="10" stroke-linecap="round" stroke-linejoin="round"/>
<path d="M123.577 359.417C117.901 373.804 112.225 388.447 106.549 402.834" stroke="black" stroke-opacity="0.87" stroke-miterlimit="10" stroke-linecap="round" stroke-linejoin="round"/>
<path d="M168.983 371.492C167.435 380.483 165.887 389.218 164.339 398.21" stroke="black" stroke-opacity="0.87" stroke-miterlimit="10" stroke-linecap="round" stroke-linejoin="round"/>
<path d="M180.076 372.776C178.27 382.282 176.464 391.787 174.658 401.293" stroke="black" stroke-opacity="0.87" stroke-miterlimit="10" stroke-linecap="round" stroke-linejoin="round"/>
<path d="M215.936 380.997C215.162 390.246 214.388 399.494 213.615 408.743" stroke="black" stroke-opacity="0.87" stroke-miterlimit="10" stroke-linecap="round" stroke-linejoin="round"/>
<path d="M42.8261 342.975C47.9859 316 60.1113 289.796 57.7894 262.307C52.3717 202.962 62.9492 142.332 88.2321 88.1256C104.227 93.0068 120.481 97.3742 136.218 102.255C133.638 131.029 129.768 159.545 127.188 188.062C136.476 201.164 152.729 209.385 168.724 211.183C184.72 212.981 201.489 207.586 213.614 196.796C215.936 169.307 219.032 141.819 221.354 114.33C241.735 112.788 261.858 112.788 282.239 111.247C296.171 159.545 294.623 211.44 280.433 259.481C274.5 279.263 265.47 297.246 255.151 315.486C242.767 337.58 250.507 366.096 248.443 391.273L42.8261 342.975Z" fill="#FBB670"/>
<path d="M136.217 263.592C137.249 272.327 143.441 280.034 151.181 283.887C159.178 287.741 168.466 287.998 176.98 285.686C185.493 283.373 193.233 278.492 199.683 272.583" stroke="black" stroke-opacity="0.87" stroke-miterlimit="10" stroke-linecap="round" stroke-linejoin="round"/>
<path d="M82.8138 100.457C100.099 105.852 117.642 111.247 134.927 116.642" stroke="black" stroke-opacity="0.87" stroke-miterlimit="10" stroke-linecap="round" stroke-linejoin="round"/>
<path d="M220.322 128.46C241.735 127.432 263.148 126.662 284.819 125.634" stroke="black" stroke-opacity="0.87" stroke-miterlimit="10" stroke-linecap="round" stroke-linejoin="round"/>
<path d="M50.0493 327.818C116.61 343.746 182.913 359.931 249.474 375.859" stroke="black" stroke-opacity="0.87" stroke-miterlimit="10" stroke-linecap="round" stroke-linejoin="round"/>
<path d="M115.837 319.597C116.353 312.146 115.321 304.439 112.483 297.503C111.967 295.961 111.193 294.42 110.161 293.136C109.129 291.851 107.581 290.823 105.775 291.08C102.938 291.08 100.874 293.649 99.3257 296.218C95.7138 302.641 93.6499 309.834 93.6499 317.285C101.39 317.798 108.355 318.569 115.837 319.597Z" fill="black" fill-opacity="0.87"/>
<path d="M101.648 291.595C93.6499 297.503 88.7481 307.266 88.7481 317.285" stroke="black" stroke-opacity="0.87" stroke-miterlimit="10" stroke-linecap="round" stroke-linejoin="round"/>
<path d="M128.736 274.639C133.122 271.556 137.766 268.216 141.12 264.105C144.732 259.995 147.053 254.6 147.053 249.205C146.795 243.81 143.442 238.158 138.282 236.617C134.412 235.332 129.768 236.36 126.414 238.929C123.06 241.498 120.739 245.094 119.449 248.948C118.159 252.802 118.159 256.912 117.901 261.023C114.805 260.766 111.709 262.05 109.645 264.362C107.581 266.674 106.549 269.757 107.065 272.84C107.323 274.895 108.355 277.464 106.807 278.749C105.775 279.777 104.227 279.777 102.679 280.29C100.099 281.318 98.5516 284.401 99.0676 287.484C99.3255 290.31 101.131 292.879 102.937 294.934C108.871 295.448 115.063 293.906 119.707 290.31C124.608 286.199 127.704 280.547 128.736 274.639Z" fill="black" fill-opacity="0.87"/>
<path d="M98.8096 291.337C102.937 292.365 107.323 293.65 111.451 294.677" stroke="white" stroke-miterlimit="10" stroke-linecap="round" stroke-linejoin="round"/>
<path d="M195.813 254.6C195.555 248.948 195.297 243.296 195.039 237.644C178.012 240.47 161.243 243.296 143.958 246.122C143.7 251.774 143.442 257.169 143.184 262.821C144.474 281.061 185.752 288.512 195.813 254.6Z" fill="#ED8686"/>
<path d="M141.12 159.288C143.7 154.407 148.601 150.811 154.277 150.04C159.695 149.269 165.629 151.581 169.24 155.692C170.53 156.976 171.304 158.775 172.594 160.059C173.884 161.344 175.69 162.371 177.496 162.371C179.044 162.371 180.592 161.344 181.366 159.802C182.14 158.261 181.882 156.462 181.108 155.178" stroke="black" stroke-opacity="0.87" stroke-miterlimit="10" stroke-linecap="round" stroke-linejoin="round"/>
<path d="M132.606 208.1C128.22 207.072 124.351 204.503 122.029 200.65C119.707 196.796 119.191 191.915 120.739 188.062C122.545 183.951 126.414 180.868 131.058 180.611C130.284 176.758 131.316 172.904 134.412 170.335C137.25 167.766 141.636 167.252 145.248 168.537C144.474 163.142 147.312 157.233 152.471 154.664C157.373 152.095 163.823 152.866 167.951 156.719C170.015 158.518 171.562 161.343 174.4 162.371C176.722 163.399 179.302 162.885 181.624 162.114C183.946 161.343 186.268 160.316 188.59 160.059C192.202 159.545 196.071 160.573 198.651 163.142C201.489 165.454 203.037 169.051 203.037 172.647C209.229 171.877 215.163 175.473 218.258 180.868C221.354 186.263 220.838 193.2 217.226 198.338C222.386 203.733 224.966 210.926 223.418 218.119C221.87 225.313 216.194 231.735 209.229 234.304L132.606 208.1Z" fill="black" fill-opacity="0.87"/>
<path d="M212.067 330.901C213.615 321.652 212.583 312.147 209.229 303.669C208.455 301.871 207.681 300.329 206.391 299.045C204.843 298.017 202.263 298.017 201.231 299.302C194.265 307.266 190.654 318.313 191.943 328.846C198.651 329.616 205.101 330.13 212.067 330.901Z" fill="black" fill-opacity="0.87"/>
<path d="M207.165 300.843C214.647 309.321 218.258 321.138 217.227 332.185" stroke="black" stroke-opacity="0.87" stroke-miterlimit="10" stroke-linecap="round" stroke-linejoin="round"/>
<path d="M195.297 241.755C192.459 245.865 190.911 250.746 190.911 255.628C190.911 260.509 192.459 265.39 195.555 269.5C192.717 271.556 190.911 274.639 190.653 278.235C190.395 281.832 191.943 285.429 194.523 287.998C192.201 292.108 193.491 297.76 197.361 300.586C200.973 303.412 206.649 303.412 210.519 300.843C212.84 299.045 214.646 296.475 215.42 293.906C217.742 287.484 216.71 280.034 212.582 274.639C217.484 270.528 220.064 264.876 221.096 258.711C222.128 252.545 220.838 245.865 217.742 240.47C216.452 238.158 214.388 235.846 212.067 234.818C209.229 233.534 205.617 234.048 202.779 235.332C199.683 236.617 197.103 239.186 195.297 241.755Z" fill="black" fill-opacity="0.87"/>
<path d="M197.619 301.1C201.747 301.1 205.617 301.1 209.745 301.356" stroke="white" stroke-miterlimit="10" stroke-linecap="round" stroke-linejoin="round"/>
<path d="M193.75 244.581C198.135 244.838 202.521 244.838 206.649 243.553C210.777 242.269 214.647 239.957 216.968 236.103C219.806 231.222 219.032 224.542 215.163 220.175C211.293 216.065 204.585 214.78 199.425 217.092C199.683 215.037 199.683 212.725 199.941 210.669C195.297 210.413 190.912 207.587 188.074 203.733C185.494 199.879 184.462 194.998 185.752 190.631C181.624 191.915 176.464 191.145 172.594 189.09C168.725 187.291 165.371 183.695 163.823 179.841C155.825 180.612 147.312 183.181 140.346 187.548C133.638 194.228 130.026 202.449 127.962 211.183C125.899 219.918 126.157 229.68 130.542 237.388C133.38 242.526 137.766 246.636 142.926 249.462C150.923 253.573 160.211 255.114 169.241 254.086C178.27 253.829 186.784 250.233 193.75 244.581Z" fill="#ED8686"/>
<path d="M179.302 215.551C180.727 215.551 181.882 214.401 181.882 212.982C181.882 211.563 180.727 210.413 179.302 210.413C177.877 210.413 176.722 211.563 176.722 212.982C176.722 214.401 177.877 215.551 179.302 215.551Z" fill="black" fill-opacity="0.87"/>
<path d="M147.053 207.073C148.478 207.073 149.633 205.923 149.633 204.504C149.633 203.085 148.478 201.935 147.053 201.935C145.629 201.935 144.474 203.085 144.474 204.504C144.474 205.923 145.629 207.073 147.053 207.073Z" fill="black" fill-opacity="0.87"/>
<path d="M161.243 206.816C158.921 209.642 156.599 212.468 154.535 215.037C156.599 215.807 158.663 216.578 160.727 217.349" stroke="black" stroke-opacity="0.87" stroke-miterlimit="10" stroke-linecap="round" stroke-linejoin="round"/>
<path d="M141.12 192.172C143.442 190.374 146.796 189.603 149.634 190.117C152.471 190.888 155.309 192.686 156.599 195.512" stroke="black" stroke-opacity="0.87" stroke-miterlimit="10" stroke-linecap="round" stroke-linejoin="round"/>
<path d="M173.111 200.393C175.69 198.338 179.302 197.567 182.656 198.595C185.752 199.623 188.59 201.935 189.88 205.018" stroke="black" stroke-opacity="0.87" stroke-miterlimit="10" stroke-linecap="round" stroke-linejoin="round"/>
<path d="M172.079 224.029C168.725 226.084 164.339 226.341 160.727 224.542C161.243 227.368 163.565 229.424 166.403 229.68C169.241 229.68 171.305 226.855 172.079 224.029Z" stroke="black" stroke-opacity="0.87" stroke-miterlimit="10" stroke-linecap="round" stroke-linejoin="round"/>
<path d="M199.425 227.368C203.553 227.368 207.939 227.368 212.067 227.368" stroke="black" stroke-opacity="0.87" stroke-miterlimit="10" stroke-linecap="round" stroke-linejoin="round"/>
<path d="M142.152 251.26C147.827 254.857 154.535 256.655 161.243 256.655" stroke="black" stroke-opacity="0.87" stroke-miterlimit="10" stroke-linecap="round" stroke-linejoin="round"/>
</svg>
