<svg width="80" height="80" viewBox="0 0 80 80" fill="none" xmlns="http://www.w3.org/2000/svg">
<path d="M14.1395 24.5151C14.3268 24.7844 14.6196 24.972 14.9476 25.0069C38.2892 28.0689 36.6592 27.8646 36.7794 27.8646C37.0722 27.8646 37.3416 27.7594 37.5643 27.5604C37.822 27.3379 37.9624 27.0102 37.9506 26.6705L37.4471 4.80296C37.4471 4.47527 37.2947 4.15901 37.037 3.93654C36.7794 3.72551 36.4514 3.63172 36.1234 3.66718C31.0287 4.35803 26.332 6.55982 22.5372 9.79275L21.1083 6.16179C20.9325 5.70484 20.4993 5.41203 20.0189 5.41203H11.469C10.8248 5.41203 10.2978 5.93932 10.2978 6.58327C10.2978 7.2278 10.8248 7.75451 11.469 7.75451H19.2225L20.6983 11.5262C17.4774 14.8174 15.1114 18.9517 13.9636 23.5663C13.8933 23.8945 13.9519 24.2343 14.1395 24.5151Z" fill="#6E3D7A"/>
<path d="M60.9071 53.9368H69.4572C70.1011 53.9368 70.6284 53.4095 70.6284 52.7655C70.6284 52.1096 70.1011 51.5943 69.4572 51.5943H61.7034L59.9466 47.1318C61.5979 45.1994 62.9802 43.021 64.0107 40.6665C64.1397 40.3623 64.1397 40.0106 63.999 39.7063C63.8703 39.4015 63.601 39.179 63.2847 39.0738L44.1348 33.1124C43.7365 32.9951 43.2915 33.0883 42.987 33.3812C42.6707 33.674 42.5535 34.1195 42.659 34.5295L47.6602 53.9602C47.7423 54.2879 47.9531 54.5573 48.2576 54.71C48.4214 54.7918 48.609 54.8387 48.7846 54.8387C48.9253 54.8387 49.0774 54.8152 49.2064 54.7683C52.5677 53.4798 55.6248 51.5005 58.178 49.0173L59.8179 53.187C59.9935 53.632 60.4267 53.9368 60.9071 53.9368Z" fill="#6E3D7A"/>
<path d="M39.1287 34.5364C39.0361 34.1647 38.757 33.8621 38.3853 33.7226C38.025 33.595 37.6184 33.6648 37.3047 33.8976L20.5487 46.4004C20.2814 46.5977 20.1072 46.9002 20.0841 47.237C20.0492 47.5619 20.1653 47.8879 20.3977 48.1321C21.8578 49.687 23.498 51.0424 25.2654 52.1908L23.84 55.8195H16.0908C15.444 55.8195 14.9196 56.3439 14.9196 56.9907C14.9196 57.6375 15.444 58.1619 16.0908 58.1619H24.6383C25.1199 58.1619 25.5522 57.8674 25.7284 57.4191L27.3102 53.3923C31.1019 55.4008 35.3642 56.4977 39.7215 56.4977C40.9299 56.4977 42.1618 56.4165 43.3702 56.2421C43.7071 56.1958 43.9976 56.0099 44.1834 55.7423C44.3693 55.4637 44.4276 55.1269 44.3461 54.8015L39.1287 34.5364Z" fill="#FA5D82"/>
<path d="M69.4561 7.75566C70.1029 7.75566 70.6273 7.23066 70.6273 6.58442C70.6273 5.93703 70.1029 5.41318 69.4561 5.41318H60.9085C60.427 5.41318 59.9946 5.7077 59.8185 6.1555L57.9844 10.8245C53.7695 6.78573 48.2516 4.08924 42.1152 3.54651C41.7898 3.51105 41.4526 3.62772 41.2204 3.85991C40.9765 4.08066 40.837 4.39463 40.8487 4.73148L41.3949 27.8669C41.4063 28.3662 41.7317 28.8083 42.2081 28.9473L64.2976 35.8146C64.4137 35.8495 64.5297 35.8723 64.6461 35.8723C64.8552 35.8723 65.0642 35.8146 65.2503 35.7105C65.5291 35.5361 65.7267 35.2455 65.7848 34.9201C67.3014 26.9432 65.066 18.8613 59.7627 12.7037L61.7069 7.75566H69.4561Z" fill="#FA5D82"/>
<path d="M17.574 43.8674C17.6555 43.8788 17.7252 43.8903 17.8065 43.8903C18.0507 43.8903 18.2946 43.8091 18.5036 43.6581L33.0169 32.8287C33.4003 32.5382 33.5748 32.0612 33.4469 31.5968C33.3306 31.1433 32.9471 30.8065 32.4821 30.7367L14.5181 28.4011C14.2044 28.3548 13.9021 28.448 13.6465 28.6453C13.4026 28.8426 13.2516 29.1217 13.2167 29.4356C13.1935 29.6215 13.1935 29.7839 13.1935 29.9704C13.1935 31.8696 13.4077 33.7517 13.8069 35.5887H9.65866L6.62704 27.8715C6.39085 27.2699 5.71258 26.9725 5.10866 27.2104C4.50646 27.4466 4.21021 28.1266 4.44698 28.7282L7.77026 37.1877C7.94641 37.636 8.37876 37.9311 8.8603 37.9311H14.4331C15.0242 39.803 15.8108 41.6107 16.8071 43.3092C16.9698 43.5998 17.2489 43.7976 17.574 43.8674V43.8674Z" fill="#FA5D82"/>
<path d="M22.7127 66.8788H18.2271C16.9034 66.8788 15.8377 67.9568 15.8377 69.2802V74.0589C15.8377 75.3823 16.9034 76.4597 18.2271 76.4597H22.7127C24.0364 76.4597 25.1138 75.3823 25.1138 74.0589V69.2802C25.1138 67.9568 24.0364 66.8788 22.7127 66.8788Z" fill="#FA5D82"/>
<path d="M10.5014 67.175H6.0157C4.8659 67.175 3.92456 68.1164 3.92456 69.2779V74.0658C3.92456 75.2159 4.8659 76.1572 6.0157 76.1572H10.5014C11.6635 76.1572 12.6042 75.2159 12.6042 74.0658V69.2779C12.6042 68.1164 11.6635 67.175 10.5014 67.175V67.175Z" fill="#FA5D82"/>
<path d="M34.9259 67.175H30.4408C29.2787 67.175 28.3494 68.1164 28.3494 69.2779V74.0658C28.3494 75.2159 29.2787 76.1572 30.4408 76.1572H34.9259C36.0877 76.1572 37.029 75.2159 37.029 74.0658V69.2779C37.029 68.1164 36.0877 67.175 34.9259 67.175V67.175Z" fill="#FA5D82"/>
<path d="M73.9932 67.3289H61.8436C60.6932 67.3289 59.7496 68.2719 59.7496 69.4226V73.9091C59.7496 75.0597 60.6932 76.0034 61.8436 76.0034H73.9932C75.1436 76.0034 76.0755 75.0597 76.0755 73.9091V69.4226C76.0755 68.2719 75.1436 67.3289 73.9932 67.3289Z" fill="#FA5D82"/>
<path d="M53.2471 67.0315H48.4684C47.145 67.0315 46.0673 68.0969 46.0673 69.4209V73.9063C46.0673 75.2302 47.145 76.3076 48.4684 76.3076H53.2471C54.5705 76.3076 55.6482 75.2302 55.6482 73.9063V69.4209C55.6482 68.0969 54.5705 67.0315 53.2471 67.0315Z" fill="#6E3D7A"/>
</svg>
