
<svg width="38" height="48" viewBox="0 0 38 48" fill="none" xmlns="http://www.w3.org/2000/svg">
<g clip-path="url(#clip0_1916_7341)">
<path d="M19.2617 27.9817C19.0717 28.1875 18.7465 28.1875 18.5565 27.9817C17.8271 27.1914 16.97 26.5294 16.021 26.0233L4.23255 19.7361C3.36518 19.2735 2.63307 18.5932 2.10814 17.7621C1.9186 17.462 1.45454 17.5963 1.45454 17.9512V33.0218C1.45454 35.0911 2.55366 37.0048 4.34111 38.0474L16.0942 44.9034C16.9961 45.4295 17.8146 46.0869 18.5227 46.8541C18.7309 47.0797 19.0873 47.0797 19.2954 46.8541C20.0036 46.0869 20.8221 45.4295 21.724 44.9034L33.4771 38.0474C35.2645 37.0048 36.3636 35.0911 36.3636 33.0218V17.9512C36.3636 17.5963 35.8996 17.462 35.71 17.7621C35.1851 18.5932 34.453 19.2735 33.5856 19.7361L21.7972 26.0233C20.8482 26.5294 19.9911 27.1914 19.2617 27.9817Z" fill="#ED8686"/>
<path d="M14.0667 6.74306C16.201 5.89282 18.2337 7.81898 17.5009 9.99641C16.2743 13.6412 13.4869 16.5687 9.93331 17.9844C7.799 18.8346 5.7663 16.9085 6.4991 14.731C7.72575 11.0862 10.5131 8.15871 14.0667 6.74306Z" fill="#FBB670"/>
<path d="M20.3173 9.99641C19.5845 7.81898 21.6172 5.89282 23.7515 6.74306C27.3051 8.1587 30.0925 11.0862 31.3191 14.731C32.0519 16.9085 30.0192 18.8346 27.8849 17.9844C24.3313 16.5687 21.5439 13.6412 20.3173 9.99641Z" fill="#FBB670"/>
<path fill-rule="evenodd" clip-rule="evenodd" d="M13.8182 18.9092C14.2198 18.9092 14.5455 19.2348 14.5455 19.6365C14.5455 20.0381 14.8711 20.3637 15.2727 20.3637C15.6744 20.3637 16 20.0381 16 19.6365C16 19.2348 16.3256 18.9092 16.7273 18.9092C17.1289 18.9092 17.4545 19.2348 17.4545 19.6365C17.4545 20.8414 16.4777 21.8183 15.2727 21.8183C14.0677 21.8183 13.0909 20.8414 13.0909 19.6365C13.0909 19.2348 13.4165 18.9092 13.8182 18.9092ZM21.0909 18.9092C21.4926 18.9092 21.8182 19.2348 21.8182 19.6365C21.8182 20.0381 22.1438 20.3637 22.5455 20.3637C22.9471 20.3637 23.2727 20.0381 23.2727 19.6365C23.2727 19.2348 23.5983 18.9092 24 18.9092C24.4017 18.9092 24.7273 19.2348 24.7273 19.6365C24.7273 20.8414 23.7504 21.8183 22.5455 21.8183C21.3405 21.8183 20.3636 20.8414 20.3636 19.6365C20.3636 19.2348 20.6892 18.9092 21.0909 18.9092Z" fill="#FBB670"/>
<ellipse cx="6.54545" cy="5.09095" rx="3.63636" ry="3.63636" fill="#FBB670"/>
<ellipse cx="31.2727" cy="5.09095" rx="3.63637" ry="3.63636" fill="#FBB670"/>
</g>
<defs>
<clipPath id="clip0_1916_7341">
<rect width="37.8182" height="48" fill="white"/>
</clipPath>
</defs>
</svg>
