<svg width="38" height="48" viewBox="0 0 38 48" fill="none" xmlns="http://www.w3.org/2000/svg">
<path d="M19.2612 27.9819C19.0712 28.1877 18.7461 28.1877 18.5561 27.9819C17.8266 27.1916 16.9695 26.5296 16.0206 26.0235L4.2321 19.7364C3.36473 19.2738 2.63263 18.5935 2.1077 17.7624C1.91816 17.4622 1.4541 17.5965 1.4541 17.9515V33.0221C1.4541 35.0914 2.55322 37.005 4.34067 38.0477L16.0938 44.9037C16.9956 45.4297 17.8141 46.0872 18.5223 46.8544C18.7305 47.0799 19.0868 47.0799 19.295 46.8544C20.0032 46.0872 20.8217 45.4297 21.7235 44.9037L33.4766 38.0477C35.2641 37.005 36.3632 35.0914 36.3632 33.0221V17.9515C36.3632 17.5965 35.8991 17.4622 35.7096 17.7624C35.1847 18.5935 34.4526 19.2738 33.5852 19.7364L21.7967 26.0235C20.8478 26.5296 19.9907 27.1916 19.2612 27.9819Z" fill="#ED8686"/>
<path d="M14.0669 6.74282C16.2012 5.89257 18.2339 7.81874 17.5011 9.99616C16.2744 13.641 13.487 16.5685 9.93346 17.9841C7.79915 18.8344 5.76645 16.9082 6.49925 14.7308C7.7259 11.086 10.5133 8.15846 14.0669 6.74282Z" fill="#FBB670"/>
<path d="M20.3176 9.99616C19.5848 7.81873 21.6175 5.89257 23.7518 6.74282C27.3054 8.15846 30.0928 11.086 31.3194 14.7308C32.0522 16.9082 30.0195 18.8344 27.8852 17.9841C24.3316 16.5685 21.5443 13.641 20.3176 9.99616Z" fill="#FBB670"/>
<path fill-rule="evenodd" clip-rule="evenodd" d="M13.8181 18.9092C14.2198 18.9092 14.5454 19.2348 14.5454 19.6365C14.5454 20.0381 14.871 20.3637 15.2726 20.3637C15.6743 20.3637 15.9999 20.0381 15.9999 19.6365C15.9999 19.2348 16.3255 18.9092 16.7272 18.9092C17.1288 18.9092 17.4545 19.2348 17.4545 19.6365C17.4545 20.8414 16.4776 21.8183 15.2726 21.8183C14.0677 21.8183 13.0908 20.8414 13.0908 19.6365C13.0908 19.2348 13.4164 18.9092 13.8181 18.9092ZM21.0908 18.9092C21.4925 18.9092 21.8181 19.2348 21.8181 19.6365C21.8181 20.0381 22.1437 20.3637 22.5454 20.3637C22.947 20.3637 23.2726 20.0381 23.2726 19.6365C23.2726 19.2348 23.5982 18.9092 23.9999 18.9092C24.4016 18.9092 24.7272 19.2348 24.7272 19.6365C24.7272 20.8414 23.7503 21.8183 22.5454 21.8183C21.3404 21.8183 20.3635 20.8414 20.3635 19.6365C20.3635 19.2348 20.6892 18.9092 21.0908 18.9092Z" fill="#FBB670"/>
<ellipse cx="6.54554" cy="5.09095" rx="3.63636" ry="3.63636" fill="#FBB670"/>
<ellipse cx="31.2731" cy="5.09095" rx="3.63637" ry="3.63636" fill="#FBB670"/>
</svg>
