<svg width="223" height="222" viewBox="0 0 223 222" fill="none" xmlns="http://www.w3.org/2000/svg">
<path d="M10.3447 26.547C11.4769 26.5768 12.7641 26.0464 13.7354 26.8152C13.8904 26.9403 15.4934 28.1322 15.4457 28.2513C16.0774 26.8569 17.9962 27.2979 19.194 27.3515C20.1118 27.3932 20.5825 26.0822 20.9937 25.379C21.3632 24.7533 21.977 24.2885 22.5848 23.8237C21.4883 23.2337 21.6433 21.4519 21.5062 20.4091C21.2321 18.3889 20.1654 17.4593 21.822 15.6417C23.1271 14.2175 24.2951 13.1389 24.9268 11.2438C25.5823 9.2773 25.7432 6.38114 28.6811 6.91151C25.2009 4.87347 21.2082 4.46228 18.5922 1C17.9962 3.87828 15.8569 5.65412 14.0632 7.81135C13.2229 8.81845 12.49 9.94473 12.2158 11.2438C11.9119 12.686 10.3089 11.2438 9.5938 12.5549C9.01576 13.6096 8.90849 14.7955 7.61535 15.0458C6.30433 15.302 6.09576 16.6607 6.06 17.7751C6.01829 18.9312 6.11364 20.0575 5.44621 21.0705C4.54637 22.4292 4.02196 23.7283 3.23535 25.1347C5.54751 26.106 7.83584 26.4815 10.3447 26.547Z" fill="#832C28" stroke="white" stroke-width="0.266659"/>
<path d="M6.85768 39.0444C7.53107 39.4615 8.05548 40.1647 8.84209 40.3792C9.96241 40.6891 11.0112 39.9025 12.066 40.5103C12.7513 40.9036 13.0016 41.7617 13.8061 41.5711C14.8609 41.3267 15.8858 40.9453 16.9466 40.7189C19.2051 40.2362 19.5627 42.2087 21.4458 42.5603C23.4421 42.9357 25.3073 42.3875 27.0593 41.5234C27.9711 41.0764 28.7696 41.0586 29.7171 41.4161C31.5049 42.0955 31.7313 41.4519 30.605 40.1111C28.9782 38.1624 29.4907 35.7668 29.4013 33.3831C29.3596 32.2092 29.58 31.9529 29.9316 31.0412C30.313 30.052 30.5097 28.6694 29.6933 28.0378C29.0556 27.5431 28.5372 26.7565 27.8161 26.3871C28.6742 25.4693 27.9532 24.3311 28.1677 23.2764C26.7375 23.5267 25.3729 24.1702 23.9009 24.1345C23.1739 24.1166 22.721 23.5386 22.1966 24.1762C21.6543 24.8317 21.4875 24.5218 20.9809 25.374C20.0751 26.9115 19.8666 27.3882 18.1146 27.275C17.1432 27.2154 15.9037 27.2094 15.4329 28.2523C15.7845 27.3584 12.2984 26.393 11.8396 26.4347C9.11025 26.6791 6.35711 26.4169 3.80658 25.374C1.86985 24.5814 1.47058 29.0806 1.21434 30.5525C0.70185 33.4487 1.19646 35.7609 1.7745 38.5795C3.43115 37.9419 5.35001 38.1207 6.85768 39.0444Z" fill="#832C28" stroke="white" stroke-width="0.266659"/>
<path d="M29.4095 31.6488C29.2009 34.7952 28.9268 38.1801 31.0721 40.6531C31.5607 41.2192 31.3224 42.8342 31.2985 43.9485C31.2687 45.1881 31.1495 46.3978 30.792 47.5896C34.5999 47.6909 37.9549 48.853 41.7926 48.0306C43.0858 47.7505 44.8318 47.828 45.4099 46.6302C45.7674 45.8912 45.8628 45.4205 45.8449 44.61C46.7209 44.3597 47.1321 43.6744 47.3526 42.8699C47.6982 41.6006 48.1272 39.9499 49.2178 39.1037C49.7124 38.7164 50.3143 38.478 50.94 38.4005C51.9113 38.2754 51.5717 37.5245 52.394 37.3815C53.7587 37.1432 57.9539 36.6188 55.1889 34.7714C53.0376 33.3352 50.8923 32.0361 48.7768 30.5166C47.3406 29.4856 45.8687 28.3832 44.8974 26.8755C44.0214 25.5168 43.5566 23.9078 42.329 22.7875C41.1669 21.7327 40.1956 21.8042 38.8309 22.3465C37.5318 22.859 36.2208 22.4001 35.458 23.7648C34.731 25.0699 33.271 24.9745 32.5678 26.1068C32.0732 26.9053 31.6322 29.0625 30.2497 28.3772C30.2259 29.1579 30.4106 31.3032 29.4095 31.6488Z" fill="#832C28" stroke="white" stroke-width="0.266659"/>
<path d="M48.1151 40.6638C47.6145 42.1834 47.0543 43.2561 46.4286 44.5254C47.7814 44.5194 47.9899 46.2118 48.0614 47.2189C48.1747 48.7862 48.9851 49.6145 49.3903 51.0387C49.8254 52.5881 47.6145 52.8444 47.0305 53.8753C46.2201 55.3115 47.1139 56.7596 44.9865 57.1409C43.6397 57.3853 42.2691 57.3018 40.9104 57.3734C39.9629 57.421 40.8389 62.0871 40.7317 63.0405C40.6184 64.0417 40.1 64.9058 39.945 65.9009C39.7186 67.355 39.808 67.1583 40.8806 67.933C42.1797 68.8746 42.8948 70.1975 44.617 70.3822C46.4167 70.5789 47.8171 69.7684 49.5334 69.5122C50.3438 68.0522 50.9636 67.7483 52.6858 67.8436C53.7108 67.9032 54.1279 68.2667 54.4378 67.0749C54.5927 66.4909 54.4676 65.8175 54.3484 65.2454C54.0802 63.9821 53.5856 62.2301 52.507 61.3958C52.0601 61.2468 51.9588 60.9071 52.1912 60.3589C51.9647 59.4889 52.2865 59.1969 53.1565 59.4769C54.3961 59.465 55.6117 59.8166 56.1183 58.5414C56.9764 56.3901 56.6903 54.8645 55.2959 53.0649C54.3484 51.8432 54.2352 50.3177 54.7774 48.8696C55.1112 47.9817 55.8382 48.1068 56.2732 47.2308C56.6963 46.3787 57.0836 45.4371 57.8107 44.7876C57.2505 44.871 56.5831 44.9663 56.0527 44.6922C55.0516 44.1678 55.6952 43.1488 54.7119 42.7257C53.8359 42.3443 53.3592 41.4683 52.7811 40.7651C52.0005 39.8176 51.0112 39.8414 51.5654 38.3695C50.0518 38.3099 48.5918 39.1978 48.1151 40.6638Z" fill="#832C28" stroke="white" stroke-width="0.266659"/>
<path d="M55.8749 47.9936C54.0037 47.9995 54.3017 51.6525 54.9691 52.6358C56.6258 55.0731 57.0429 56.5092 55.7796 59.3339C54.4983 59.5424 52.216 58.8393 52.1862 60.3648C52.1623 61.4613 52.8357 61.5686 53.3482 62.4982C54.1765 63.9999 55.1121 66.467 53.9799 68.0283C55.5054 68.362 55.422 68.5825 56.7569 67.8317C57.6567 67.3251 58.634 67.0093 59.5458 66.5445C61.5361 65.5195 63.7887 63.7854 65.3083 62.1466C66.369 61.0024 65.8744 59.2028 66.9828 57.9573C67.6622 57.1945 68.4666 56.5867 69.0685 55.7524C69.7538 54.8109 70.2604 53.6071 71.2913 52.9754C70.8444 51.2771 68.7348 51.3247 67.4357 50.6216C66.5478 50.1448 65.7373 49.5429 64.8315 49.096C63.4729 48.4345 62.8293 49.0841 62.7399 47.4453C62.6564 45.9138 62.1916 44.8531 60.5409 44.6326C57.609 44.2393 57.1323 45.735 55.8749 47.9936Z" fill="#832C28" stroke="white" stroke-width="0.266659"/>
<path d="M68.5392 56.4106C67.5381 57.5309 66.3641 58.2878 66.0304 59.8491C65.6788 61.47 65.5 62.0122 64.1413 63.1147C62.8661 64.1516 61.6564 65.2779 60.256 66.142C58.7662 67.0537 56.9903 67.4411 55.6436 68.5912C57.2347 69.3242 58.2179 70.5637 58.6231 72.2561C58.9151 73.4718 58.6589 76.9042 60.107 76.7851C62.0795 76.6182 63.1104 76.7553 64.5585 78.1557C65.6609 79.2283 67.4904 77.6313 68.8849 78.108C70.8871 78.7933 68.3247 80.7002 69.594 81.7193C70.5415 82.482 70.3985 81.8504 71.2209 81.3021C72.079 80.73 73.0026 80.736 73.9978 80.7062C74.1647 78.8529 74.0991 74.2524 77.0966 76.5229C77.2158 75.6469 77.6389 73.9783 76.6497 73.4062C76.4292 71.8866 77.2694 71.1417 78.2944 70.1882C78.9082 69.6162 79.4862 69.0143 79.2896 68.1264C79.1764 67.602 79.0214 67.1014 78.9618 66.5591C78.4315 66.5353 77.764 66.3565 77.5972 65.7665C77.8117 65.1289 77.5853 64.9024 76.9119 65.0812C76.453 64.9918 76.1372 64.7416 75.9107 64.3423C75.2612 63.216 74.4686 62.9955 74.7964 61.5415C75.0645 60.3437 75.72 59.2829 75.9703 58.0792C76.2266 56.8278 75.9763 55.5167 76.4828 54.313C75.3804 54.0687 74.2481 54.0746 73.1278 54.0687C71.6916 54.0508 71.632 54.2415 71.3043 52.9722C70.029 53.7469 69.4987 55.338 68.5392 56.4106Z" fill="#832C28" stroke="white" stroke-width="0.266659"/>
<path d="M74.7145 63.0064C75.5011 63.3699 75.6024 64.0791 76.1208 64.669C76.4903 65.0862 77.0683 65.1517 77.5927 65.1398C77.4497 65.7715 77.7298 66.272 78.3436 66.4687C80.912 67.2791 78.2244 70.1455 77.3127 71.1109C76.4724 71.9988 76.4784 72.8629 77.0266 73.8044C77.706 74.9724 76.2221 77.1118 78.1767 76.6768C78.8918 76.5159 79.6367 76.5039 80.3638 76.5337C81.3887 76.5755 81.0491 76.7542 81.3947 77.5647C81.7999 78.5241 82.6163 79.6266 83.8082 79.3763C83.689 76.4682 83.248 70.7176 87.3241 70.1097C88.9092 69.8714 89.8806 71.0513 91.2393 69.7343C92.2881 68.7213 93.5038 67.6128 94.7016 69.2337C95.1843 67.4043 97.5798 69.2278 97.7884 66.8918C97.9136 65.5033 97.7944 63.8824 96.0543 63.7692C96.239 62.6786 96.5012 61.5822 96.966 60.5691C97.1865 60.0804 97.4607 59.6156 97.7884 59.1866C97.4309 58.5489 97.0435 57.9292 96.6025 57.3452C95.506 55.909 95.6014 55.3131 93.7719 56.0163C92.6218 56.4632 91.5551 56.8088 90.9592 57.9649C90.4467 58.9601 90.399 59.6812 89.1536 59.6752C88.5874 59.6752 88.0273 59.6454 87.4671 59.5977C87.5148 59.1687 87.5327 58.6026 87.1989 58.2569C86.8176 57.8636 86.2157 57.9649 85.7449 57.7742C85.5542 57.7027 85.4231 57.5716 85.3456 57.3869C85.0715 56.6956 84.2432 56.8982 83.54 57.0651C83.5043 56.1057 83.5877 55.1462 83.5519 54.1868C82.813 54.02 82.0502 54.0498 81.3053 54.1511C79.6248 54.3775 78.1708 54.6933 76.4784 54.3239C75.9659 55.5276 76.2221 56.8446 75.9659 58.0901C75.6143 59.7467 74.4582 61.2425 74.7145 63.0064Z" fill="#832C28" stroke="white" stroke-width="0.266659"/>
<path d="M97.6722 67.9743C96.8975 68.5822 95.8487 68.0339 95.0859 68.5762C94.2516 69.1662 95.2885 70.1852 95.5269 70.8884C96.093 72.545 95.8487 74.8393 95.2647 76.4542C94.4662 78.6591 91.9574 78.0453 92.0885 80.8998C92.154 82.3419 91.9037 82.2227 90.6642 82.8008C90.0206 83.1047 88.8467 83.5337 88.5308 84.2488C88.4891 83.8555 88.6321 83.5397 88.948 83.3073C87.8753 83.8555 86.6656 84.4991 86.028 85.5658C85.1281 87.0616 86.2544 88.319 86.8265 89.6657C87.0827 90.2676 87.1364 90.9172 87.1602 91.5608C88.1494 91.5012 89.1506 91.4892 90.1219 91.6978C91.9752 92.0852 93.2743 93.3902 94.8476 94.3377C94.9727 92.8718 95.807 91.8587 97.0942 91.239C98.2801 90.6669 99.6983 89.3082 100.586 90.5417C101.254 91.4714 102.112 92.1567 103.262 91.4177C103.709 91.1317 104.019 90.649 103.989 90.1008C105.074 90.0054 106.152 90.1901 107.219 90.363C108.47 90.5656 110.198 90.9887 111.313 90.1484C112.475 89.2724 113.327 88.5514 114.9 88.748C116.307 88.9208 117.63 89.5585 118.899 90.1484C119.495 90.4285 120.091 90.7146 120.704 90.9529C121.729 91.3522 121.622 92.5977 121.807 93.5809C123.899 88.6825 121.3 83.5755 118.649 79.4457C117.373 77.4494 115.729 75.4769 115.335 73.0754C114.888 70.3461 116.277 67.6704 117.784 65.4893C118.821 63.9936 118.756 63.8923 117.635 62.4561C116.968 61.598 116.211 60.8054 115.359 60.1261C113.375 58.5529 111.021 57.8377 108.572 57.3431C105.872 56.8009 102.94 56.491 100.282 57.3968C97.5411 58.3324 96.5042 61.1451 96.0632 63.7612C98.2979 63.9042 97.8212 66.4309 97.6722 67.9743Z" fill="#832C28" stroke="white" stroke-width="0.266659"/>
<path d="M118.248 78.8268C120.572 82.3606 123.122 86.6929 122.532 91.0967C122.24 93.3076 121.376 94.1478 123.128 96.0548C124.422 97.4611 124.38 98.8496 124.469 100.667C124.541 102.145 125.613 103.248 125.661 104.41C125.715 105.619 126.46 105.578 126.203 106.787C125.953 107.991 126.37 107.925 127.294 108.194C129.004 108.7 129.308 110.166 129.248 111.769C129.219 112.544 129.117 113.313 129.088 114.081C129.028 115.5 130.44 113.372 130.899 113.044C132.157 112.145 134.886 110.547 134.588 108.664C134.302 106.877 134.421 105.655 133.676 103.879C133.223 102.801 131.656 100.083 132.377 98.9211C133.307 97.4373 135.16 96.0846 132.133 95.9654C130.851 95.9118 131.34 94.6246 131.126 93.5281C130.923 92.4912 130.589 91.4841 130.166 90.5187C129.815 89.7261 129.731 88.7786 129.201 88.0754C128.736 87.4557 128.009 87.0624 127.991 86.2162C127.961 85.0422 129.266 85.5726 130.172 85.5309C130.512 84.8515 131.03 84.2556 131.555 83.7133C132.907 82.3069 134.373 81.2164 136.376 81.1032C134.755 76.169 132.347 71.5268 129.636 67.1051C127.413 63.4819 124.523 60.0852 119.839 61.6047C120.053 61.6882 120.214 61.9206 120.429 62.0159C118.343 64.638 115.954 67.3971 115.352 70.8057C114.803 73.9105 116.645 76.3895 118.248 78.8268Z" fill="#832C28" stroke="white" stroke-width="0.266659"/>
<path d="M130.171 85.5418C129.092 85.5895 127.543 85.0472 128.055 86.68C128.294 87.4368 129.175 87.8718 129.503 88.6167C129.974 89.6953 130.373 90.8931 130.737 92.0075C130.981 92.7584 131.154 93.5271 131.255 94.3137C131.392 95.3446 130.898 95.9167 132.137 95.9644C135.814 96.1134 132.519 97.6151 132.274 99.1943C131.929 101.435 133.949 104.194 134.527 106.31C137.256 103.759 138.287 108.169 140.54 107.883C142.411 107.644 141.678 103.628 141.767 102.412C143.4 102.412 148.346 106.143 147.321 101.828C147.083 100.809 146.135 100.183 145.23 99.8081C144.467 99.4922 144.002 99.7366 144.002 98.7712C144.008 98.062 144.181 97.3529 144.437 96.6914C145.39 94.2124 147.685 93.1934 148.805 90.9289C149.967 88.581 152.857 89.165 155.062 89.2246C156.171 88.5095 155.902 87.9553 155.45 86.6383C154.949 85.1842 154.037 83.9149 152.816 82.9793C150.348 81.0962 147.184 81.1082 144.222 81.2273C139.002 81.4478 133.037 79.809 130.171 85.5418Z" fill="#832C28" stroke="white" stroke-width="0.266659"/>
<path d="M154.778 89.2212C153.211 89.2212 150.773 88.7027 149.492 89.8826C148.86 90.4666 148.658 91.3784 148.205 92.0816C147.633 92.9755 146.554 93.3926 145.881 94.209C145.082 95.1744 142.788 99.0061 144.635 99.5961C146.84 100.305 147.859 101.771 146.983 104.03C149.069 104.447 149.236 106.67 150.726 107.79C147.216 109.995 151.762 111.282 153.038 112.522C153.955 113.415 155.046 113.719 156.178 112.885C157.126 112.188 157.06 110.168 157.93 110.18C157.65 107.909 157.734 105.788 159.295 103.922C160.892 102.021 163.764 103.106 165.868 102.975C165.445 102.284 165.492 101.42 165.629 100.657C165.832 99.5425 166.511 99.7749 167.054 98.881C167.733 97.7666 167.733 96.2828 168.687 95.3234C168.681 95.4545 168.681 95.5915 168.675 95.7226C169.318 94.9658 170.212 94.5129 171.195 94.3699C172.387 94.1971 172.083 93.2496 171.565 92.2484C170.713 90.6037 168.901 89.537 167.209 88.9292C164.992 88.1306 162.841 88.6431 160.564 88.7385C159.503 88.7802 158.455 88.6074 157.394 88.6133C156.446 88.6253 155.618 89.2212 154.778 89.2212Z" fill="#832C28" stroke="white" stroke-width="0.266659"/>
<path d="M168.667 95.7219C168.667 95.5908 168.673 95.4597 168.679 95.3226C167.725 96.2821 167.725 97.7659 167.046 98.8803C166.76 99.351 166.343 99.7086 165.8 99.8576C165.544 100.835 165.294 102.045 165.86 102.974C162.642 103.171 159.823 101.973 158.286 105.656C157.618 107.253 157.714 108.51 157.922 110.179C159.4 110.203 160.687 110.852 161.373 112.187C161.754 112.926 161.51 113.582 162.457 113.439C163.345 113.301 164.03 113.015 164.835 112.64C166.444 111.889 167.707 113.17 168.983 113.993C170.335 114.863 171.992 115.03 173.327 115.965C173.982 115.667 174.739 115.596 175.454 115.584C176.39 115.566 176.712 114.845 177.731 114.756C177.188 113.069 177.981 112.801 178.625 111.52C179.399 109.97 178.881 108.272 180.651 107.265C181.586 106.729 183.04 106.484 183.487 105.37C183.988 104.136 183.547 102.283 182.939 101.169C180.919 97.5097 172.445 91.2883 168.667 95.7219Z" fill="#832C28" stroke="white" stroke-width="0.266659"/>
<path d="M192.974 99.3966C189.458 99.5337 183.523 97.7519 183.618 103.389C183.672 106.709 181.538 105.91 179.792 107.942C178.785 109.11 179.304 110.82 178.332 111.929C178.011 112.298 176.723 114.795 177.862 114.742C177.325 112.918 182.76 113.985 183.547 114.05C183.57 115.314 183.29 116.666 184.673 117.274C186.079 117.888 187.557 118.234 188.886 119.044C189.977 119.706 189.834 119.557 190.966 118.824C191.794 118.281 192.742 117.936 193.606 117.459C195.328 116.523 195.376 115.224 196.15 113.627C196.609 112.68 197.342 112.668 197.408 111.565C197.467 110.606 197.575 109.64 198.087 108.8C198.707 107.793 200.167 108.175 200.924 107.173C198.504 107.227 198.302 104.301 198.147 102.537C198.093 101.923 197.89 98.4253 197.312 98.3836C195.781 98.2763 194.482 99.3371 192.974 99.3966Z" fill="#832C28" stroke="white" stroke-width="0.266659"/>
<path d="M200.306 107.795C198.864 108.504 198.012 108.17 197.577 110.101C197.339 111.174 197.655 111.984 196.826 112.717C196.087 113.361 195.897 114.332 195.593 115.214C194.854 117.365 192.697 117.699 190.968 118.819C190.253 119.284 189.193 119.636 190.337 120.19C190.921 120.476 191.01 121.435 191.076 121.989C191.26 123.563 191.29 124.981 191.683 126.536C192.786 126.447 193.888 126.56 194.985 126.638C195.527 126.685 196.063 126.709 196.606 126.709C197.851 126.709 197.196 126.429 197.69 125.601C199.293 122.919 203.709 129.134 204.561 129.897C206.063 131.244 207.737 129.873 209.597 129.963C210.973 130.028 215.312 131.149 216.021 129.325C216.349 128.479 215.365 127.8 214.662 127.716C214.251 127.686 213.84 127.686 213.429 127.716C212.433 127.752 213.119 127.382 212.594 126.798C212.356 126.554 212.058 126.447 211.712 126.483C211.539 125.934 211.438 125.374 211.402 124.802C211.283 123.169 211.998 122.049 210.02 122.091C208.113 122.126 205.461 122.216 205.115 119.743C204.907 118.253 205.991 115.738 204.436 114.719C202.827 113.664 202.636 114.099 202.642 112.026C202.648 110.232 200.729 109.016 200.968 107.169C201.045 107.169 200.289 107.801 200.306 107.795Z" fill="#832C28" stroke="white" stroke-width="0.266659"/>
<path d="M201.777 126.708C200.954 126.088 199.047 124.402 197.951 125.308C197.724 125.516 197.575 125.767 197.504 126.07C197.224 127.03 196.783 126.75 195.806 126.702C194.435 126.637 193.058 126.44 191.682 126.547C191.962 127.638 192.927 130.874 191.354 131.487C189.822 132.083 187.695 131.72 187.999 134.145C188.297 136.541 190.532 135.76 192.027 137.155C192.689 137.768 193.291 138.501 193.72 139.294C194.393 140.551 193.595 140.599 193.118 141.725C194.173 141.57 194.715 140.2 195.913 139.967C197.182 139.717 198.225 140.504 198.892 141.511C200.186 143.459 203.088 145.724 205.644 144.89C204.977 144.264 204.411 143.555 204.101 142.691C205.519 142.804 209.488 142.238 209.506 140.295C209.512 139.514 209.214 138.132 208.719 137.5C208.129 136.743 206.717 137.041 205.894 136.815C204.136 136.326 200.781 135.552 202.104 133.043C202.629 132.053 203.743 132.238 204.655 132.024C205.453 131.833 205.62 131.207 206.175 130.713C204.005 130.266 203.38 127.918 201.777 126.708Z" fill="#832C28" stroke="white" stroke-width="0.266659"/>
<path d="M202.725 144.682C201.647 144.038 200.687 143.156 199.513 142.686C199.68 143.073 199.823 143.466 199.937 143.871C198.989 143.931 198.19 143.949 197.583 144.741C196.742 145.844 196.289 146.052 195.074 146.601C194.4 146.905 194.085 148.448 194.74 148.919C195.58 149.521 196.897 149.044 197.046 150.54C197.231 152.357 194.984 152.643 196.808 154.103C198.047 155.099 199.537 155.569 200.938 156.267C201.742 156.666 202.159 157.184 202.332 158.066C202.696 159.902 203.262 161.761 203.53 163.608C204.471 163.221 205.628 163.227 206.122 162.184C206.527 161.332 206.313 160.152 207.201 159.592C208.452 158.799 210.663 159.616 210.395 161.29C212.052 161.487 212.463 159.89 213.851 159.425C215.639 158.817 217.385 160.259 219.125 160.414C222.277 160.694 223.118 157.244 220.228 156.016C216.652 154.497 213.291 152.673 209.954 150.641C208.256 149.604 208.613 147.715 207.248 146.344C206.617 145.713 205.979 144.813 205.091 145.039C204.269 145.248 203.476 145.123 202.725 144.682Z" fill="#832C28" stroke="white" stroke-width="0.266659"/>
<path d="M199.828 155.766C198.351 155.134 196.897 154.407 195.848 153.156C195.061 154.443 193.917 153.847 192.576 153.466C191.331 153.114 190.175 153.138 188.899 153.239C188.047 153.305 187.123 153.4 186.361 153.811C185.074 154.503 185.914 155.599 184.037 155.182C184.245 156.308 180.568 155.259 179.692 156.457C182.028 157.929 177.547 160.146 176.117 160.015C176.26 160.76 176.516 163.346 175.67 163.352C176.379 164.055 176.182 164.252 177.195 164.073C178.149 163.906 179.126 163.87 180.068 164.109C181.134 164.383 182.01 165.05 183.089 165.289C184.126 165.515 185.205 165.515 186.242 165.742C190.699 166.701 189.68 170.074 190.151 173.483C192.236 172.398 193.923 171.099 196.187 170.348C198.827 169.472 199.06 167.494 200.627 165.533C201.3 164.693 202.26 164.454 203.064 163.864C204 163.173 202.921 161.26 202.677 160.164C202.123 157.726 202.284 156.821 199.828 155.766Z" fill="#832C28" stroke="white" stroke-width="0.266659"/>
<path d="M187.797 166.314C186.099 165.373 184.096 165.718 182.315 165.075C180.163 164.294 178.811 163.692 176.469 164.228C176.612 164.431 177.356 164.502 177.637 164.449C177.66 164.866 177.863 165.218 178.155 165.504C178.662 166.01 179.532 166.386 179.609 167.19C179.704 168.155 178.948 168.9 178.149 169.27C177.088 169.758 176.671 171.332 175.837 171.391C177.076 172.339 180.437 177.923 177.72 178.155C176.504 178.262 176.856 178.828 176.904 179.973C176.939 180.89 177.029 181.802 177.005 182.72C176.987 183.405 176.79 184.126 176.945 184.811C177.124 185.622 177.869 186.218 177.857 187.082C177.416 187.094 176.999 187.189 176.594 187.356C177.845 188.84 179.156 190.276 181.218 190.353C182.928 190.413 184.978 189.835 186.563 190.687C184.978 189.245 184.996 186.265 184.359 184.329C183.518 181.754 184.049 178.87 185.294 176.504C185.765 175.616 186.438 174.836 187.392 174.448C188.077 174.168 188.822 174.073 189.507 173.781C190.508 173.358 190.02 172.899 190.038 171.946C190.097 169.568 190.127 167.607 187.797 166.314Z" fill="#832C28" stroke="white" stroke-width="0.266659"/>
<path d="M179.04 189.739C177.884 188.953 177.056 186.885 175.715 187.838C175.477 186.295 174.338 185.705 172.872 185.914C171.067 186.17 169.786 186.545 167.908 186.188C166.484 185.914 166.633 185.991 166.019 187.046C165.692 187.618 165.155 188.029 164.553 188.279C163.189 188.851 161.431 188.756 160.12 188.077C160.007 189.143 160.233 190.288 159.732 191.289C159.297 192.153 158.773 192.725 158.737 193.756C160.138 193.845 162.527 194.119 163.481 192.785C165.233 192.475 166.288 193.303 166.413 194.977C166.985 195.693 169.494 195.681 168.54 197.474C167.968 198.547 166.264 198.446 165.34 197.999C165.239 198.982 164.643 201.098 166.198 200.812C166.234 201.717 166.156 202.629 166.186 203.535C166.699 203.523 167.319 203.612 167.622 204.083C168.677 205.716 166.431 208.487 165.984 210.03C165.847 210.507 165.763 210.99 165.721 211.478C165.048 211.329 164.321 211.276 164.297 212.068C164.273 212.95 166.055 213.487 166.472 214.512C166.782 215.274 166.3 216.639 167.581 216.562C167.414 217.724 168.338 218.147 169.321 218.314C170.048 218.439 171.174 218.284 171.383 219.035C171.609 219.851 172.396 220.334 173.141 220.608C174.946 221.281 177.247 221.299 179.094 220.769C181.71 220.012 180.274 217.628 181.108 215.805C181.567 214.792 182.687 215.56 182.759 214.446C182.83 213.302 184.284 213.6 185.041 213.558C184.85 212.2 183.188 211.24 184.564 209.941C185.387 209.166 187.085 208.761 186.036 207.349C184.636 205.46 186.632 204.87 186.912 203.237C187.091 202.194 184.648 199.638 186.906 199.232C190.106 198.654 190.965 195.013 188.915 192.641C188.003 191.587 186.608 190.401 185.178 190.294C183.235 190.157 180.768 190.913 179.04 189.739Z" fill="#832C28" stroke="white" stroke-width="0.266659"/>
<path d="M158.877 192.855C159.068 192.283 159.467 191.818 159.735 191.288C160.236 190.287 160.01 189.142 160.123 188.076C161.303 188.684 162.804 188.803 164.08 188.445C165.486 188.046 166.124 185.966 167.137 186.068C169.109 186.27 170.462 186.407 172.405 185.996C173.99 185.662 175.444 186.038 175.718 187.837C176.332 187.402 177.094 187.092 177.857 187.081C177.869 185.74 176.802 184.894 176.951 183.398C177.035 182.558 176.999 181.723 176.951 180.877C176.88 179.679 176.361 178.267 177.72 178.154C179.186 178.029 178.632 175.937 178.233 174.757C177.923 173.851 176.832 171.497 175.718 171.396C175.724 172.171 176.29 172.761 176.421 173.506C175.247 173.881 174.121 172.945 172.953 173.44C172.023 173.833 171.356 174.751 170.355 175.001C169.353 175.252 168.817 174.513 168.364 173.774C167.762 172.802 166.916 172.516 165.808 172.492C165.319 172.516 164.836 172.445 164.372 172.296C163.221 171.873 163.913 172.016 163.18 172.636C162.614 173.118 161.601 172.928 160.927 172.922C159.795 172.916 158.615 173.261 157.495 173.023C156.094 172.725 155.123 173.023 153.764 172.939C152.811 172.886 149.104 171.068 149.968 173.613C150.463 175.067 152.274 175.758 153.145 176.962C154.509 178.845 152.572 180.138 151.22 181.193C149.027 182.909 148.914 186.157 146.673 187.992C147.978 187.891 147.591 188.564 147.597 189.709C148.77 189.81 149.956 189.756 151.124 189.858C151.166 190.966 151.059 192.074 151.101 193.183C151.744 193.219 152.388 193.254 153.031 193.296C153.037 193.94 153.037 194.583 153.043 195.227C154.313 195.012 154.408 196.752 155.546 196.484C155.677 195.501 155.314 194.536 155.481 193.558C155.975 193.552 156.47 193.57 156.964 193.612C158.341 193.713 158.448 194.154 158.877 192.855Z" fill="#832C28" stroke="white" stroke-width="0.266659"/>
<path d="M149.007 184.876C149.591 183.565 150.026 182.117 151.206 181.193C152.172 180.436 153.453 179.828 153.59 178.458C153.787 176.527 151.302 175.538 150.306 174.245C149.818 173.613 149.621 172.695 150.443 172.23C150.968 171.932 151.48 170.872 152.029 170.276C152.642 169.614 152.273 168.321 153.149 167.922C154.776 167.177 153.036 166.021 152.487 164.942C151.731 163.452 152.815 162.207 151.379 160.944C150.336 160.026 149.305 161.051 148.322 160.449C147.512 159.954 147.22 160.527 146.534 159.609C145.807 158.632 145.187 157.738 144.091 157.124C142.905 156.462 141.546 156.474 140.229 156.456C139.139 156.439 137.697 155.574 136.708 156.296C135.766 156.987 135.212 158.34 134.753 159.376C134.08 160.89 132.798 160.086 131.642 160.741C133.788 161.122 133.513 163.458 135.599 163.697C136.952 163.852 138.275 164.191 139.622 164.376C140.176 164.46 140.736 164.495 141.296 164.489C141.38 165.121 141.35 165.765 140.986 166.313C140.796 166.73 140.48 166.951 140.033 166.974C139.246 167.022 139.419 167.63 139.044 168.119C138.519 168.804 138.644 169.12 137.709 169.346C136.505 169.638 135.182 169.191 133.954 169.298C132.441 169.43 130.808 169.704 129.33 170.055C129.932 171.718 130.146 173.518 129.968 175.276C131.142 175.144 132.9 175.037 133.096 176.622C133.245 177.85 132.322 178.934 132.447 180.15C134.568 180.323 135.402 179.477 136.523 181.574C137.393 183.195 139.806 182.444 141.254 182.57C142.267 182.659 140.676 187.182 142.84 187.963C145.718 189.011 147.881 187.408 149.007 184.876Z" fill="#832C28" stroke="white" stroke-width="0.266659"/>
<path d="M129.347 170.073C128.125 170.359 127.285 170.854 126.093 170.162C125.151 169.614 124.353 168.738 123.239 168.541C121.201 168.178 119.788 167.677 118.567 165.919C120.682 164.96 117.893 163.548 116.827 163.327C115.2 162.987 114.949 162.177 114.687 160.646C114.634 161.599 114.467 162.57 114.091 163.458C113.662 164.459 112.661 164.894 112.238 165.764C111.374 167.546 108.996 167.951 107.393 168.941C105.653 170.019 105.707 171.73 105.796 173.613C105.844 174.596 106.011 175.4 106.648 176.199C107.566 177.343 108.609 176.169 108.728 178.022C108.978 177.558 109.038 176.956 108.996 176.437C109.711 176.413 110.426 176.425 111.141 176.497C110.945 177.224 110.265 177.284 109.938 177.909C109.634 178.493 109.723 179.185 109.687 179.81C109.586 181.324 109.306 182.849 108.448 184.125C109.741 184.5 110.51 183.356 111.565 182.885C112.595 182.42 112.721 183.219 113.698 183.421C115.849 183.862 118.132 183.529 120.301 183.439C119.55 181.777 121.004 180.68 121.612 179.292C121.945 178.535 121.802 177.784 121.314 177.123C121.636 176.825 122.017 176.688 122.458 176.717C123.489 176.741 123.096 177.385 123.31 178.195C123.9 177.141 124.746 176.08 126.117 176.479C126.165 177.778 127.273 179.018 128.655 178.875C128.429 177.611 129.603 176.67 129.198 175.365C130.962 175.299 129.782 171.289 129.347 170.073Z" fill="#832C28" stroke="white" stroke-width="0.266659"/>
<path d="M106.158 170.02C107.475 167.773 111.081 168.143 112.237 165.759C112.773 164.651 113.917 164.156 114.328 162.798C114.525 162.154 115.234 159.353 113.882 159.288C112.809 159.234 113.143 160.271 112.386 159.091C112.064 158.584 111.659 158.12 111.158 157.78C110.103 157.059 108.792 157.047 107.559 157.047C105.026 157.053 101.177 156.785 99.8894 154.121C99.4663 153.251 100.342 152.995 100.67 152.345C101.391 150.903 96.9992 151.284 96.1172 151.219C94.8539 151.123 93.811 152.297 92.8635 153.197C92.0173 153.996 93.0483 155.045 93.5071 155.79C94.2341 156.969 94.246 158.334 93.3641 159.437C92.941 159.961 92.3927 160.378 91.8028 160.706C90.9447 161.183 91.1056 161.397 90.9268 162.339C90.6169 163.948 90.1998 164.156 88.9662 165.139C88.2332 165.723 87.8638 168.804 88.7636 169.102C88.7755 168.393 89.9495 167.97 90.462 167.773C91.4333 167.404 92.7563 166.719 92.8278 167.994C92.941 169.859 95.2412 172.487 97.0349 173.155C97.3687 175.133 95.4081 175.234 94.544 176.516C93.7633 177.678 95.4498 177.636 94.4904 178.798C93.7455 179.084 92.4523 179.68 92.3093 180.526C92.8814 180.592 93.4535 180.604 94.0315 180.556C94.7883 180.687 95.0744 180.407 94.8837 179.728C95.122 178.863 96.0934 178.423 96.9217 178.691C98.4651 179.185 97.0111 181.682 98.1612 181.76C99.4603 181.849 99.4663 180.228 99.3531 179.34C99.2875 178.816 99.1683 178.279 98.9717 177.785C99.5974 177.308 100.795 177.052 101.177 177.982C101.981 176.218 102.422 176.766 103.203 178.142C103.787 179.167 105.551 178.619 106.474 178.709C106.319 177.576 104.71 176.7 107.064 176.724C105.819 175.115 105.014 171.975 106.158 170.02Z" fill="#832C28" stroke="white" stroke-width="0.266659"/>
<path d="M88.601 165.604C88.9645 164.83 89.9538 164.758 90.4424 164.061C90.7642 163.602 90.8238 162.857 90.9251 162.333C91.1039 161.391 90.943 161.183 91.8011 160.7C92.5639 160.277 93.2849 159.693 93.7021 158.912C94.6794 157.113 93.2969 155.825 92.5996 154.27C92.0574 153.06 94.5721 151.892 95.2038 151.13C93.5471 150.927 92.3791 150.313 91.3959 148.931C90.9549 150.164 90.5914 150.879 89.5366 149.652C88.9109 148.919 88.5593 147.959 88.3031 147.042C87.9872 145.903 88.3448 145.081 87.0934 145.033C85.7942 144.986 84.5607 144.509 83.7085 143.508C83.4285 144.068 82.904 143.877 82.326 143.889C82.612 145.552 83.2556 147.566 82.3498 149.151C81.015 151.487 79.2213 150.391 77.3084 149.825C76.2715 149.521 75.169 149.515 74.0964 149.544C73.5541 149.562 73.0059 149.574 72.4636 149.586C71.1406 149.598 71.7425 150.182 71.5816 151.285C71.385 152.649 67.6426 153.543 66.3077 153.34C66.266 154.646 66.0694 155.933 66.0753 157.244C66.0813 158.114 66.1111 158.984 66.0872 159.848C66.0574 161.099 66.272 160.682 67.3208 161.034C70.0918 161.951 72.6543 163.251 75.6636 162.512C78.6075 161.791 79.9602 160.694 82.7849 162.607C84.5845 163.829 87.0576 166.206 86.2948 168.638C87.0338 168.667 87.7787 168.811 88.4878 169.025C88.315 167.946 88.1243 166.623 88.601 165.604Z" fill="#832C28" stroke="white" stroke-width="0.266659"/>
<path d="M86.0937 166.277C84.7886 163.315 81.1059 160.502 77.8343 161.724C75.7784 162.492 73.9906 162.939 71.7797 162.522C69.7894 162.147 68.0374 161.021 66.047 160.699C65.9219 162.427 64.8492 163.422 64.3487 164.983C63.9673 166.175 62.0722 165.865 62.394 167.713C62.6503 169.167 65.2604 168.738 65.3975 170.007C65.5643 171.568 67.4534 171.115 68.5439 171.211C68.8419 172.933 61.7743 177.7 66.5535 178.463C66.7204 177.593 65.7371 176.473 66.8455 175.907C67.8944 175.37 69.122 176.008 70.2125 175.966C70.1291 175.239 70.3197 173.916 71.3686 174.506C71.7678 174.733 72.0717 175.12 72.2744 175.525C72.6617 176.3 73.1623 176.121 74.0204 176.157C75.683 176.222 77.3456 176.127 79.0023 176.056C80.1703 176.002 79.7829 175.513 79.8187 174.482C79.8902 172.581 80.0034 171.497 81.9104 172.057C83.5193 172.528 86.4989 170.478 85.4203 168.672C86.7611 168.446 86.6419 167.528 86.0937 166.277Z" fill="#832C28" stroke="white" stroke-width="0.266659"/>
<path d="M64.2189 165.633C64.356 164.31 65.381 163.38 65.8041 162.171C66.4298 160.395 66.0365 158.232 66.0842 156.384C66.1199 154.942 67.0674 153.446 65.3691 153.184C63.4681 152.892 61.4539 153.107 59.5946 152.743C57.1811 152.266 57.8128 149.048 55.8999 148.387C54.571 147.928 52.968 148.631 51.8834 147.553C51.1087 148.059 50.0182 150.979 49.8811 151.957C49.3627 151.48 48.7787 151.379 48.5463 152.141C48.296 152.952 48.8085 154.072 47.8908 154.15C47.8372 155.347 49.4044 156.11 49.2137 157.326C48.9456 159.084 46.3354 158.029 45.2866 158.875C43.8505 160.031 42.5394 160.031 40.7576 159.787C39.3513 159.59 37.2894 159.263 37.0332 161.146C36.8842 162.266 37.6291 163.887 35.9963 163.565C33.6424 163.1 34.0655 164.852 33.9582 166.61C33.8927 167.671 33.7556 168.827 34.1132 169.852C34.3039 170.4 34.6912 170.847 35.2931 170.943C36.0797 171.068 36.33 172.075 36.5147 172.915C38.3918 173.052 40.0604 173.118 41.866 172.504C41.8422 170.74 41.4191 169.304 39.4824 169.131C38.6421 169.059 36.6101 168.398 38.4455 167.927C40.3882 167.433 40.3405 165.12 42.2534 164.673C43.5048 164.375 44.1425 165.079 44.3093 166.271C44.4464 167.242 46.4963 167.45 46.9433 166.354C47.128 165.895 47.1697 165.359 47.2174 164.876C48.743 165.055 48.7727 164.828 48.8264 163.434C48.8681 162.332 49.7024 162.731 50.5307 162.105C51.222 161.587 51.8179 160.949 52.6403 160.621C53.3792 161.825 51.8834 162.516 51.806 163.637C51.7225 164.852 52.8607 165.752 52.8965 166.944C51.9013 166.986 50.6439 166.992 49.8573 167.707C48.5225 168.916 49.5117 169.941 50.6022 170.668C50.8525 169.637 50.5128 168.672 51.7762 168.547C53.0336 168.416 52.7892 169.31 52.5568 170.233C52.378 170.943 51.8894 171.431 51.2398 171.741C50.9717 172.534 51.1683 173.672 52.1754 172.855C52.8846 172.277 52.6522 172.009 53.6176 171.61C54.1479 171.389 55.1133 171.02 55.4292 171.777C55.6437 172.295 55.2802 172.838 55.4351 173.362C55.6437 174.071 56.3111 173.761 56.1443 174.792C56.9964 174.828 57.6698 174.238 58.5041 174.178C59.4695 174.101 60.3753 174.75 61.3109 174.893C62.7768 175.126 63.0748 174.625 62.9794 173.243C63.629 173.177 63.5932 172.42 63.5217 171.95C63.1999 170.007 60.6732 165.967 64.2189 165.633Z" fill="#832C28" stroke="white" stroke-width="0.266659"/>
<path d="M36.5114 172.923C36.5233 173.185 36.5293 173.441 36.5412 173.704C35.5579 173.495 35.2004 174.127 34.7594 174.854C34.5806 175.146 34.3482 175.42 33.9907 175.485C33.2458 175.616 33.5199 176.141 33.4782 176.88C33.359 178.924 31.0111 182.767 28.401 182.112C28.2043 184.025 30.0993 186.641 30.725 188.393C31.1124 189.472 31.5176 190.693 31.3746 191.855C31.2316 193.029 29.8252 193.208 29.8788 194.12C29.9682 195.604 31.7202 195.335 32.7094 195.824C33.9907 196.456 33.9549 197.975 33.8 199.191C33.7106 199.87 33.5735 200.538 33.502 201.217C33.3828 202.361 33.9549 202.206 35.0156 202.349C36.3028 202.516 35.8261 201.312 36.136 200.383C36.4101 199.56 36.9703 198.941 37.6794 198.458C38.0489 200.43 40.7782 199.286 41.6184 200.925C42.3574 202.367 41.9939 204.691 44.1153 204.948C43.6982 202.516 47.3035 203.303 47.1605 205.228C48.7277 204.775 49.8302 203.44 51.2961 202.79C52.631 202.2 51.7788 200.055 53.4534 199.245C52.9051 198.583 52.4701 197.808 51.8086 197.242C51.314 196.819 49.8838 196.497 50.8075 195.621C51.0816 195.401 51.3974 195.323 51.749 195.389C51.8325 194.859 51.904 194.328 51.9576 193.798C51.9874 192.868 51.5107 192.558 50.9803 191.927C50.3427 191.164 50.7538 190.83 49.4488 191.134C48.5728 191.343 47.7325 191.706 46.8208 191.718C45.5574 191.742 46.1832 190.24 46.356 189.358C46.6122 188.047 46.9817 186.736 47.0234 185.395C47.0949 183.179 46.2547 183.31 44.6576 182.577C43.4539 182.023 43.728 180.336 43.7756 179.281C43.8293 178.137 43.9842 176.85 43.6148 175.742C43.4896 175.354 43.2572 174.985 42.846 174.854C42.6196 174.788 42.3872 174.788 42.1607 174.836C41.8389 174.115 41.8687 173.28 41.8568 172.512C40.0571 173.126 38.3885 173.06 36.5114 172.923Z" fill="#832C28" stroke="white" stroke-width="0.266659"/>
<path d="M55.3402 148.229C57.3127 148.735 57.0028 150.821 58.3258 152.114C59.2554 153.02 60.6141 152.793 61.7881 152.817C63.2719 152.847 64.8511 153.002 66.2991 153.33C67.6698 153.538 68.7663 152.942 69.9998 152.466C70.8996 152.12 71.4121 152.43 71.579 151.274C71.7399 150.171 71.138 149.587 72.4609 149.575C74.064 149.564 75.7385 149.355 77.3058 149.814C78.432 150.148 79.5345 151.041 80.7502 150.529C82.818 149.653 83.9145 143.968 81.5368 143.873C78.1877 143.735 77.5978 140.982 75.077 139.522C73.1403 138.396 71.0784 136.954 71.0129 134.624C69.0583 134.463 67.1334 134.058 65.2265 133.629C64.3326 133.426 63.4387 133.206 62.5329 133.069C61.9072 132.979 60.6677 133.361 60.8823 132.544C59.6666 132.562 58.2841 132.008 58.2125 133.402C58.153 134.493 57.9205 135.559 57.849 136.65C57.7596 138.039 57.3008 137.079 56.5142 137.907C56.0851 138.36 56.0613 138.992 55.7931 139.522C55.4236 140.243 55.0065 139.689 54.8158 140.696C54.6311 141.662 54.9946 142.538 54.2854 143.223C53.0757 144.391 53.3439 146.602 51.8779 147.555C52.8969 148.568 54.1186 147.913 55.3402 148.229Z" fill="#832C28" stroke="white" stroke-width="0.266659"/>
<path d="M64.4046 127.622C64.7502 124.791 66.2698 122.306 66.8121 119.529C66.9492 118.826 66.9611 118.123 67.0445 117.42C67.1339 116.657 66.5618 116.967 65.954 116.717C65.4475 116.508 65.0482 116.144 64.7085 115.721C64.0173 115.966 63.4511 115.948 62.7956 115.608C61.7706 115.078 61.0257 114.625 59.9114 115.274C58.8209 115.912 57.9627 116.806 56.5862 116.49C55.4539 116.228 54.2502 115.447 53.0762 115.99C51.5685 116.687 51.0382 115.543 49.6139 115.727C50.0787 115.882 50.2694 115.745 50.18 115.304C48.9822 115.572 47.3971 115.763 48.0169 117.158C48.3029 117.807 50.5555 120.25 50.5495 120.268C51.068 120.638 51.5566 121.049 52.0691 121.43C51.932 122.259 52.5578 122.712 53.249 122.95C54.2859 123.307 55.6267 123.367 55.8353 124.69C56.0677 126.162 55.7519 127.348 56.5623 128.724C56.8901 129.284 57.2715 129.815 57.5873 130.387C58.213 131.537 57.6826 132.58 59.1009 132.544C59.9412 132.526 60.8172 132.955 61.0257 131.984C61.1688 131.323 61.2462 130.643 61.4131 129.982C61.8004 128.492 62.9148 127.836 64.4046 127.622Z" fill="#832C28" stroke="white" stroke-width="0.266659"/>
<path d="M71.8377 133.383C72.8627 131.333 72.9401 128.699 74.0426 126.733C74.2094 126.411 74.4657 126.202 74.8113 126.095C74.9901 125.511 75.0497 124.921 75.145 124.325C75.3476 122.996 76.3488 122.412 77.5168 121.947C77.3797 121.316 75.6158 119.897 75.0556 119.415C74.3405 118.801 73.5241 118.712 72.6243 118.598C71.1345 118.402 69.9665 117.615 68.5482 117.222C66.4863 116.656 67.118 117.907 66.8022 119.534C66.5102 121.036 65.9262 122.448 65.3958 123.878C64.9489 125.088 64.8535 127.466 63.6855 127.764C61.1052 128.419 61.421 130.892 60.7715 132.948C64.2159 132.912 67.5828 134.337 71.0153 134.623C71.0034 133.991 71.0928 133.455 71.8377 133.383Z" fill="#832C28" stroke="white" stroke-width="0.266659"/>
<path d="M47.72 116.461C45.2827 116.556 43.2804 116.52 41.2007 115.126C40.5035 114.655 39.5798 114.119 39.3533 113.237C39.0971 112.248 39.3116 111.27 38.2688 110.68C36.5466 109.709 34.5085 111.008 33.3584 108.863C32.6731 107.588 31.7971 103.684 33.4597 103.088C32.1725 101.789 31.672 100.74 29.6101 101.307C28.2335 101.688 26.5054 102.677 26.0703 104.143C25.5459 104.167 24.7534 104.316 24.3064 103.923C23.7701 103.446 22.7689 104.238 22.0538 104.447C20.0575 105.031 18.1983 104.387 16.196 104.429C18.2281 105.043 15.6418 106.914 15.8623 108.082C13.5322 107.504 13.1866 110.996 14.289 111.044C16.0649 111.127 18.9134 110.931 19.3305 113.237C18.2817 113.183 16.3032 112.885 15.7967 114.143C15.4213 115.072 13.8361 114.625 12.8409 114.619C11.8398 114.613 11.7802 114.959 10.9042 115.352C9.40846 116.02 7.16185 120.656 10.1534 120.465C9.92691 117.045 13.2581 117.378 15.6954 117.587C16.3628 117.647 17.0362 117.7 17.7096 117.676C17.6441 116.687 17.4951 115.4 18.5558 115.352C19.259 115.323 20.0039 115.281 20.6773 115.555C21.3685 115.841 21.7261 116.645 22.3756 116.89C23.5317 117.325 24.9023 115.722 26.0346 115.585C27.0774 115.46 26.1299 118.427 28.1858 117.945C28.2156 117.045 28.5017 116.151 28.9486 115.376C30.2418 115.43 29.7233 115.084 30.4027 114.345C31.3085 113.35 31.4276 114.506 31.815 115.174C32.2262 115.889 32.8519 116.502 33.6981 116.64C32.6195 117.069 32.6612 118.713 33.8351 118.976C34.9555 119.226 36.046 118.767 37.1485 118.684C38.2092 118.6 39.2103 119.011 40.1698 119.399C42.172 120.203 44.0253 120.221 46.1587 120.09C47.6306 120.001 46.8738 119.083 48.5722 119.387C49.3052 119.518 49.9488 119.84 50.5447 120.269C50.6639 119.828 49.4661 119.417 49.0847 118.97C48.4649 118.249 48.0657 117.343 47.72 116.461Z" fill="#832C28" stroke="white" stroke-width="0.266659"/>
<path d="M17.3334 104.48C19.8124 104.826 21.779 104.719 24.0673 103.634C23.2449 102.406 23.0066 100.797 22.8755 99.3613C22.7682 98.1278 23.7813 96.7273 23.3045 95.5653C22.9827 94.7906 23.1436 93.7537 22.22 93.0148C20.9745 92.0196 20.2594 91.1734 20.7063 89.5525C21.1771 87.8541 20.7659 87.0377 19.7171 85.7625C18.8471 84.7077 19.6337 83.0272 17.9949 82.6279C16.7613 82.33 15.3967 82.4432 14.1512 82.5743C13.2037 82.6696 12.2562 82.759 11.3027 82.8425C10.1824 82.9438 9.27065 82.6637 9.57457 83.8257C9.88444 85.0116 7.90003 86.1438 7.51865 87.2344C7.05979 88.5394 7.29816 89.9756 7.65571 91.2687C8.04902 92.6989 8.63302 94.0636 9.10975 95.464C9.48518 96.5724 9.39579 98.086 9.92616 99.0872C10.9154 100.935 15.5635 100.166 15.9568 102.138C16.1356 103.038 14.3062 102.716 14.2883 103.044C14.1929 104.558 16.374 104.349 17.3334 104.48Z" fill="#832C28" stroke="white" stroke-width="0.266659"/>
<path d="M18.7303 82.9581C19.6302 83.7328 19.1177 85.2107 20.1069 86.1761C21.0842 87.1296 21.0544 88.3095 20.7088 89.5549C19.9997 92.0935 22.6992 92.6001 23.1997 94.799C24.9517 92.9517 27.0196 93.4165 27.3831 90.5918C27.6691 88.3691 28.8073 86.1224 31.4353 87.6778C32.3947 88.2439 32.4484 89.4 32.8774 90.3177C33.5985 91.8671 35.1479 92.4571 36.7509 92.6775C37.4362 91.2712 39.0214 91.2175 39.1227 89.394C39.1584 88.7385 39.0869 88.083 39.1525 87.4275C40.0046 87.0461 40.9641 86.8614 41.8996 86.9806C41.9175 85.6934 41.709 84.0665 43.1213 83.4945C44.4204 82.9641 43.3775 80.9141 44.4263 80.9916C43.9913 80.3659 43.4669 79.7819 42.7876 79.4243C42.43 79.2336 42.0486 79.1204 41.6434 79.0727C40.5767 78.9416 40.9939 78.6794 40.8985 77.7081C39.1346 78.4113 38.5268 78.6318 36.7092 77.9882C35.0525 77.4042 33.4972 78.2623 31.8763 78.5066C30.2614 78.7509 28.9921 77.5651 27.4605 77.1956C25.7205 76.7725 23.8791 76.3315 22.0734 76.4924C20.5717 76.6235 19.8745 77.6545 18.343 77.5233C17.4074 77.4459 16.5254 77.142 15.6197 76.9274C15.0357 76.7844 14.404 76.5997 13.8021 76.5818C12.8367 76.552 13.0989 77.5233 13.1287 78.161C13.1526 78.7211 12.8725 79.2217 13.0155 79.7878C13.1525 80.348 13.5697 80.7651 13.4982 81.373C13.4386 81.8795 13.093 82.5708 13.8617 82.6125C14.7734 82.6542 15.6256 82.3622 16.5195 82.2847C17.2406 82.2311 18.1821 82.4873 18.7303 82.9581Z" fill="#832C28" stroke="white" stroke-width="0.266659"/>
<path d="M16.2316 77.2708C16.8812 77.0801 18.0432 77.6045 18.949 77.533C20.9632 77.3662 20.2362 75.9717 19.3661 74.8514C17.6499 72.6524 16.47 69.3272 16.1482 66.5264C16.0052 65.2869 16.1124 63.9163 16.2078 62.6768C15.4569 62.355 15.3437 62.8019 15.2483 61.92C15.2007 61.473 14.9802 61.0857 14.6167 60.8175C13.8837 60.2633 12.8647 60.1799 11.9827 60.0726C9.98043 59.8223 8.4072 57.4982 6.2023 58.6007C4.81977 59.292 7.99006 60.7222 6.30361 61.6339C7.59675 62.4146 7.22132 64.0474 7.54312 65.3227C7.88875 66.6873 9.05079 67.611 9.82549 68.7313C10.1056 69.1365 10.3737 69.5537 10.6359 69.9768C11.2616 70.9839 11.8516 72.0386 12.2926 73.1351C12.5071 73.6715 12.6978 74.2257 12.817 74.7858C12.8706 75.0361 12.9004 75.2924 12.9004 75.5486C12.9064 75.8346 12.817 76.1743 12.8587 76.4544C12.8825 76.6213 12.96 76.7464 12.9362 76.9311C13.8658 76.3769 15.3973 76.7106 16.2316 77.2708Z" fill="#832C28" stroke="white" stroke-width="0.266659"/>
<path d="M12.4279 60.1271C13.1728 60.2284 14.0012 60.3535 14.6149 60.8183C14.9725 61.0924 15.1989 61.4738 15.2466 61.9208C15.342 62.8027 15.4552 62.3558 16.206 62.6776C16.2835 61.6824 18.0892 62.7312 18.9771 62.7014C19.5313 62.6835 20.0914 62.6359 20.6218 62.475C21.0211 62.3498 21.3846 62.1472 21.7243 61.9089C21.9865 61.7301 22.2367 61.5394 22.4811 61.3427C22.6896 61.1759 23.0114 61.1818 23.2796 61.164C23.7146 61.1282 24.1496 61.1342 24.5847 61.1163C24.6085 60.5442 24.674 59.9244 24.9303 59.406C25.3713 58.5002 26.289 58.5777 27.0935 58.9352C28.8872 59.7278 30.806 61.1103 32.4567 62.1711C32.3971 60.1151 32.0813 58.1307 31.2828 56.2298C30.9967 55.5504 30.6869 54.877 30.4247 54.1858C29.5367 54.2751 28.6369 54.1977 27.749 54.2751C26.146 54.4182 24.2271 53.6613 22.9816 55.0558C22.1593 55.9795 21.5395 57.6182 19.9782 57.213C18.8102 56.9091 18.8996 55.324 18.8698 54.3943C18.8221 52.8211 16.9867 53.2442 15.6697 53.0595C14.2574 52.8628 13.0238 52.3086 12.4637 50.9082C10.4554 51.6412 10.7892 52.9999 10.5687 54.7995C9.66287 54.3288 8.95373 53.6077 7.85128 53.7924C6.51046 54.0129 5.57487 54.3228 4.31152 53.5839C4.31152 53.5839 5.56891 55.324 5.6583 55.616C5.86687 55.6696 6.24826 55.3716 6.52834 55.3955C6.55218 55.7173 6.5045 58.5896 6.83821 58.381C7.63675 58.3691 8.38165 58.3333 9.10867 58.7147C9.31724 58.822 9.52581 58.9054 9.72246 59.0246C10.521 59.4954 11.4745 59.996 12.4279 60.1271Z" fill="#832C28" stroke="white" stroke-width="0.266659"/>
<path d="M8.54384 53.7636C9.31258 53.8649 9.91445 54.4549 10.57 54.8005C10.7249 53.5014 10.3435 51.8924 11.7797 51.1952C12.7987 50.6946 12.0478 49.3419 11.9763 48.1679C11.875 46.6185 11.3745 42.3518 13.3648 41.7022C12.459 40.6355 11.6605 40.1111 10.2422 40.4091C8.43658 40.7905 7.63805 39.3305 6.16613 38.6869C4.78956 38.085 3.18654 38.0433 1.78613 38.5796C2.19732 40.5879 2.29862 42.6378 2.37013 44.6759C2.42972 46.41 2.45952 48.0785 2.94222 49.759C2.97201 49.8663 3.32956 51.2786 3.41895 51.2607C3.72882 51.1952 4.24132 52.1487 4.23536 52.3751C4.22344 52.9234 2.89454 52.7923 4.42009 53.4299C4.54523 54.8124 7.67976 53.6504 8.54384 53.7636Z" fill="#832C28" stroke="white" stroke-width="0.266659"/>
<path d="M30.1847 47.5896C31.3408 47.5657 31.2097 45.6886 31.2633 44.6994C31.3408 43.2334 31.7818 42.131 30.3873 41.6721C28.8141 41.1596 27.956 41.0285 26.4543 41.8449C25.2088 42.5183 24.0051 42.5839 22.6166 42.6137C19.9349 42.6733 19.1662 40.081 16.2581 40.8915C13.6361 41.6244 12.2357 41.7257 11.9914 44.7232C11.8185 46.8328 11.5206 50.2712 13.1236 51.9696C13.934 52.8277 15.1557 53.0124 16.276 53.1257C17.5215 53.2568 18.8265 52.935 18.8682 54.389C18.9398 56.6654 20.4832 58.5902 22.2888 55.992C24.2017 53.2508 27.4912 54.4724 30.4231 54.1745C29.5888 51.9755 29.6842 49.8541 30.1847 47.5896Z" fill="#832C28" stroke="white" stroke-width="0.266659"/>
<path d="M33.4745 63.6545C33.987 64.9595 34.5948 66.199 35.4946 67.2836C35.7211 67.5577 38.8497 67.0274 39.7614 67.3551C39.9223 65.8594 40.554 64.5066 40.7149 63.0466C40.8937 61.4257 40.4408 59.8227 40.4527 58.2018C40.4646 56.42 44.8863 57.8741 46.2152 56.6703C47.1389 55.836 46.3821 54.382 47.3296 53.4762C48.003 52.8326 49.3557 52.5942 49.4332 51.462C49.4987 50.4787 48.4737 49.6385 48.2056 48.7267C47.8659 47.5706 48.2294 46.2954 47.5739 45.1989C47.3236 44.7758 46.9244 44.5195 46.4238 44.5255C45.4942 44.5255 45.8577 45.1512 45.7742 45.8663C45.6193 47.1118 45.2081 47.2727 44.1176 47.5051C40.2858 48.3334 37.2467 48.4586 33.3613 47.8507C32.5091 47.7196 31.651 47.6064 30.7869 47.5826C29.7798 47.5528 29.9824 48.4466 29.8632 49.2869C29.6249 50.9555 29.8275 52.5942 30.4234 54.1674C30.9716 55.6274 31.6987 56.9981 32.0443 58.5236C32.2469 59.4115 32.3601 60.3233 32.4138 61.235C32.4853 62.3911 33.0573 62.5878 33.4745 63.6545Z" fill="#832C28" stroke="white" stroke-width="0.266659"/>
<path d="M39.2203 75.0502C37.9569 73.9418 36.5863 73.2386 34.9297 72.9287C34.8403 71.0575 35.0369 69.5856 35.5554 67.917C35.8057 67.1006 33.8868 64.6991 33.4816 63.6562C32.8499 62.0472 31.5925 61.8923 30.2815 60.9984C29.2208 60.2774 25.979 57.2739 24.9361 59.4014C24.4236 60.4442 25.1506 61.0878 23.7324 61.1415C22.4929 61.1891 22.475 61.6182 21.5215 62.1843C19.8827 63.1557 17.94 62.5299 16.2536 62.1426C15.902 65.1162 16.5575 67.2913 17.2071 70.116C17.4931 71.3555 17.6719 72.5771 18.4287 73.6438C19.1498 74.6569 20.2701 75.6401 20.4548 76.9333C22.2843 75.9202 24.9123 76.6115 26.8133 77.0465C28.7679 77.4934 30.4186 78.876 32.4447 78.3992C33.4339 78.1668 34.4053 77.7914 35.4362 77.7854C36.4969 77.7795 37.367 78.3933 38.3919 78.5184C39.2799 78.6316 40.1142 78.0238 40.8948 77.7139C40.7756 76.5281 40.0843 75.807 39.2203 75.0502Z" fill="#832C28" stroke="white" stroke-width="0.266659"/>
<path d="M51.7354 85.0612C53.0464 86.2292 53.7794 86.8549 55.5851 87.0456C57.0689 87.2065 58.6302 87.4329 59.9889 88.0825C60.555 88.3507 61.1986 88.7559 61.3774 89.3995C61.6694 90.4244 60.4895 90.1205 60.5073 91.1515C60.5252 92.3195 61.717 91.36 62.4739 91.366C63.5108 91.372 64.3629 92.0632 65.2806 92.4565C65.2508 91.9023 65.2747 91.3541 65.3343 90.8058C65.4594 89.5306 65.7633 90.0192 66.4069 89.1253C67.0446 88.2434 67.2829 87.3614 68.2245 86.7298C68.737 86.3901 69.9943 85.5975 69.2494 84.8765C68.588 84.2329 68.6714 83.8038 68.8025 82.8265C69.2673 82.5583 69.8692 82.5345 70.3102 82.2127C69.0468 81.1341 69.3567 80.9374 69.6904 79.4C70.0659 77.648 67.4438 77.9221 66.5499 78.2796C65.1436 78.8398 64.3689 78.0949 63.3677 77.1891C62.6526 76.5455 61.7766 76.5574 60.8708 76.6826C59.4168 76.8792 59.2857 76.8792 59.0831 75.449C58.5944 71.8795 58.0104 68.9118 53.9582 68.0298C52.9928 67.8153 51.0918 67.4697 50.2873 68.2801C49.5901 68.9833 49.8225 69.4005 48.7618 69.6805C47.8858 69.9129 47.0634 70.2884 46.1576 70.4016C42.3795 70.8485 41.0744 66.8976 37.2665 67.0585C35.4013 67.1419 35.4847 68.2027 35.3298 69.758C34.6445 69.8772 34.8888 71.5517 34.8948 72.1596C34.9007 73.3991 35.9555 73.0892 36.9626 73.5421C38.2498 74.1142 39.7157 75.1868 40.4785 76.3906C40.848 76.9686 40.8957 77.6539 40.9255 78.3214C40.9791 79.5549 41.8074 78.9232 42.7788 79.4357C43.2853 79.7039 43.7084 80.0972 44.0719 80.5382C44.6738 81.2771 45.7047 81.1877 46.5986 81.5572C48.5294 82.3438 50.1979 83.6906 51.7354 85.0612Z" fill="#832C28" stroke="white" stroke-width="0.266659"/>
<path d="M68.8174 82.8276C68.7459 83.3996 68.7339 83.9717 68.7697 84.5498C69.1332 84.7285 69.6159 85.0623 69.461 85.545C69.2107 86.3316 68.2095 86.6295 67.6553 87.142C66.7495 87.9703 66.6959 89.4005 65.4385 89.9071C65.3432 90.7533 65.224 91.6054 65.2836 92.4576C65.9868 92.7615 66.7793 92.982 67.3931 93.4647C69.0736 94.7817 70.6766 95.896 73.0007 95.759C74.133 95.6934 74.8302 94.5672 76.0161 95.175C77.2258 95.7947 77.4403 97.3739 77.488 98.5777C77.8336 97.3143 77.5059 95.9795 77.3032 94.7221C77.1721 93.8878 77.0708 93.0356 77.1483 92.1894C77.8336 92.1596 78.5547 92.0822 79.2221 92.3027C80.1279 92.6006 80.1696 93.274 80.6761 93.9355C81.7905 95.4074 82.0468 92.976 82.2792 92.3325C82.6546 91.2956 85.2051 91.7067 86.2837 91.6233C87.994 91.4863 86.8499 89.6866 86.2718 88.6259C84.8476 86.0038 86.6949 84.4544 88.9475 83.3103C88.6257 83.5427 88.4886 83.8585 88.5303 84.2518C89.013 83.1672 91.1226 82.5892 92.1237 82.1661C92.2608 80.1698 91.7423 78.972 93.8459 78.0066C96.4441 76.8207 96.1939 71.8984 95.0497 69.7829C94.1916 68.1978 92.8388 68.0309 91.6291 69.33C90.2823 70.7781 89.7103 70.2001 88.0357 70.0809C83.3697 69.7352 83.6915 76.4572 83.8107 79.3712C81.5641 79.842 81.8799 76.5943 80.3663 76.5287C79.3592 76.487 77.8217 77.0889 77.0887 76.5287C76.5822 76.1414 75.736 75.5752 75.0805 75.9924C73.9423 76.7194 74.1151 79.0912 74.0317 80.2353C73.978 80.9981 71.9996 80.7836 71.2189 81.308C70.3548 81.8801 69.741 82.2912 68.8174 82.8276Z" fill="#832C28" stroke="white" stroke-width="0.266659"/>
<path d="M82.5524 91.7352C82.1531 92.4206 82.2008 94.3871 81.3069 94.3096C80.425 94.2321 80.419 93.0641 79.8171 92.6112C79.251 92.1881 78.5419 92.1464 77.8625 92.1643C76.7005 92.1941 77.07 92.9271 77.1832 93.8984C77.356 95.4299 77.9042 97.0449 77.4811 98.5764C77.5288 99.8278 78.0592 107.712 77.1057 107.885C78.0651 109.327 78.8815 110.441 80.717 110.751C82.4988 111.055 83.6847 111.46 84.7275 113.063C85.0672 113.588 85.2996 114.166 85.4009 114.779C85.6095 116.049 85.234 116.079 86.5748 116.281C87.576 115.846 88.6725 115.769 89.7511 115.781C90.8893 115.792 91.9739 116.257 92.2897 115.185C93.124 112.342 96.9259 117.169 98.5409 116.77C99.2858 116.585 99.0355 116.031 99.4824 115.512C99.989 114.928 100.788 114.714 101.526 114.66C102.498 114.589 102.891 113.826 103.91 113.725C104.881 113.629 105.704 113.617 106.371 112.819C106.723 112.396 107.027 111.889 107.563 111.663C108.189 111.401 109.631 111.77 109.702 111.019C109.851 109.553 107.664 108.981 106.705 108.433C105.322 107.634 103.898 107.098 102.313 106.883C101.258 106.74 100.204 107.122 100.102 105.96C100.025 105.06 99.7208 104.196 99.3096 103.397C98.5647 101.943 97.498 100.686 96.5863 99.3392C96.038 98.5347 95.5494 97.6885 95.2157 96.7648C94.8224 95.6802 95.174 94.5659 94.2145 93.9401C92.6234 92.9032 91.3482 91.7889 89.3757 91.5743C87.1171 91.33 84.8348 91.9021 82.5524 91.7352Z" fill="#832C28" stroke="white" stroke-width="0.266659"/>
<path d="M95.567 97.5631C96.3596 99.2496 97.6229 100.662 98.636 102.217C99.1306 102.974 99.5775 103.779 99.8517 104.643C100.197 105.733 99.661 106.615 100.942 106.734C102.647 106.895 110.817 108.647 109.607 111.418C110.179 111.424 110.745 111.448 111.317 111.49C112.461 111.567 112.044 111.281 112.265 110.328C112.431 109.613 112.753 108.897 113.456 108.582C114.166 108.266 115.018 108.302 115.775 108.29C116.955 108.266 117.086 107.11 118.593 107.515C120.596 108.051 121.984 108.218 122.282 105.864C122.604 103.332 125.44 106.788 126.084 107.628C126.114 107.062 126.239 106.514 126.459 105.989C125.941 105.62 125.685 105.03 125.661 104.416C125.625 103.528 124.91 103.23 124.672 102.295C124.254 100.644 124.844 98.5762 123.945 97.0685C123.361 96.0852 122.33 95.4595 121.984 94.3213C121.65 93.2189 121.895 91.4192 120.709 90.9544C118.528 90.1022 116.108 88.3264 113.647 88.7614C112.652 88.9402 112.08 89.5718 111.323 90.1439C110.411 90.8292 109.094 90.6266 108.046 90.4836C106.705 90.2989 105.364 89.9771 104.005 90.1022C104.053 91.0438 103.135 91.7112 102.265 91.7291C101.187 91.7529 100.883 90.7577 100.245 90.1082C99.6788 89.5361 98.3797 90.6743 97.6646 90.9842C94.7863 92.2356 94.2679 94.804 95.567 97.5631Z" fill="#832C28" stroke="white" stroke-width="0.266659"/>
<path d="M133.222 116.215C133.61 117.162 134.349 117.728 135.386 118.08C136.321 118.396 136.232 118.73 137.018 119.331C138.103 120.16 139.915 120.678 140.475 122.031C141.905 121.894 143.001 123.145 144.432 122.663C146.297 122.031 148.192 120.088 150.045 121.93C150.307 120.398 150.039 118.896 151.749 118.503C153.108 118.187 154.52 118.324 155.903 118.283C157.518 118.235 158.757 117.341 160.104 116.566C160.498 115.708 160.265 114.826 159.967 113.992C160.587 113.766 161.236 113.64 161.88 113.533C161.385 111.847 160.408 110.458 158.537 110.226C157.131 110.053 157.524 110.297 157.172 111.418C156.928 112.192 156.398 112.884 155.623 113.188C153.692 113.956 153.15 112.103 151.624 111.483C149.89 110.78 148.335 109.29 150.707 107.8C149.336 106.764 149.139 104.803 147.393 104.153C146.654 103.879 145.838 104.01 145.099 103.742C143.967 103.325 143.019 102.425 141.744 102.425C141.631 103.945 142.018 105.584 141.44 107.044C140.612 109.135 138.8 106.924 137.966 106.162C136.422 104.743 133.639 106.048 134.42 108.152C135.546 111.179 130.463 112.401 129.51 114.612C131.083 114.677 132.525 114.528 133.222 116.215Z" fill="#832C28" stroke="white" stroke-width="0.266659"/>
<path d="M159.97 113.987C160.601 115.763 160.303 116.472 158.748 117.372C157.628 118.021 156.543 118.283 155.25 118.289C154.088 118.289 152.896 118.236 151.752 118.504C150.22 118.861 150.447 119.684 150.196 121.066C149.904 122.675 152.389 125.649 153.986 126.245C155.655 126.871 157.699 127.264 158.67 129.01C159.797 127.854 161.811 128.635 162.872 129.624C163.998 130.673 166.096 130.261 167.514 130.482C168.3 130.607 169.057 130.845 169.772 131.197C170.547 131.578 170.38 131.155 170.964 130.649C171.793 129.922 173.014 129.35 173.449 128.271C174.069 126.704 172.502 126.126 171.506 125.405C170.487 124.672 169.874 122.687 169.915 121.46C169.957 120.214 171.197 120.029 172.216 120.065C172.585 118.724 171.733 116.692 173.336 115.959C172.4 115.304 171.292 114.916 170.207 114.595C168.855 114.189 167.919 112.998 166.608 112.515C165.494 112.104 164.707 112.801 163.718 113.17C162.508 113.617 161.179 113.552 159.97 113.987Z" fill="#832C28" stroke="white" stroke-width="0.266659"/>
<path d="M176.106 115.583C173.347 115.482 172.322 116.226 172.31 118.914C172.304 120.499 171.78 119.76 170.642 120.279C169.778 120.672 169.837 121.655 170.022 122.436C170.254 123.431 170.624 124.772 171.494 125.404C172.412 126.065 173.699 126.44 173.55 127.829C173.359 129.569 171.059 130.04 170.296 131.428C172.418 132.31 174.676 132.537 176.506 134.062C176.392 131.834 177.03 129.652 176.672 127.43C176.547 126.637 176.696 126.297 177.411 125.886C178.496 125.266 178.132 124.128 177.775 123.163C177.417 122.192 177.018 121.357 178.001 120.839C178.937 120.35 178.913 118.407 178.889 117.299C178.865 116.107 177.316 113.032 176.106 115.583Z" fill="#832C28" stroke="white" stroke-width="0.266659"/>
<path d="M178.749 115.745C179.107 116.698 178.886 117.991 178.743 118.963C178.648 119.511 178.588 120.065 178.57 120.619C177.796 120.738 177.313 120.947 177.396 121.781C177.504 122.896 178.398 123.98 178.094 125.124C177.873 125.977 176.556 125.953 176.61 126.918C176.741 129.308 176.383 131.674 176.508 134.057C177.247 134.671 176.586 135.714 177.545 135.863C178.558 136.024 179.571 136.214 180.579 136.405C182.295 136.727 184.041 136.971 185.543 137.943C186.657 138.664 187.044 140.046 188.296 139.939C189.327 139.85 191.019 139.957 191.722 140.863C193.021 142.531 194.547 140.815 193.725 139.277C192.831 137.621 191.514 136.489 189.696 136C188.725 135.738 188.451 135.797 188.129 134.713C187.873 133.837 187.896 132.728 188.713 132.144C189.958 131.256 191.83 132.162 192.104 130.208C192.408 128.044 191.305 126.078 191.198 123.95C191.162 123.17 191.353 120.083 190.036 120.119C189.529 118.73 186.877 118.015 185.638 117.598C183.546 116.895 183.588 116.072 183.546 114.034C182.182 113.921 180.835 113.617 179.452 113.671C178.964 113.689 178.094 113.73 177.873 114.285C177.581 115.012 178.552 115.22 178.749 115.745Z" fill="#832C28" stroke="white" stroke-width="0.266659"/>
<path d="M191.313 140.522C190.139 139.891 188.781 139.801 187.494 140.057C187.97 141.065 187.947 142.197 187.517 143.222C186.933 144.616 185.783 143.454 185.843 145.075C185.891 146.511 184.955 145.963 184.049 146.559C183.167 147.137 182.917 148.227 182.863 149.211C182.786 150.641 183.65 150.266 183.572 151.582C183.495 152.953 183.805 153.883 184.037 155.182C185.759 155.557 185.044 154.866 185.986 154.062C186.755 153.406 187.941 153.317 188.9 153.239C189.877 153.162 190.855 153.06 191.826 153.275C193.018 153.537 194.239 154.133 195.485 153.907C196.021 152.286 198.548 149.658 195.36 149.115C193.411 148.782 194.752 146.505 196.069 146.166C196.82 145.969 197.142 145.343 197.594 144.741C198.196 143.949 199.001 143.931 199.948 143.871C199.436 142.107 198.184 139.509 195.92 139.956C194.758 140.183 194.448 140.939 193.59 141.529C192.446 142.304 192.082 140.939 191.313 140.522Z" fill="#832C28" stroke="white" stroke-width="0.266659"/>
<path d="M183.585 150.678C181.828 150.38 183.121 146.566 184.67 146.358C185.91 146.191 185.868 145.642 185.82 144.552C185.79 143.932 186.619 143.902 187.155 143.938C187.53 143.312 187.805 142.609 187.852 141.87C188.18 136.865 180.552 136.292 177.066 135.798C177.138 136.841 177.054 137.884 176.959 138.92C176.834 140.351 175.207 139.475 174.224 139.04C173.389 138.67 172.591 138.217 171.715 137.949C169.993 137.419 169.73 137.836 169.778 139.516C169.814 140.643 169.921 141.763 169.82 142.889C168.932 142.925 168.032 142.806 167.394 142.126C166.25 140.899 164.909 138.634 162.973 140.059C164.361 141.775 164.874 144.498 165.595 146.554C165.988 147.674 168.032 153.27 166.375 153.383C167.15 154.611 166.792 155.147 168.419 155.6C170.451 156.172 172.74 157.078 174.629 158.002C176.208 158.77 175.928 161.005 178.192 159.76C179.301 159.152 181.285 157.465 179.688 156.452C180.618 155.189 182.751 155.845 184.05 155.797C184.14 155.177 183.86 154.605 183.681 154.033C183.347 152.93 183.645 151.804 183.585 150.678Z" fill="#832C28" stroke="white" stroke-width="0.266659"/>
<path d="M166.962 162.78C166.903 163.341 167.236 164.27 166.849 164.753C166.146 165.629 165.115 164.431 164.877 166.171C164.805 166.666 164.96 168.042 164.281 168.03C164.692 169.431 164.358 170.706 163.673 171.952C164.781 172.661 165.931 172.25 167.087 172.655C168.244 173.066 168.309 174.341 169.292 174.878C170.448 175.509 171.551 174.288 172.427 173.727C173.809 172.84 175.013 173.96 176.42 173.507C176.294 172.762 175.722 172.172 175.716 171.397C176.795 171.499 176.414 170.897 176.849 170.212C177.236 169.598 177.903 169.431 178.499 169.091C180.174 168.15 179.614 166.713 178.446 165.766C178.029 165.426 177.665 165.015 177.635 164.443C176.551 164.634 176.336 164.02 175.663 163.353C172.755 163.394 169.882 162.673 166.962 162.78Z" fill="#832C28" stroke="white" stroke-width="0.266659"/>
<path d="M164.281 168.03C163.387 168.012 162.833 167.535 162.291 166.892C161.439 165.891 160.539 165.426 159.269 165.11C157.148 164.58 153.656 163.93 152.315 162.101C152.184 163.567 152.172 164.687 153.132 165.855C153.453 166.248 153.829 166.689 153.87 167.22C153.948 168.137 153.239 167.655 152.798 168.191C152.208 168.906 152.595 169.895 151.731 170.557C150.313 171.635 150.986 172.243 152.339 172.66C153.805 173.107 155.068 172.416 156.475 172.756C157.792 173.071 158.823 173.03 160.169 172.946C161.01 172.893 162.458 173.244 163.167 172.642C164.382 171.611 164.698 169.466 164.281 168.03Z" fill="#832C28" stroke="white" stroke-width="0.266659"/>
<path d="M174.025 157.774C171.915 157.142 169.895 156.147 167.81 155.42C166.409 154.931 167.053 153.311 165.599 153.459C163.37 153.686 161.862 153.263 160.593 151.35C159.497 149.699 158.525 148.573 156.463 148.299C156.499 149.604 154.378 147.721 154.306 149.437C154.229 151.386 153.752 150.557 152.262 151.129C150.891 151.66 150.701 155.015 149.92 156.201C149.336 157.095 148.871 157.982 148.824 159.067C147.095 159.961 148.442 160.7 149.676 160.497C151.243 160.235 151.839 161.63 152.709 162.613C153.734 163.769 155.581 163.846 156.958 164.329C158.18 164.758 159.556 165.038 160.724 165.58C161.88 166.117 162.381 167.553 163.596 167.934C165.259 168.453 164.621 166.605 165.009 165.563C165.491 164.269 167.047 165.598 166.987 163.817C166.934 162.196 168.149 162.75 169.544 162.869C171.29 163.018 173.024 163.292 174.776 163.352C175.956 163.387 176.045 163.685 176.14 162.458C176.2 161.653 176.26 160.819 176.105 160.021C175.896 158.87 175.145 158.102 174.025 157.774Z" fill="#832C28" stroke="white" stroke-width="0.266659"/>
<path d="M148.832 159.061C148.892 157.739 149.577 156.779 150.244 155.695C150.971 154.515 151.043 153.227 151.502 151.958C151.829 151.04 152.723 150.957 153.587 150.885C154.618 150.802 154.273 150.331 154.314 149.42C154.362 148.216 155.512 148.74 156.507 148.71C156.376 148.031 153.301 147.62 152.437 147.185C150.596 146.255 148.951 146.017 146.889 146.065C144.726 146.112 142.569 146.368 140.406 146.315C138.594 146.267 136.49 146.857 134.881 145.755C134.393 145.421 132.17 143.585 131.866 144.533C131.842 144.61 130.722 145.337 130.609 145.439C130.037 145.975 129.488 146.738 129.345 147.519C129.232 148.144 129.417 148.788 129.542 149.39C128.678 149.64 128.011 150.373 127.391 150.975C126.402 151.94 125.168 152.59 123.94 153.013C125.347 153.263 125.15 154.401 125.394 155.456C125.514 155.957 125.859 156.243 126.36 156.356C126.533 157.309 125.949 158.132 125.949 159.067C127.373 158.942 128.565 160.063 129.87 160.426C131.109 160.772 132.832 160.873 134.041 160.295C135.829 159.437 135.317 155.635 138.07 156.094C140.578 156.511 143.272 156.213 145.292 158.001C145.888 158.525 146.329 159.324 146.8 159.955C147.563 160.986 148.176 159.401 148.832 159.061Z" fill="#832C28" stroke="white" stroke-width="0.266659"/>
<path d="M125.935 159.073C125.935 158.376 126.269 157.756 126.358 157.077C126.507 155.945 125.607 156.421 125.381 155.462C125.053 154.05 125.19 153.191 123.438 153.042C123.569 153.853 123.748 154.651 123.974 155.444C121.358 155.682 119.135 156.469 120.637 159.496C121.203 160.634 121.71 161.63 121.465 162.923C121.263 164.007 120.87 165.92 119.344 164.77C119.416 165.426 119.159 165.807 118.569 165.92C119.463 167.207 120.494 167.982 122.032 168.316C122.884 168.501 123.7 168.572 124.457 169.043C125.357 169.603 126.185 170.479 127.3 170.586C128.962 170.747 131.441 169.681 133.11 169.43C134.176 169.269 138.151 170.062 138.67 168.858C138.878 168.369 139.194 167.517 139.558 167.142C140.153 166.522 140.904 166.963 141.256 165.801C141.727 164.234 140.833 164.568 139.635 164.401C138.288 164.216 136.965 163.882 135.613 163.721C133.634 163.489 133.998 161.362 132.269 160.897C131.262 160.623 130.208 160.634 129.236 160.211C128.199 159.758 127.121 158.966 125.935 159.073Z" fill="#832C28" stroke="white" stroke-width="0.266659"/>
<path d="M120.696 164.996C122.735 163.811 120.834 160.14 120.351 158.847C119.326 156.099 121.841 155.629 123.974 155.438C123.754 154.645 123.575 153.847 123.438 153.036C122.866 152.977 122.347 152.715 121.912 152.345C120.935 151.517 120.291 150.116 120.345 148.829C116.734 149.258 115.351 145.879 112.038 145.695C110.226 145.593 108.462 146.046 106.74 145.248C106.025 144.914 105.381 144.419 104.97 143.74C104.267 143.955 103.76 143.418 103.433 142.87C102.879 141.946 102.581 139.914 101.299 140.242C99.4222 140.725 97.998 142.226 96.2341 142.983C93.7372 144.056 89.4108 148.013 92.8254 150.379C94.2377 151.356 96.3473 151.225 97.9801 151.296C99.8274 151.374 101.568 151.249 99.9824 153.096C97.9026 155.533 105.763 157.029 106.955 157.029C108.2 157.029 109.547 156.94 110.703 157.5C111.412 157.845 111.96 158.417 112.377 159.073C113.242 160.426 113.242 158.632 114.207 159.395C115.214 160.193 114.38 162.112 115.554 162.899C116.334 163.423 117.389 163.256 118.188 163.769C118.879 164.228 119.707 165.574 120.696 164.996Z" fill="#832C28" stroke="white" stroke-width="0.266659"/>
<path d="M94.8865 143.592C97.0616 142.573 99.6002 140.338 102.008 140.141C100.619 137.847 100.87 135.636 98.6348 133.89C96.3823 132.132 96.2333 129.063 93.7483 127.561C91.3944 126.143 89.2134 125.499 89.3028 122.305C89.3445 120.893 89.1776 119.785 87.9977 118.897C87.4018 118.45 85.1552 116.9 86.5794 116.281C86.2099 116.227 85.8405 116.179 85.471 116.144C85.4412 116.799 84.9406 116.811 84.303 116.662C84.1838 117.478 83.9455 118.283 83.6356 119.046C83.3853 119.671 83.0754 120.279 82.6821 120.833C82.5748 120.982 81.3711 122.055 81.3711 122.097C83.3674 122.061 84.5354 123.587 85.2267 125.273C85.7213 126.477 85.614 126.673 86.7165 127.18C87.4971 127.538 88.1169 128.282 88.6353 128.938C90.9713 131.882 92.3479 137.591 87.3779 138.288C85.8166 138.508 83.0933 143.008 84.1183 143.925C84.9406 144.658 86.0073 144.986 87.0919 145.028C88.3493 145.075 87.9858 145.904 88.3016 147.036C88.5579 147.954 88.9095 148.913 89.5352 149.646C90.584 150.874 90.9475 150.159 91.3944 148.925C92.1572 146.81 92.6578 144.634 94.8865 143.592Z" fill="#832C28" stroke="white" stroke-width="0.266659"/>
<path d="M85.6057 139.545C86.2076 138.353 87.2087 138.335 88.3767 138.18C89.932 137.971 90.6114 136.392 90.7544 134.986C91.0285 132.245 89.5209 129.456 87.4769 127.686C86.4578 126.81 85.9573 127.209 85.4567 125.839C84.9978 124.587 84.3721 123.216 83.1564 122.519C81.6547 121.667 80.5702 122.674 79.0267 122.37C77.5906 122.09 76.357 121.739 75.4274 123.431C74.8553 124.468 75.2844 125.547 74.3667 126.339C73.5264 127.06 73.294 129.188 72.9067 130.219C72.6147 131.005 72.4418 131.828 72.1677 132.614C71.8817 133.431 71.0951 133.383 71.0295 134.175C70.9282 135.397 71.101 135.921 71.8161 136.827C72.716 137.96 73.8422 138.806 75.0877 139.527C76.506 140.349 77.0006 141.499 78.1269 142.596C79.426 143.859 81.2316 143.931 82.936 143.871C84.2589 143.811 85.0396 140.677 85.6057 139.545Z" fill="#832C28" stroke="white" stroke-width="0.266659"/>
<path d="M71.9943 118.509C72.8882 118.652 73.9072 118.628 74.6879 119.141C75.7546 119.838 76.3922 121.018 77.4708 121.733C80.5398 123.747 82.9175 121.22 83.865 118.414C84.0557 117.841 84.2107 117.257 84.3 116.662C84.9317 116.816 85.4382 116.805 85.468 116.143C85.5455 114.457 84.9734 113.146 83.8054 111.93C82.7566 110.833 81.3979 110.988 80.0511 110.607C79.2407 110.375 77.1669 107.878 76.9464 107.913C77.3338 109.916 74.4257 109.63 73.2577 109.373C71.017 108.885 69.2352 106.799 66.8098 107.884C67.6799 108.241 67.1972 109.272 67.2032 110.13C67.2091 110.971 67.6501 111.578 67.7872 112.371C68.0732 114.028 66.0054 115.255 64.6943 115.72C65.5048 116.721 66.5417 116.959 67.7812 117.079C69.3008 117.228 70.5105 118.276 71.9943 118.509Z" fill="#832C28" stroke="white" stroke-width="0.266659"/>
<path d="M49.0107 112.562C48.1823 112.371 49.4338 108.915 48.8974 107.967C48.7306 107.681 48.4982 107.467 48.2002 107.318C47.3778 106.877 47.5685 106.567 47.5924 105.625C47.6162 104.612 47.795 103.54 48.8319 103.093C48.4624 102.425 48.0155 102.002 47.4017 101.573C46.2933 100.798 46.18 99.9462 45.7748 98.7425C44.1241 98.5935 42.1814 98.7901 41.1028 100.208C40.6022 100.876 40.3698 101.698 40.2924 102.521C38.9635 102.574 37.8372 102.223 36.6453 102.979C35.9898 103.397 34.8218 103.599 34.0889 103.468C33.6777 102.979 33.2307 102.95 32.748 103.385C32.6587 104.058 32.611 104.743 32.6229 105.429C32.6467 107.24 33.0818 109.981 35.2986 110.273C36.2818 110.405 37.3604 110.166 38.2722 110.679C39.3151 111.269 39.1065 112.246 39.3568 113.235C39.8216 115.041 42.9263 116.286 44.5651 116.453C45.6795 116.566 46.8058 116.489 47.9201 116.453C48.1406 115.434 49.392 115.488 50.1846 115.309C50.1191 114.26 49.0107 113.634 49.0107 112.562Z" fill="#832C28" stroke="white" stroke-width="0.266659"/>
<path d="M34.8531 103.276C34.0367 102.764 34.5313 101.441 33.8102 100.815C32.9998 100.106 32.6125 101.078 32.3502 99.8559C32.1893 99.0991 31.7424 98.3303 32.243 97.5973C34.2036 94.7071 40.568 95.7917 40.9672 91.8884C41.0745 90.8515 40.4428 87.9792 41.8671 87.6276C41.9743 86.4715 40.6514 86.9244 39.8409 87.1688C38.6014 87.5382 39.2689 88.9506 39.0424 90.0351C38.8636 90.8933 38.1962 91.3044 37.5466 91.7871C36.5813 92.5022 36.7243 92.7942 35.3894 92.3831C33.1667 91.7037 33.1369 90.0947 32.1417 88.3785C31.504 87.276 29.4362 86.7278 28.4231 87.6157C27.5054 88.4202 27.4578 89.9577 27.3207 91.072C27.1658 92.3115 26.3076 93.1697 25.0562 93.7298C24.4186 94.0159 23.6916 94.2662 23.1969 94.7846C22.9347 95.0587 23.4234 96.5128 23.2148 97.204C22.7262 98.819 22.8751 100.285 23.3221 101.918C23.6022 102.925 25.2171 105.577 26.254 103.67C26.9929 102.311 28.6913 101.393 30.1871 101.161C30.8843 101.054 31.6828 101.078 32.2251 101.59C32.9164 102.245 33.6255 104.057 34.8531 103.276Z" fill="#832C28" stroke="white" stroke-width="0.266659"/>
<path d="M41.8681 87.6288C40.6464 87.9268 41.0517 89.6431 41.0278 90.5191C40.9921 91.8182 40.9146 92.8848 40.1041 93.9515C38.5667 94.3031 37.1007 94.9467 35.6884 95.632C34.7468 96.0849 32.8518 96.6928 32.238 97.5986C31.6302 98.4924 32.2023 100.435 33.0306 100.519C34.145 100.632 34.1986 101.579 34.3833 102.461C34.5681 103.307 35.3368 103.701 36.1473 103.278C36.6717 103.004 37.1305 102.574 37.7384 102.485C38.8825 102.318 40.1161 103.111 40.3902 101.83C40.7716 100.048 45.3125 96.8358 45.962 99.434C46.3255 100.894 47.1896 101.198 48.1669 102.169C48.7271 102.729 48.4828 103.141 49.323 102.938C50.4314 102.676 50.4791 102.968 50.9797 101.967C51.4683 100.989 52.1953 99.9524 53.1428 99.3684C54.4241 98.5818 55.02 99.9226 56.0509 100.393C56.9984 100.822 57.9459 100.757 58.8041 101.401C60.2283 102.461 62.1174 102.586 63.4641 103.683C63.6012 102.753 63.3211 101.937 62.5285 101.389C64.5666 101.085 62.9814 97.1039 62.1412 96.1564C61.4499 95.3758 60.6752 94.6607 60.1091 93.7728C59.2748 92.4677 59.5132 92.2055 60.8242 91.7586C59.9721 91.5917 62.0518 89.5596 60.7289 88.5346C59.4238 87.5216 57.4871 87.2773 55.896 87.0925C51.2121 86.5383 48.9714 80.8652 43.8942 80.9903C43.7631 82.4622 44.1326 82.939 42.7024 83.6839C41.5105 84.2917 41.9694 86.5562 41.8681 87.6288Z" fill="#832C28" stroke="white" stroke-width="0.266659"/>
<path d="M77.4656 100.422C77.5192 98.992 77.6563 97.2877 76.8875 96.0065C75.9341 94.4273 74.8435 95.1901 73.5683 95.643C70.6006 96.6918 68.4076 93.7479 66.0895 92.7885C64.8142 92.2641 63.396 91.1438 61.9598 91.4119C60.3329 91.7218 59.01 92.0138 60.1244 93.7658C60.9348 95.0351 62.2637 95.935 62.949 97.2817C63.4615 98.2829 64.0157 101.161 62.5438 101.382C63.1159 101.781 63.4853 102.347 63.5211 103.05C63.5628 103.98 64.1766 104.379 64.5937 105.249C65.2731 106.673 65.8511 108.02 67.5972 107.627C70.1894 107.049 72.4658 109.707 75.1951 109.552C76.1724 109.498 77.1795 109.063 76.959 107.913C77.555 107.812 77.4715 107.353 77.5073 106.799C77.6205 104.671 77.3822 102.544 77.4656 100.422Z" fill="#832C28" stroke="white" stroke-width="0.266659"/>
<path d="M67.8012 112.996C67.9204 112.168 67.4079 111.566 67.2649 110.791C67.0921 109.844 67.7655 108.277 66.818 107.883C64.6786 107.001 64.8514 104.296 62.8492 103.271C61.9314 102.8 60.8886 102.645 59.9709 102.186C59.1902 101.799 58.6181 101.078 57.766 100.828C56.8363 100.56 56.014 100.506 55.281 99.8146C54.6374 99.2068 53.964 98.8611 53.1476 99.3617C51.8008 100.19 51.2466 102.687 49.9356 102.83C47.5102 103.098 47.5341 105.088 47.6175 107.085C49.7688 107.705 49 109.802 48.7497 111.423C48.6127 112.329 48.9047 112.907 49.3993 113.711C49.7568 114.295 50.8593 115.69 49.6079 115.72C50.4958 115.606 51.0857 116.345 51.9379 116.387C52.796 116.423 53.38 115.72 54.3156 115.833C56.0199 116.047 57.1939 117.09 58.8446 115.982C60.9243 114.587 61.2342 115.273 63.3855 115.845C64.8455 116.244 67.5748 114.516 67.8012 112.996Z" fill="#832C28" stroke="white" stroke-width="0.266659"/>
<path d="M124.808 105.875C124.153 105.369 123.187 104.969 122.341 105.106C122.406 106.185 121.84 106.477 121.697 107.281C121.423 108.837 119.028 107.55 118.086 107.401C117.323 107.275 116.715 107.538 116.4 108.271C115.684 108.295 114.957 108.271 114.242 108.372C112.562 108.61 112.246 110.076 112.073 111.548C113.039 111.62 115.214 111.965 115.404 113.199C115.595 114.45 114.278 113.443 115.095 115.04C115.798 116.423 116.406 117.853 116.996 119.283C117.675 120.922 118.253 122.591 119.451 123.931C120.374 124.962 121.62 127.829 120.184 128.794C121.298 129.11 122.508 129.593 123.312 130.463C124.021 131.231 124.838 130.898 125.875 130.802C126.858 130.707 127.931 130.612 128.89 130.916C130.094 131.303 129.885 131.309 131.059 130.486C131.947 129.867 130.791 127.572 130.648 126.565C130.451 125.207 130.666 124.045 131.208 122.805C131.715 121.631 131.709 120.558 131.75 119.307C131.792 118.02 131.786 115.934 133.443 116.935C133.032 115.076 131.864 114.653 130.136 114.629C129.063 114.611 129.045 114.629 129.122 113.562C129.182 112.77 129.271 111.977 129.254 111.185C129.218 109.57 128.556 108.42 126.882 108.116C125.773 107.901 125.613 106.501 124.808 105.875Z" fill="#832C28" stroke="white" stroke-width="0.266659"/>
<path d="M132.795 127.65C134.476 127.716 134.392 128.908 134.446 130.231C134.494 131.405 139.13 131.101 140.322 131.214C142.431 131.417 144.38 131.846 146.281 132.805C147.568 133.455 150.083 135.487 151.388 134.295C151.859 133.866 152.347 133.407 152.55 132.781C152.717 132.257 152.365 131.47 152.747 131.029C153.575 130.07 155.392 131.512 156.638 130.69C157.204 130.314 157.734 129.891 158.235 129.438C159.087 128.663 157.883 128.246 157.252 127.716C156.054 126.715 154.707 126.709 153.372 125.97C150.202 124.212 150.422 119.397 145.762 122.001C144.344 122.794 143.551 122.937 142.091 122.305C141.341 121.983 140.709 122.239 140.238 121.614C139.797 121.024 139.118 120.631 138.492 120.261C137.372 119.6 136.454 118.444 135.387 118.086C134.476 117.776 133.802 117.031 132.92 116.662C131.901 116.233 131.86 117.848 131.794 118.587C131.627 120.368 131.615 121.727 130.954 123.413C130.084 125.618 130.918 127.936 131.514 130.106C132.473 128.896 130.155 127.543 132.795 127.65Z" fill="#832C28" stroke="white" stroke-width="0.266659"/>
<path d="M164.377 130.225C162.846 130.082 162.154 128.616 160.569 128.52C158.555 128.395 157.828 130.076 156.135 130.987C155.045 131.577 153.603 130.028 152.739 131.029C152.357 131.47 152.715 132.257 152.542 132.781C152.268 133.627 151.499 134.146 150.903 134.748C153.257 135.141 154.086 136.708 155.885 138.001C157.87 139.426 160.664 138.353 162.506 139.628C163.406 140.248 164.127 139.229 165.313 139.968C166.087 140.451 166.582 141.112 167.124 141.815C167.631 142.471 168.25 142.81 169.085 142.882C170.467 142.995 169.806 140.57 169.77 139.521C169.728 138.222 169.556 137.542 171.075 137.799C172.19 137.989 173.191 138.585 174.21 139.044C175.193 139.485 176.82 140.361 176.945 138.925C177.046 137.817 177.13 136.702 177.046 135.594C176.832 133.168 173.769 132.507 171.796 131.947C169.186 131.196 167.124 130.487 164.377 130.225Z" fill="#832C28" stroke="white" stroke-width="0.266659"/>
<path d="M159.975 139.147C157.633 138.974 156.035 138.295 154.397 136.632C152.758 134.97 151.143 135.119 149.123 134.314C146.739 133.361 144.85 131.901 142.246 131.466C140.649 131.198 139.028 131.108 137.407 131.025C135.852 130.941 134.451 131.46 134.433 129.666C134.427 129.088 134.457 128.343 133.927 127.962C133.468 127.634 131.811 127.33 131.424 127.914C131.174 128.29 131.68 129.076 131.68 129.493C131.68 130.417 130.614 130.661 130.036 131.174C129.66 131.513 130.393 132.574 130.411 133.236C130.447 134.469 130.119 135.697 130.256 136.936C130.554 139.529 131.943 141.59 131.871 144.308C133.772 144.391 134.773 146.197 136.644 146.382C139.046 146.614 141.68 146.352 144.081 146.209C146.632 146.054 149.385 145.702 151.757 146.858C152.907 147.418 153.974 147.955 155.255 148.14C156.268 148.289 157.341 148.306 158.276 148.783C160.201 149.772 160.541 152.365 162.543 153.235C163.771 153.771 165.099 153.467 166.375 153.384C167.519 153.306 166.911 151.334 166.726 150.434C166.255 148.134 165.35 145.953 164.593 143.742C163.639 140.947 163.085 139.38 159.975 139.147Z" fill="#832C28" stroke="white" stroke-width="0.266659"/>
<path d="M130.396 137.602C129.795 135.755 131.314 132.936 129.777 131.423C128.418 130.088 125.808 130.881 124.145 130.952C123.383 130.982 122.399 129.671 121.583 129.301C120.272 128.705 119.694 128.991 118.478 129.677C116.619 130.72 116.434 133.723 113.669 132.305C113.627 132.907 114.623 132.811 115.069 133.395C115.534 134.003 115.761 134.784 115.904 135.523C113.741 136.411 111.601 135.707 109.367 135.815C110.147 137.465 110.284 139.098 108.681 140.29C108.056 140.761 107.227 140.898 106.673 141.47C105.964 142.203 106.119 143.407 104.975 143.752C106.709 146.619 110.147 145.284 112.799 145.79C115.832 146.368 116.887 149.247 120.349 148.836C120.278 150.582 121.565 152.882 123.472 153.043C124.068 153.096 124.741 152.5 125.415 152.393C126.606 152.214 127.542 150.725 128.436 150.015C128.764 149.735 129.133 149.533 129.538 149.396C129.413 148.794 129.228 148.144 129.342 147.525C129.538 146.458 130.593 145.147 131.559 144.646C133.108 143.836 130.79 138.824 130.396 137.602Z" fill="#832C28" stroke="white" stroke-width="0.266659"/>
<path d="M106.673 141.47C107.561 140.553 108.895 140.487 109.616 139.307C110.302 138.193 109.873 136.894 109.36 135.809C110.397 135.762 116.213 136.65 115.778 134.987C115.206 132.794 113.448 132.526 112.03 131.107C110.767 129.844 109.992 128.289 108.8 127.037C108.061 126.257 107.233 125.846 106.393 125.226C105.564 124.612 105.445 123.027 106.834 123.349C106.488 121.525 104.933 119.219 103.681 117.842C103.455 117.58 103.175 117.407 102.841 117.312C101.989 117.091 102.43 116.996 101.661 116.567C100.851 116.114 101.786 115.024 102.162 114.642C101.232 114.612 100.135 114.755 99.4918 115.506C98.7529 116.364 98.6695 117.282 97.2274 116.573C96.1726 116.055 93.0559 112.592 92.2991 115.173C92.0131 116.156 91.6555 115.822 90.5829 115.786C89.7724 115.763 88.956 115.739 88.1515 115.846C86.7392 116.037 85.3924 116.543 86.763 117.92C87.5079 118.665 88.5985 119.058 89.0514 120.065C89.689 121.477 88.9083 123.116 89.6175 124.517C90.714 126.686 93.6101 126.936 95.1595 128.67C96.107 129.725 96.3692 131.185 97.1439 132.353C97.865 133.438 99.0091 133.998 99.8851 134.915C100.827 135.905 100.702 137.198 101.125 138.407C101.494 139.468 102.233 140.344 102.704 141.357C103.067 142.132 103.484 143.622 104.498 143.777C105.958 144.015 105.964 142.203 106.673 141.47Z" fill="#832C28" stroke="white" stroke-width="0.266659"/>
<path d="M102.218 116.728C102.278 117.217 104.024 118.289 104.53 119.165C105.364 120.601 106.521 121.65 106.842 123.354C105.734 123.098 105.466 124.159 106.08 124.928C106.765 125.786 108.022 126.209 108.809 127.037C110.245 128.551 111.121 130.601 112.927 131.852C116.359 134.242 116.294 130.452 118.844 129.522C122.02 128.366 120.602 125.416 119.023 123.426C117.325 121.287 116.669 118.307 115.501 115.87C115.072 114.976 114.416 114.589 115.126 113.873C115.406 113.587 115.501 113.23 115.275 112.878C114.81 112.151 113.707 111.788 112.903 111.627C111.61 111.377 110.126 111.359 108.821 111.436C107.265 111.526 107.057 112.348 105.984 113.218C104.834 114.154 103.303 113.474 102.158 114.642C101.551 115.274 100.776 116.567 102.218 116.728Z" fill="#832C28" stroke="white" stroke-width="0.266659"/>
</svg>
